%TF.GenerationSoftware,KiCad,Pcbnew,9.0.4*%
%TF.CreationDate,2026-04-29T10:56:57-04:00*%
%TF.ProjectId,HypoV PCB,4879706f-5620-4504-9342-2e6b69636164,rev?*%
%TF.SameCoordinates,Original*%
%TF.FileFunction,Legend,Bot*%
%TF.FilePolarity,Positive*%
%FSLAX46Y46*%
G04 Gerber Fmt 4.6, Leading zero omitted, Abs format (unit mm)*
G04 Created by KiCad (PCBNEW 9.0.4) date 2026-04-29 10:56:57*
%MOMM*%
%LPD*%
G01*
G04 APERTURE LIST*
%ADD10C,0.150000*%
%ADD11C,0.120000*%
G04 APERTURE END LIST*
D10*
X76333333Y-88854819D02*
X76333333Y-89569104D01*
X76333333Y-89569104D02*
X76380952Y-89711961D01*
X76380952Y-89711961D02*
X76476190Y-89807200D01*
X76476190Y-89807200D02*
X76619047Y-89854819D01*
X76619047Y-89854819D02*
X76714285Y-89854819D01*
X75333333Y-89854819D02*
X75904761Y-89854819D01*
X75619047Y-89854819D02*
X75619047Y-88854819D01*
X75619047Y-88854819D02*
X75714285Y-88997676D01*
X75714285Y-88997676D02*
X75809523Y-89092914D01*
X75809523Y-89092914D02*
X75904761Y-89140533D01*
X101971009Y-70976190D02*
X102018628Y-71119047D01*
X102018628Y-71119047D02*
X102066247Y-71166666D01*
X102066247Y-71166666D02*
X102161485Y-71214285D01*
X102161485Y-71214285D02*
X102304342Y-71214285D01*
X102304342Y-71214285D02*
X102399580Y-71166666D01*
X102399580Y-71166666D02*
X102447200Y-71119047D01*
X102447200Y-71119047D02*
X102494819Y-71023809D01*
X102494819Y-71023809D02*
X102494819Y-70642857D01*
X102494819Y-70642857D02*
X101494819Y-70642857D01*
X101494819Y-70642857D02*
X101494819Y-70976190D01*
X101494819Y-70976190D02*
X101542438Y-71071428D01*
X101542438Y-71071428D02*
X101590057Y-71119047D01*
X101590057Y-71119047D02*
X101685295Y-71166666D01*
X101685295Y-71166666D02*
X101780533Y-71166666D01*
X101780533Y-71166666D02*
X101875771Y-71119047D01*
X101875771Y-71119047D02*
X101923390Y-71071428D01*
X101923390Y-71071428D02*
X101971009Y-70976190D01*
X101971009Y-70976190D02*
X101971009Y-70642857D01*
X102494819Y-72119047D02*
X102494819Y-71642857D01*
X102494819Y-71642857D02*
X101494819Y-71642857D01*
X101494819Y-72452381D02*
X102304342Y-72452381D01*
X102304342Y-72452381D02*
X102399580Y-72500000D01*
X102399580Y-72500000D02*
X102447200Y-72547619D01*
X102447200Y-72547619D02*
X102494819Y-72642857D01*
X102494819Y-72642857D02*
X102494819Y-72833333D01*
X102494819Y-72833333D02*
X102447200Y-72928571D01*
X102447200Y-72928571D02*
X102399580Y-72976190D01*
X102399580Y-72976190D02*
X102304342Y-73023809D01*
X102304342Y-73023809D02*
X101494819Y-73023809D01*
X101971009Y-73500000D02*
X101971009Y-73833333D01*
X102494819Y-73976190D02*
X102494819Y-73500000D01*
X102494819Y-73500000D02*
X101494819Y-73500000D01*
X101494819Y-73500000D02*
X101494819Y-73976190D01*
X102590057Y-74166667D02*
X102590057Y-74928571D01*
X102494819Y-75642857D02*
X102494819Y-75166667D01*
X102494819Y-75166667D02*
X101494819Y-75166667D01*
X101971009Y-75976191D02*
X101971009Y-76309524D01*
X102494819Y-76452381D02*
X102494819Y-75976191D01*
X102494819Y-75976191D02*
X101494819Y-75976191D01*
X101494819Y-75976191D02*
X101494819Y-76452381D01*
X102494819Y-76880953D02*
X101494819Y-76880953D01*
X101494819Y-76880953D02*
X101494819Y-77119048D01*
X101494819Y-77119048D02*
X101542438Y-77261905D01*
X101542438Y-77261905D02*
X101637676Y-77357143D01*
X101637676Y-77357143D02*
X101732914Y-77404762D01*
X101732914Y-77404762D02*
X101923390Y-77452381D01*
X101923390Y-77452381D02*
X102066247Y-77452381D01*
X102066247Y-77452381D02*
X102256723Y-77404762D01*
X102256723Y-77404762D02*
X102351961Y-77357143D01*
X102351961Y-77357143D02*
X102447200Y-77261905D01*
X102447200Y-77261905D02*
X102494819Y-77119048D01*
X102494819Y-77119048D02*
X102494819Y-76880953D01*
X102494819Y-78404762D02*
X102494819Y-77833334D01*
X102494819Y-78119048D02*
X101494819Y-78119048D01*
X101494819Y-78119048D02*
X101637676Y-78023810D01*
X101637676Y-78023810D02*
X101732914Y-77928572D01*
X101732914Y-77928572D02*
X101780533Y-77833334D01*
X87494819Y-71642856D02*
X87018628Y-71309523D01*
X87494819Y-71071428D02*
X86494819Y-71071428D01*
X86494819Y-71071428D02*
X86494819Y-71452380D01*
X86494819Y-71452380D02*
X86542438Y-71547618D01*
X86542438Y-71547618D02*
X86590057Y-71595237D01*
X86590057Y-71595237D02*
X86685295Y-71642856D01*
X86685295Y-71642856D02*
X86828152Y-71642856D01*
X86828152Y-71642856D02*
X86923390Y-71595237D01*
X86923390Y-71595237D02*
X86971009Y-71547618D01*
X86971009Y-71547618D02*
X87018628Y-71452380D01*
X87018628Y-71452380D02*
X87018628Y-71071428D01*
X86971009Y-72071428D02*
X86971009Y-72404761D01*
X87494819Y-72547618D02*
X87494819Y-72071428D01*
X87494819Y-72071428D02*
X86494819Y-72071428D01*
X86494819Y-72071428D02*
X86494819Y-72547618D01*
X87494819Y-72976190D02*
X86494819Y-72976190D01*
X86494819Y-72976190D02*
X86494819Y-73214285D01*
X86494819Y-73214285D02*
X86542438Y-73357142D01*
X86542438Y-73357142D02*
X86637676Y-73452380D01*
X86637676Y-73452380D02*
X86732914Y-73499999D01*
X86732914Y-73499999D02*
X86923390Y-73547618D01*
X86923390Y-73547618D02*
X87066247Y-73547618D01*
X87066247Y-73547618D02*
X87256723Y-73499999D01*
X87256723Y-73499999D02*
X87351961Y-73452380D01*
X87351961Y-73452380D02*
X87447200Y-73357142D01*
X87447200Y-73357142D02*
X87494819Y-73214285D01*
X87494819Y-73214285D02*
X87494819Y-72976190D01*
X87590057Y-73738095D02*
X87590057Y-74499999D01*
X87494819Y-75214285D02*
X87494819Y-74738095D01*
X87494819Y-74738095D02*
X86494819Y-74738095D01*
X86971009Y-75547619D02*
X86971009Y-75880952D01*
X87494819Y-76023809D02*
X87494819Y-75547619D01*
X87494819Y-75547619D02*
X86494819Y-75547619D01*
X86494819Y-75547619D02*
X86494819Y-76023809D01*
X87494819Y-76452381D02*
X86494819Y-76452381D01*
X86494819Y-76452381D02*
X86494819Y-76690476D01*
X86494819Y-76690476D02*
X86542438Y-76833333D01*
X86542438Y-76833333D02*
X86637676Y-76928571D01*
X86637676Y-76928571D02*
X86732914Y-76976190D01*
X86732914Y-76976190D02*
X86923390Y-77023809D01*
X86923390Y-77023809D02*
X87066247Y-77023809D01*
X87066247Y-77023809D02*
X87256723Y-76976190D01*
X87256723Y-76976190D02*
X87351961Y-76928571D01*
X87351961Y-76928571D02*
X87447200Y-76833333D01*
X87447200Y-76833333D02*
X87494819Y-76690476D01*
X87494819Y-76690476D02*
X87494819Y-76452381D01*
X87494819Y-77976190D02*
X87494819Y-77404762D01*
X87494819Y-77690476D02*
X86494819Y-77690476D01*
X86494819Y-77690476D02*
X86637676Y-77595238D01*
X86637676Y-77595238D02*
X86732914Y-77500000D01*
X86732914Y-77500000D02*
X86780533Y-77404762D01*
D11*
%TO.C,J1*%
X75500000Y-86900000D02*
X75500000Y-84900000D01*
X80500000Y-91400000D02*
X80500000Y-92900000D01*
X75500000Y-92900000D02*
X75500000Y-90900000D01*
X75000000Y-85900000D02*
G75*
G02*
X74600000Y-85900000I-200000J0D01*
G01*
X74600000Y-85900000D02*
G75*
G02*
X75000000Y-85900000I200000J0D01*
G01*
X80500000Y-84900000D02*
X80000000Y-84900000D01*
X75500000Y-84900000D02*
X76000000Y-84900000D01*
X75500000Y-92900000D02*
X76000000Y-92900000D01*
X80500000Y-92900000D02*
X80000000Y-92900000D01*
X80500000Y-84900000D02*
X80500000Y-86400000D01*
X80500000Y-86400000D02*
X80250000Y-86400000D01*
X80250000Y-86400000D02*
X80250000Y-86900000D01*
X80250000Y-86900000D02*
X80500000Y-86900000D01*
X80500000Y-86900000D02*
X80500000Y-90900000D01*
X80500000Y-90900000D02*
X80250000Y-90900000D01*
X80250000Y-90900000D02*
X80250000Y-91400000D01*
X80250000Y-91400000D02*
X80500000Y-91400000D01*
%TO.C,BLUE_LED1*%
X103764000Y-72940000D02*
X103920000Y-72940000D01*
X106080000Y-72940000D02*
X106236000Y-72940000D01*
X103919939Y-76171397D02*
G75*
G02*
X103764484Y-72940000I1080061J1671397D01*
G01*
X103919951Y-75540910D02*
G75*
G02*
X103920000Y-73459039I1080049J1040910D01*
G01*
X106080000Y-73459039D02*
G75*
G02*
X106080049Y-75540910I-1080000J-1040961D01*
G01*
X106235516Y-72940000D02*
G75*
G02*
X106080061Y-76171397I-1235516J-1560000D01*
G01*
%TO.C,RED_LED1*%
X88764000Y-72940000D02*
X88920000Y-72940000D01*
X91080000Y-72940000D02*
X91236000Y-72940000D01*
X88919939Y-76171397D02*
G75*
G02*
X88764484Y-72940000I1080061J1671397D01*
G01*
X88919951Y-75540910D02*
G75*
G02*
X88920000Y-73459039I1080049J1040910D01*
G01*
X91080000Y-73459039D02*
G75*
G02*
X91080049Y-75540910I-1080000J-1040961D01*
G01*
X91235516Y-72940000D02*
G75*
G02*
X91080061Y-76171397I-1235516J-1560000D01*
G01*
%TD*%
M02*
