%TF.GenerationSoftware,KiCad,Pcbnew,9.0.4*%
%TF.CreationDate,2026-04-29T10:56:57-04:00*%
%TF.ProjectId,HypoV PCB,4879706f-5620-4504-9342-2e6b69636164,rev?*%
%TF.SameCoordinates,Original*%
%TF.FileFunction,Copper,L1,Top*%
%TF.FilePolarity,Positive*%
%FSLAX46Y46*%
G04 Gerber Fmt 4.6, Leading zero omitted, Abs format (unit mm)*
G04 Created by KiCad (PCBNEW 9.0.4) date 2026-04-29 10:56:57*
%MOMM*%
%LPD*%
G01*
G04 APERTURE LIST*
G04 Aperture macros list*
%AMRoundRect*
0 Rectangle with rounded corners*
0 $1 Rounding radius*
0 $2 $3 $4 $5 $6 $7 $8 $9 X,Y pos of 4 corners*
0 Add a 4 corners polygon primitive as box body*
4,1,4,$2,$3,$4,$5,$6,$7,$8,$9,$2,$3,0*
0 Add four circle primitives for the rounded corners*
1,1,$1+$1,$2,$3*
1,1,$1+$1,$4,$5*
1,1,$1+$1,$6,$7*
1,1,$1+$1,$8,$9*
0 Add four rect primitives between the rounded corners*
20,1,$1+$1,$2,$3,$4,$5,0*
20,1,$1+$1,$4,$5,$6,$7,0*
20,1,$1+$1,$6,$7,$8,$9,0*
20,1,$1+$1,$8,$9,$2,$3,0*%
G04 Aperture macros list end*
%TA.AperFunction,SMDPad,CuDef*%
%ADD10R,1.600000X1.200000*%
%TD*%
%TA.AperFunction,SMDPad,CuDef*%
%ADD11R,1.200000X1.600000*%
%TD*%
%TA.AperFunction,ComponentPad*%
%ADD12C,1.600000*%
%TD*%
%TA.AperFunction,SMDPad,CuDef*%
%ADD13R,1.600000X3.000000*%
%TD*%
%TA.AperFunction,SMDPad,CuDef*%
%ADD14R,1.200000X2.400000*%
%TD*%
%TA.AperFunction,SMDPad,CuDef*%
%ADD15C,1.200000*%
%TD*%
%TA.AperFunction,SMDPad,CuDef*%
%ADD16R,3.000000X3.000000*%
%TD*%
%TA.AperFunction,ComponentPad*%
%ADD17R,1.800000X1.800000*%
%TD*%
%TA.AperFunction,ComponentPad*%
%ADD18C,1.800000*%
%TD*%
%TA.AperFunction,SMDPad,CuDef*%
%ADD19RoundRect,0.040000X-0.340000X-0.120000X0.340000X-0.120000X0.340000X0.120000X-0.340000X0.120000X0*%
%TD*%
%TA.AperFunction,SMDPad,CuDef*%
%ADD20R,1.500000X2.300000*%
%TD*%
%TA.AperFunction,ViaPad*%
%ADD21C,1.300000*%
%TD*%
%TA.AperFunction,Conductor*%
%ADD22C,0.500000*%
%TD*%
%TA.AperFunction,Conductor*%
%ADD23C,0.300000*%
%TD*%
G04 APERTURE END LIST*
D10*
%TO.P,R2,1*%
%TO.N,Net-(BLUE_LED1-A)*%
X104000000Y-79000000D03*
%TO.P,R2,2*%
%TO.N,Net-(ESP32S3-D8)*%
X104000000Y-82000000D03*
%TD*%
%TO.P,R1,1*%
%TO.N,Net-(RED_LED1-A)*%
X94500000Y-79000000D03*
%TO.P,R1,2*%
%TO.N,Net-(ESP32S3-D7)*%
X94500000Y-82000000D03*
%TD*%
%TO.P,PULLUP_4.7K_R3,1*%
%TO.N,+3.3V*%
X113000000Y-110500000D03*
%TO.P,PULLUP_4.7K_R3,2*%
%TO.N,/OS*%
X113000000Y-107500000D03*
%TD*%
D11*
%TO.P,PULLUP_4.7K_R2,1*%
%TO.N,+3.3V*%
X110000000Y-104000000D03*
%TO.P,PULLUP_4.7K_R2,2*%
%TO.N,/SCL*%
X107000000Y-104000000D03*
%TD*%
%TO.P,PULLUP_4.7K_R1,1*%
%TO.N,+3.3V*%
X117000000Y-100500000D03*
%TO.P,PULLUP_4.7K_R1,2*%
%TO.N,/SDA*%
X114000000Y-100500000D03*
%TD*%
D12*
%TO.P,ESP32S3,1,D0*%
%TO.N,unconnected-(ESP32S3-D0-Pad1)*%
X73500000Y-97500000D03*
D13*
X73500000Y-98500000D03*
D12*
%TO.P,ESP32S3,2,D1*%
%TO.N,unconnected-(ESP32S3-D1-Pad2)*%
X76040000Y-97500000D03*
D13*
X76040000Y-98500000D03*
D12*
%TO.P,ESP32S3,3,D2*%
%TO.N,unconnected-(ESP32S3-D2-Pad3)*%
X78580000Y-97500000D03*
D13*
X78580000Y-98500000D03*
D12*
%TO.P,ESP32S3,4,D3*%
%TO.N,unconnected-(ESP32S3-D3-Pad4)*%
X81120000Y-97500000D03*
D13*
X81120000Y-98500000D03*
D12*
%TO.P,ESP32S3,5,D4*%
%TO.N,/SDA*%
X83660000Y-97500000D03*
D13*
X83660000Y-98500000D03*
D12*
%TO.P,ESP32S3,6,D5*%
%TO.N,/SCL*%
X86200000Y-97500000D03*
D13*
X86200000Y-98500000D03*
D12*
%TO.P,ESP32S3,7,D6*%
%TO.N,/OS*%
X88740000Y-97500000D03*
D13*
X88740000Y-98500000D03*
D12*
%TO.P,ESP32S3,8,D7*%
%TO.N,Net-(ESP32S3-D7)*%
X88740000Y-82265000D03*
D13*
X88740000Y-81265000D03*
D12*
%TO.P,ESP32S3,9,D8*%
%TO.N,Net-(ESP32S3-D8)*%
X86200000Y-82265000D03*
D13*
X86200000Y-81265000D03*
D12*
%TO.P,ESP32S3,10,D9*%
%TO.N,/D9*%
X83660000Y-82265000D03*
D13*
X83660000Y-81265000D03*
D12*
%TO.P,ESP32S3,11,D10*%
%TO.N,unconnected-(ESP32S3-D10-Pad11)*%
X81120000Y-82265000D03*
D13*
X81120000Y-81265000D03*
D12*
%TO.P,ESP32S3,12,3V3*%
%TO.N,+3.3V*%
X78580000Y-82265000D03*
D13*
X78580000Y-81265000D03*
D12*
%TO.P,ESP32S3,13,GND*%
%TO.N,GND*%
X76040000Y-82265000D03*
D13*
X76040000Y-81265000D03*
D12*
%TO.P,ESP32S3,14,5V*%
%TO.N,unconnected-(ESP32S3-5V-Pad14)*%
X73500000Y-82265000D03*
D13*
X73500000Y-81265000D03*
D14*
%TO.P,ESP32S3,15,BAT_GND*%
%TO.N,GND*%
X78820000Y-94385000D03*
%TO.P,ESP32S3,16,BAT_VIN*%
%TO.N,Net-(ESP32S3-BAT_VIN)*%
X80920000Y-94385000D03*
D15*
%TO.P,ESP32S3,17,MTDI*%
%TO.N,unconnected-(ESP32S3-MTDI-Pad17)*%
X72440000Y-91155000D03*
%TO.P,ESP32S3,18,EN*%
%TO.N,unconnected-(ESP32S3-EN-Pad18)*%
X74980000Y-91155000D03*
%TO.P,ESP32S3,19,MTMS*%
%TO.N,unconnected-(ESP32S3-MTMS-Pad19)*%
X77520000Y-91155000D03*
%TO.P,ESP32S3,20,MTCK*%
%TO.N,unconnected-(ESP32S3-MTCK-Pad20)*%
X77520000Y-88615000D03*
%TO.P,ESP32S3,21,GND*%
%TO.N,unconnected-(ESP32S3-GND-Pad21)*%
X74980000Y-88615000D03*
%TO.P,ESP32S3,22,MTDO*%
%TO.N,unconnected-(ESP32S3-MTDO-Pad22)*%
X72440000Y-88615000D03*
%TO.P,ESP32S3,23,D-*%
%TO.N,unconnected-(ESP32S3-D--Pad23)*%
X79920000Y-91135000D03*
%TO.P,ESP32S3,24,D+*%
%TO.N,unconnected-(ESP32S3-D+-Pad24)*%
X79920000Y-88635000D03*
D16*
%TO.P,ESP32S3,25,THERMAL*%
%TO.N,unconnected-(ESP32S3-THERMAL-Pad25)*%
X83420000Y-88585000D03*
%TD*%
D10*
%TO.P,BYPASS_CAP_.1UF1,1*%
%TO.N,+3.3V*%
X126500000Y-101500000D03*
%TO.P,BYPASS_CAP_.1UF1,2*%
%TO.N,GND*%
X126500000Y-104500000D03*
%TD*%
D17*
%TO.P,BLUE_LED1,1,K*%
%TO.N,GND*%
X105000000Y-73230000D03*
D18*
%TO.P,BLUE_LED1,2,A*%
%TO.N,Net-(BLUE_LED1-A)*%
X105000000Y-75770000D03*
%TD*%
%TO.P,LittleGuy1,GND,GND*%
%TO.N,GND*%
X121920000Y-82080000D03*
%TO.P,LittleGuy1,INT,INT*%
%TO.N,/D9*%
X116840000Y-79540000D03*
%TO.P,LittleGuy1,INT1,INT__1*%
%TO.N,unconnected-(LittleGuy1-INT__1-PadINT1)*%
X127000000Y-79540000D03*
%TO.P,LittleGuy1,SCL,SCL*%
%TO.N,unconnected-(LittleGuy1-PadSCL)*%
X116840000Y-77000000D03*
%TO.P,LittleGuy1,SCL1,SCL__1*%
%TO.N,/SCL*%
X127000000Y-77000000D03*
%TO.P,LittleGuy1,SDA,SDA*%
%TO.N,/SDA*%
X116840000Y-74460000D03*
%TO.P,LittleGuy1,SDA1,SDA__1*%
X127000000Y-74460000D03*
%TO.P,LittleGuy1,VIN,VIN*%
%TO.N,+3.3V*%
X121920000Y-71920000D03*
%TD*%
D17*
%TO.P,RED_LED1,1,K*%
%TO.N,GND*%
X90000000Y-73230000D03*
D18*
%TO.P,RED_LED1,2,A*%
%TO.N,Net-(RED_LED1-A)*%
X90000000Y-75770000D03*
%TD*%
D19*
%TO.P,TempSensor1,1,SDA*%
%TO.N,/SDA*%
X119000000Y-104050000D03*
%TO.P,TempSensor1,2,SCL*%
%TO.N,/SCL*%
X119000000Y-104700000D03*
%TO.P,TempSensor1,3,OS*%
%TO.N,/OS*%
X119000000Y-105350000D03*
%TO.P,TempSensor1,4,GND*%
%TO.N,GND*%
X119000000Y-106000000D03*
%TO.P,TempSensor1,5,A2*%
X121970000Y-106000000D03*
%TO.P,TempSensor1,6,A1*%
X121970000Y-105350000D03*
%TO.P,TempSensor1,7,A0*%
X121970000Y-104700000D03*
%TO.P,TempSensor1,8,VDD*%
%TO.N,+3.3V*%
X121970000Y-104050000D03*
D20*
%TO.P,TempSensor1,9,EPAD*%
%TO.N,GND*%
X120485000Y-105025000D03*
%TD*%
D21*
%TO.N,GND*%
X75500000Y-76500000D03*
%TO.N,+3.3V*%
X112500000Y-104000000D03*
%TO.N,/SCL*%
X106500000Y-102000000D03*
%TO.N,+3.3V*%
X119500000Y-99000000D03*
%TO.N,GND*%
X121000000Y-108500000D03*
%TO.N,+3.3V*%
X80000000Y-77000000D03*
%TD*%
D22*
%TO.N,GND*%
X121000000Y-108500000D02*
X121000000Y-105540000D01*
X121000000Y-105540000D02*
X120485000Y-105025000D01*
%TO.N,+3.3V*%
X110000000Y-104000000D02*
X112500000Y-104000000D01*
%TO.N,Net-(ESP32S3-BAT_VIN)*%
X80920000Y-94385000D02*
X80920000Y-94420000D01*
X80920000Y-94420000D02*
X81000000Y-94500000D01*
%TO.N,+3.3V*%
X119500000Y-100500000D02*
X126500000Y-100500000D01*
X119500000Y-100500000D02*
X119500000Y-99000000D01*
%TO.N,/D9*%
X83660000Y-82265000D02*
X83660000Y-83660000D01*
X115380000Y-81000000D02*
X116840000Y-79540000D01*
X86000000Y-86000000D02*
X110000000Y-86000000D01*
X83660000Y-83660000D02*
X86000000Y-86000000D01*
X110000000Y-86000000D02*
X115000000Y-81000000D01*
X115000000Y-81000000D02*
X115380000Y-81000000D01*
%TO.N,/SDA*%
X119500000Y-74460000D02*
X127000000Y-74460000D01*
X119500000Y-74460000D02*
X119500000Y-81500000D01*
X119500000Y-81500000D02*
X108500000Y-92500000D01*
%TO.N,+3.3V*%
X126500000Y-84500000D02*
X126500000Y-100500000D01*
X117000000Y-100500000D02*
X119500000Y-100500000D01*
%TO.N,/SCL*%
X107000000Y-102500000D02*
X106500000Y-102000000D01*
X107000000Y-104000000D02*
X107000000Y-102500000D01*
%TO.N,/SDA*%
X116840000Y-74460000D02*
X119500000Y-74460000D01*
%TO.N,+3.3V*%
X129580000Y-71920000D02*
X130000000Y-71500000D01*
X130000000Y-71500000D02*
X130000000Y-84000000D01*
X130000000Y-84000000D02*
X130500000Y-84500000D01*
X130500000Y-84500000D02*
X126500000Y-84500000D01*
X121920000Y-71920000D02*
X129580000Y-71920000D01*
X126500000Y-100500000D02*
X126500000Y-101500000D01*
X78580000Y-82265000D02*
X78580000Y-77080000D01*
X78500000Y-77000000D02*
X80000000Y-77000000D01*
X78580000Y-77080000D02*
X78500000Y-77000000D01*
%TO.N,/SDA*%
X108000000Y-92500000D02*
X108500000Y-92500000D01*
%TO.N,Net-(ESP32S3-D8)*%
X104000000Y-82000000D02*
X98000000Y-82000000D01*
X98000000Y-82000000D02*
X96000000Y-84000000D01*
X86500000Y-84000000D02*
X86000000Y-83500000D01*
X96000000Y-84000000D02*
X86500000Y-84000000D01*
X86000000Y-83500000D02*
X86200000Y-83300000D01*
X86200000Y-83300000D02*
X86200000Y-82265000D01*
%TO.N,Net-(BLUE_LED1-A)*%
X105000000Y-75770000D02*
X105000000Y-78000000D01*
X105000000Y-78000000D02*
X104000000Y-79000000D01*
%TO.N,Net-(RED_LED1-A)*%
X94270000Y-75770000D02*
X94500000Y-76000000D01*
X90000000Y-75770000D02*
X94270000Y-75770000D01*
X94500000Y-76000000D02*
X94500000Y-79000000D01*
%TO.N,Net-(ESP32S3-D7)*%
X94500000Y-82000000D02*
X89005000Y-82000000D01*
X89005000Y-82000000D02*
X88740000Y-82265000D01*
D23*
%TO.N,/SCL*%
X107000000Y-104000000D02*
X108500000Y-105500000D01*
X108500000Y-105500000D02*
X112500000Y-105500000D01*
X112500000Y-105500000D02*
X113300000Y-104700000D01*
X113300000Y-104700000D02*
X119000000Y-104700000D01*
%TO.N,/SDA*%
X119000000Y-104050000D02*
X119000000Y-102000000D01*
X119000000Y-102000000D02*
X115500000Y-102000000D01*
X115500000Y-102000000D02*
X114000000Y-100500000D01*
X108500000Y-97000000D02*
X112000000Y-100500000D01*
X108500000Y-92500000D02*
X108500000Y-97000000D01*
X112000000Y-100500000D02*
X114000000Y-100500000D01*
%TO.N,/SCL*%
X91000000Y-94500000D02*
X100500000Y-104000000D01*
X100500000Y-104000000D02*
X107000000Y-104000000D01*
%TO.N,/OS*%
X88740000Y-97500000D02*
X98740000Y-107500000D01*
X98740000Y-107500000D02*
X113000000Y-107500000D01*
X117650000Y-105350000D02*
X115500000Y-107500000D01*
X115500000Y-107500000D02*
X113000000Y-107500000D01*
%TO.N,+3.3V*%
X129000000Y-108500000D02*
X126500000Y-111000000D01*
X126500000Y-111000000D02*
X126000000Y-110500000D01*
X126000000Y-110500000D02*
X113000000Y-110500000D01*
X129000000Y-101500000D02*
X129000000Y-108500000D01*
X126500000Y-101500000D02*
X129000000Y-101500000D01*
%TO.N,/SCL*%
X86500000Y-94500000D02*
X91000000Y-94500000D01*
X86200000Y-97500000D02*
X86200000Y-95300000D01*
X86200000Y-95300000D02*
X86500000Y-95000000D01*
X86500000Y-95000000D02*
X86500000Y-94500000D01*
%TO.N,/OS*%
X119000000Y-105350000D02*
X117650000Y-105350000D01*
%TO.N,+3.3V*%
X126500000Y-101500000D02*
X122000000Y-101500000D01*
X122000000Y-101500000D02*
X121970000Y-101530000D01*
X121970000Y-101530000D02*
X121970000Y-104050000D01*
D22*
%TO.N,/SDA*%
X84000000Y-92500000D02*
X108000000Y-92500000D01*
X83660000Y-97500000D02*
X83660000Y-92840000D01*
X83660000Y-92840000D02*
X84000000Y-92500000D01*
%TO.N,GND*%
X75500000Y-76500000D02*
X75500000Y-81725000D01*
X75500000Y-81725000D02*
X76040000Y-82265000D01*
%TD*%
%TA.AperFunction,Conductor*%
%TO.N,GND*%
G36*
X131845788Y-70519454D02*
G01*
X131926570Y-70573430D01*
X131980546Y-70654212D01*
X131999500Y-70749500D01*
X131999500Y-112250500D01*
X131980546Y-112345788D01*
X131926570Y-112426570D01*
X131845788Y-112480546D01*
X131750500Y-112499500D01*
X71749500Y-112499500D01*
X71654212Y-112480546D01*
X71573430Y-112426570D01*
X71519454Y-112345788D01*
X71500500Y-112250500D01*
X71500500Y-92542216D01*
X71519454Y-92446928D01*
X71573430Y-92366146D01*
X71654212Y-92312170D01*
X71749500Y-92293216D01*
X71844788Y-92312170D01*
X71862530Y-92320349D01*
X71940781Y-92360220D01*
X72135466Y-92423477D01*
X72206575Y-92434739D01*
X72337638Y-92455499D01*
X72337645Y-92455499D01*
X72337648Y-92455500D01*
X72337651Y-92455500D01*
X72542349Y-92455500D01*
X72542352Y-92455500D01*
X72542355Y-92455499D01*
X72542361Y-92455499D01*
X72637870Y-92440371D01*
X72744534Y-92423477D01*
X72939219Y-92360220D01*
X73121610Y-92267287D01*
X73287219Y-92146966D01*
X73431966Y-92002219D01*
X73508555Y-91896801D01*
X73579897Y-91830854D01*
X73671047Y-91797227D01*
X73768127Y-91801041D01*
X73856358Y-91841715D01*
X73911443Y-91896800D01*
X73988034Y-92002219D01*
X74132781Y-92146966D01*
X74298390Y-92267287D01*
X74298392Y-92267288D01*
X74423017Y-92330788D01*
X74480781Y-92360220D01*
X74675466Y-92423477D01*
X74746575Y-92434739D01*
X74877638Y-92455499D01*
X74877645Y-92455499D01*
X74877648Y-92455500D01*
X74877651Y-92455500D01*
X75082349Y-92455500D01*
X75082352Y-92455500D01*
X75082355Y-92455499D01*
X75082361Y-92455499D01*
X75177870Y-92440371D01*
X75284534Y-92423477D01*
X75479219Y-92360220D01*
X75661610Y-92267287D01*
X75827219Y-92146966D01*
X75971966Y-92002219D01*
X76048555Y-91896801D01*
X76119897Y-91830854D01*
X76211047Y-91797227D01*
X76308127Y-91801041D01*
X76396358Y-91841715D01*
X76451443Y-91896800D01*
X76528034Y-92002219D01*
X76672781Y-92146966D01*
X76838390Y-92267287D01*
X76838392Y-92267288D01*
X76963017Y-92330788D01*
X77020781Y-92360220D01*
X77215466Y-92423477D01*
X77286575Y-92434739D01*
X77417638Y-92455499D01*
X77417645Y-92455499D01*
X77417648Y-92455500D01*
X77417651Y-92455500D01*
X77622356Y-92455500D01*
X77625291Y-92455269D01*
X77627243Y-92455500D01*
X77632135Y-92455500D01*
X77632135Y-92456079D01*
X77721773Y-92466688D01*
X77806540Y-92514159D01*
X77866688Y-92590457D01*
X77893060Y-92683964D01*
X77881641Y-92780446D01*
X77844162Y-92852722D01*
X77776647Y-92942910D01*
X77726403Y-93077621D01*
X77726401Y-93077628D01*
X77720000Y-93137167D01*
X77720000Y-94134999D01*
X77720001Y-94135000D01*
X78570000Y-94135000D01*
X78570000Y-92685001D01*
X78569999Y-92685000D01*
X78393021Y-92685000D01*
X78297733Y-92666046D01*
X78216951Y-92612070D01*
X78162975Y-92531288D01*
X78144021Y-92436000D01*
X78162975Y-92340712D01*
X78216951Y-92259930D01*
X78246663Y-92234554D01*
X78247299Y-92234092D01*
X78367219Y-92146966D01*
X78511966Y-92002219D01*
X78525820Y-91983150D01*
X78534582Y-91975050D01*
X78540583Y-91964733D01*
X78569999Y-91942310D01*
X78597158Y-91917204D01*
X78608355Y-91913072D01*
X78617849Y-91905836D01*
X78653611Y-91896375D01*
X78688307Y-91883575D01*
X78700232Y-91884043D01*
X78711774Y-91880990D01*
X78748431Y-91885935D01*
X78785387Y-91887386D01*
X78796227Y-91892383D01*
X78808057Y-91893979D01*
X78840028Y-91912574D01*
X78873619Y-91928059D01*
X78883306Y-91937746D01*
X78892040Y-91942826D01*
X78912594Y-91960968D01*
X78928034Y-91982219D01*
X79072781Y-92126966D01*
X79230423Y-92241498D01*
X79239282Y-92249318D01*
X79261704Y-92278734D01*
X79286814Y-92305897D01*
X79290944Y-92317093D01*
X79298179Y-92326584D01*
X79307639Y-92362346D01*
X79320441Y-92397047D01*
X79319972Y-92408969D01*
X79323025Y-92420509D01*
X79318078Y-92457173D01*
X79316627Y-92494127D01*
X79311631Y-92504962D01*
X79310036Y-92516792D01*
X79291437Y-92548768D01*
X79275953Y-92582358D01*
X79267188Y-92590459D01*
X79261189Y-92600775D01*
X79231772Y-92623197D01*
X79204610Y-92648307D01*
X79193413Y-92652437D01*
X79183923Y-92659672D01*
X79148160Y-92669132D01*
X79113460Y-92681934D01*
X79101537Y-92681465D01*
X79089998Y-92684518D01*
X79074507Y-92685000D01*
X79070001Y-92685000D01*
X79070000Y-92685001D01*
X79070000Y-94136000D01*
X79051046Y-94231288D01*
X78997070Y-94312070D01*
X78916288Y-94366046D01*
X78821000Y-94385000D01*
X78820000Y-94385000D01*
X78820000Y-94386000D01*
X78801046Y-94481288D01*
X78747070Y-94562070D01*
X78666288Y-94616046D01*
X78571000Y-94635000D01*
X77720001Y-94635000D01*
X77720000Y-94635001D01*
X77720000Y-95632832D01*
X77726401Y-95692371D01*
X77726403Y-95692378D01*
X77776647Y-95827090D01*
X77820132Y-95885178D01*
X77820913Y-95886810D01*
X77822245Y-95888042D01*
X77841871Y-95930615D01*
X77862063Y-95972819D01*
X77862159Y-95974626D01*
X77862919Y-95976273D01*
X77864757Y-96023074D01*
X77867264Y-96069834D01*
X77866660Y-96071543D01*
X77866732Y-96073353D01*
X77850526Y-96117278D01*
X77834942Y-96161455D01*
X77833731Y-96162802D01*
X77833104Y-96164503D01*
X77801299Y-96198909D01*
X77770019Y-96233733D01*
X77767155Y-96235846D01*
X77717318Y-96272054D01*
X77645039Y-96308332D01*
X77490395Y-96356520D01*
X77438817Y-96387701D01*
X77347466Y-96420776D01*
X77250410Y-96416375D01*
X77181183Y-96387701D01*
X77129607Y-96356522D01*
X76974960Y-96308333D01*
X76902678Y-96272052D01*
X76826437Y-96216659D01*
X76812747Y-96209683D01*
X76615992Y-96109432D01*
X76615989Y-96109431D01*
X76615987Y-96109430D01*
X76481990Y-96065892D01*
X76391368Y-96036447D01*
X76391366Y-96036446D01*
X76391364Y-96036446D01*
X76158103Y-95999501D01*
X76158094Y-95999500D01*
X76158092Y-95999500D01*
X75921908Y-95999500D01*
X75921905Y-95999500D01*
X75921896Y-95999501D01*
X75688635Y-96036446D01*
X75464012Y-96109430D01*
X75464002Y-96109434D01*
X75253568Y-96216656D01*
X75177316Y-96272055D01*
X75123147Y-96301914D01*
X75113200Y-96305877D01*
X75112804Y-96305914D01*
X74950394Y-96356522D01*
X74881254Y-96398318D01*
X74862186Y-96405918D01*
X74834213Y-96411091D01*
X74807466Y-96420776D01*
X74786897Y-96419843D01*
X74766651Y-96423588D01*
X74738826Y-96417663D01*
X74710410Y-96416375D01*
X74686751Y-96406575D01*
X74671626Y-96403355D01*
X74660499Y-96395701D01*
X74641183Y-96387701D01*
X74589607Y-96356522D01*
X74434960Y-96308333D01*
X74362678Y-96272052D01*
X74286437Y-96216659D01*
X74272747Y-96209683D01*
X74075992Y-96109432D01*
X74075989Y-96109431D01*
X74075987Y-96109430D01*
X73941990Y-96065892D01*
X73851368Y-96036447D01*
X73851366Y-96036446D01*
X73851364Y-96036446D01*
X73618103Y-95999501D01*
X73618094Y-95999500D01*
X73618092Y-95999500D01*
X73381908Y-95999500D01*
X73381905Y-95999500D01*
X73381896Y-95999501D01*
X73148635Y-96036446D01*
X72924012Y-96109430D01*
X72924002Y-96109434D01*
X72713568Y-96216656D01*
X72637316Y-96272055D01*
X72565039Y-96308332D01*
X72410395Y-96356520D01*
X72410393Y-96356521D01*
X72264816Y-96444527D01*
X72144527Y-96564816D01*
X72056522Y-96710391D01*
X72005914Y-96872803D01*
X72005912Y-96872811D01*
X71999500Y-96943369D01*
X71999500Y-100056630D01*
X72005912Y-100127188D01*
X72005914Y-100127196D01*
X72056522Y-100289608D01*
X72093918Y-100351467D01*
X72144528Y-100435185D01*
X72264815Y-100555472D01*
X72304104Y-100579223D01*
X72410391Y-100643477D01*
X72410393Y-100643477D01*
X72410394Y-100643478D01*
X72572804Y-100694086D01*
X72572808Y-100694086D01*
X72572811Y-100694087D01*
X72643369Y-100700499D01*
X72643377Y-100700499D01*
X72643384Y-100700500D01*
X72643390Y-100700500D01*
X74356610Y-100700500D01*
X74356616Y-100700500D01*
X74356623Y-100700499D01*
X74356630Y-100700499D01*
X74427188Y-100694087D01*
X74427189Y-100694086D01*
X74427196Y-100694086D01*
X74589606Y-100643478D01*
X74610998Y-100630546D01*
X74641181Y-100612300D01*
X74732532Y-100579223D01*
X74829587Y-100583623D01*
X74898819Y-100612300D01*
X74950390Y-100643476D01*
X74950391Y-100643476D01*
X74950394Y-100643478D01*
X75112804Y-100694086D01*
X75112808Y-100694086D01*
X75112811Y-100694087D01*
X75183369Y-100700499D01*
X75183377Y-100700499D01*
X75183384Y-100700500D01*
X75183390Y-100700500D01*
X76896610Y-100700500D01*
X76896616Y-100700500D01*
X76896623Y-100700499D01*
X76896630Y-100700499D01*
X76967188Y-100694087D01*
X76967189Y-100694086D01*
X76967196Y-100694086D01*
X77129606Y-100643478D01*
X77150998Y-100630546D01*
X77181181Y-100612300D01*
X77272532Y-100579223D01*
X77369587Y-100583623D01*
X77438819Y-100612300D01*
X77490390Y-100643476D01*
X77490391Y-100643476D01*
X77490394Y-100643478D01*
X77652804Y-100694086D01*
X77652808Y-100694086D01*
X77652811Y-100694087D01*
X77723369Y-100700499D01*
X77723377Y-100700499D01*
X77723384Y-100700500D01*
X77723390Y-100700500D01*
X79436610Y-100700500D01*
X79436616Y-100700500D01*
X79436623Y-100700499D01*
X79436630Y-100700499D01*
X79507188Y-100694087D01*
X79507189Y-100694086D01*
X79507196Y-100694086D01*
X79669606Y-100643478D01*
X79690998Y-100630546D01*
X79721181Y-100612300D01*
X79812532Y-100579223D01*
X79909587Y-100583623D01*
X79978819Y-100612300D01*
X80030390Y-100643476D01*
X80030391Y-100643476D01*
X80030394Y-100643478D01*
X80192804Y-100694086D01*
X80192808Y-100694086D01*
X80192811Y-100694087D01*
X80263369Y-100700499D01*
X80263377Y-100700499D01*
X80263384Y-100700500D01*
X80263390Y-100700500D01*
X81976610Y-100700500D01*
X81976616Y-100700500D01*
X81976623Y-100700499D01*
X81976630Y-100700499D01*
X82047188Y-100694087D01*
X82047189Y-100694086D01*
X82047196Y-100694086D01*
X82209606Y-100643478D01*
X82230998Y-100630546D01*
X82261181Y-100612300D01*
X82352532Y-100579223D01*
X82449587Y-100583623D01*
X82518819Y-100612300D01*
X82570390Y-100643476D01*
X82570391Y-100643476D01*
X82570394Y-100643478D01*
X82732804Y-100694086D01*
X82732808Y-100694086D01*
X82732811Y-100694087D01*
X82803369Y-100700499D01*
X82803377Y-100700499D01*
X82803384Y-100700500D01*
X82803390Y-100700500D01*
X84516610Y-100700500D01*
X84516616Y-100700500D01*
X84516623Y-100700499D01*
X84516630Y-100700499D01*
X84587188Y-100694087D01*
X84587189Y-100694086D01*
X84587196Y-100694086D01*
X84749606Y-100643478D01*
X84770998Y-100630546D01*
X84801181Y-100612300D01*
X84892532Y-100579223D01*
X84989587Y-100583623D01*
X85058819Y-100612300D01*
X85110390Y-100643476D01*
X85110391Y-100643476D01*
X85110394Y-100643478D01*
X85272804Y-100694086D01*
X85272808Y-100694086D01*
X85272811Y-100694087D01*
X85343369Y-100700499D01*
X85343377Y-100700499D01*
X85343384Y-100700500D01*
X85343390Y-100700500D01*
X87056610Y-100700500D01*
X87056616Y-100700500D01*
X87056623Y-100700499D01*
X87056630Y-100700499D01*
X87127188Y-100694087D01*
X87127189Y-100694086D01*
X87127196Y-100694086D01*
X87289606Y-100643478D01*
X87310998Y-100630546D01*
X87341181Y-100612300D01*
X87432532Y-100579223D01*
X87529587Y-100583623D01*
X87598819Y-100612300D01*
X87650390Y-100643476D01*
X87650391Y-100643476D01*
X87650394Y-100643478D01*
X87812804Y-100694086D01*
X87812808Y-100694086D01*
X87812811Y-100694087D01*
X87883369Y-100700499D01*
X87883377Y-100700499D01*
X87883384Y-100700500D01*
X87883390Y-100700500D01*
X89596610Y-100700500D01*
X89596616Y-100700500D01*
X89596623Y-100700499D01*
X89596630Y-100700499D01*
X89667188Y-100694087D01*
X89667189Y-100694086D01*
X89667196Y-100694086D01*
X89829606Y-100643478D01*
X89829610Y-100643476D01*
X89905313Y-100597711D01*
X89975185Y-100555472D01*
X90095472Y-100435185D01*
X90095473Y-100435182D01*
X90106122Y-100424534D01*
X90108669Y-100427081D01*
X90161394Y-100381771D01*
X90253702Y-100351467D01*
X90350581Y-100358795D01*
X90437280Y-100402639D01*
X90459792Y-100422581D01*
X98197838Y-108160627D01*
X98337137Y-108253704D01*
X98337138Y-108253704D01*
X98337139Y-108253705D01*
X98446583Y-108299037D01*
X98446590Y-108299040D01*
X98491913Y-108317814D01*
X98491918Y-108317816D01*
X98656233Y-108350500D01*
X98656234Y-108350500D01*
X98823767Y-108350500D01*
X111392446Y-108350500D01*
X111487734Y-108369454D01*
X111568516Y-108423430D01*
X111605531Y-108470677D01*
X111644528Y-108535185D01*
X111764815Y-108655472D01*
X111826873Y-108692987D01*
X111910391Y-108743477D01*
X111910393Y-108743477D01*
X111910394Y-108743478D01*
X111925159Y-108748079D01*
X111970714Y-108762274D01*
X112056049Y-108808718D01*
X112117115Y-108884283D01*
X112144615Y-108977464D01*
X112134363Y-109074077D01*
X112087919Y-109159412D01*
X112012354Y-109220478D01*
X111970714Y-109237726D01*
X111910391Y-109256522D01*
X111764816Y-109344527D01*
X111644527Y-109464816D01*
X111556522Y-109610391D01*
X111505914Y-109772803D01*
X111505912Y-109772811D01*
X111499500Y-109843369D01*
X111499500Y-111156630D01*
X111505912Y-111227188D01*
X111505914Y-111227196D01*
X111556522Y-111389608D01*
X111576969Y-111423430D01*
X111644528Y-111535185D01*
X111764815Y-111655472D01*
X111826873Y-111692987D01*
X111910391Y-111743477D01*
X111910393Y-111743477D01*
X111910394Y-111743478D01*
X112072804Y-111794086D01*
X112072808Y-111794086D01*
X112072811Y-111794087D01*
X112143369Y-111800499D01*
X112143377Y-111800499D01*
X112143384Y-111800500D01*
X112143390Y-111800500D01*
X113856610Y-111800500D01*
X113856616Y-111800500D01*
X113856623Y-111800499D01*
X113856630Y-111800499D01*
X113927188Y-111794087D01*
X113927189Y-111794086D01*
X113927196Y-111794086D01*
X114089606Y-111743478D01*
X114235185Y-111655472D01*
X114355472Y-111535185D01*
X114394466Y-111470679D01*
X114459981Y-111398943D01*
X114547964Y-111357736D01*
X114607554Y-111350500D01*
X125544571Y-111350500D01*
X125639859Y-111369454D01*
X125720640Y-111423430D01*
X125839373Y-111542162D01*
X125957838Y-111660627D01*
X126097137Y-111753704D01*
X126251919Y-111817816D01*
X126416233Y-111850500D01*
X126416236Y-111850500D01*
X126583764Y-111850500D01*
X126583767Y-111850500D01*
X126748081Y-111817816D01*
X126902863Y-111753704D01*
X127042162Y-111660627D01*
X127160627Y-111542162D01*
X129660627Y-109042162D01*
X129753704Y-108902863D01*
X129817816Y-108748081D01*
X129850500Y-108583767D01*
X129850500Y-108416233D01*
X129850500Y-101416233D01*
X129817816Y-101251918D01*
X129753703Y-101097137D01*
X129660626Y-100957838D01*
X129542162Y-100839374D01*
X129402863Y-100746297D01*
X129402860Y-100746296D01*
X129402859Y-100746295D01*
X129248086Y-100682185D01*
X129248082Y-100682184D01*
X129083767Y-100649500D01*
X129083765Y-100649500D01*
X128107554Y-100649500D01*
X128012266Y-100630546D01*
X127931484Y-100576570D01*
X127894468Y-100529322D01*
X127855472Y-100464815D01*
X127735185Y-100344528D01*
X127589606Y-100256522D01*
X127589604Y-100256521D01*
X127576716Y-100248730D01*
X127578159Y-100246341D01*
X127518185Y-100203589D01*
X127466677Y-100121211D01*
X127450500Y-100032925D01*
X127450500Y-85699500D01*
X127469454Y-85604212D01*
X127523430Y-85523430D01*
X127604212Y-85469454D01*
X127699500Y-85450500D01*
X130593615Y-85450500D01*
X130593617Y-85450500D01*
X130685433Y-85432236D01*
X130777251Y-85413973D01*
X130800949Y-85404156D01*
X130827914Y-85392988D01*
X130878579Y-85372001D01*
X130950231Y-85342323D01*
X131105909Y-85238302D01*
X131238302Y-85105909D01*
X131342323Y-84950231D01*
X131413973Y-84777250D01*
X131450500Y-84593617D01*
X131450500Y-84406383D01*
X131419493Y-84250500D01*
X131413973Y-84222749D01*
X131380659Y-84142322D01*
X131342323Y-84049770D01*
X131238302Y-83894092D01*
X131238301Y-83894091D01*
X131238301Y-83894090D01*
X131023430Y-83679219D01*
X130969454Y-83598438D01*
X130950500Y-83503150D01*
X130950500Y-71406385D01*
X130913972Y-71222746D01*
X130862730Y-71099036D01*
X130862728Y-71099033D01*
X130855323Y-71081155D01*
X130842323Y-71049769D01*
X130738302Y-70894091D01*
X130736734Y-70892523D01*
X130728597Y-70879186D01*
X130713607Y-70838307D01*
X130696943Y-70798077D01*
X130696943Y-70792863D01*
X130695149Y-70787971D01*
X130696943Y-70744463D01*
X130696944Y-70700922D01*
X130698938Y-70696107D01*
X130699153Y-70690898D01*
X130717461Y-70651387D01*
X130734123Y-70611163D01*
X130737809Y-70607476D01*
X130740001Y-70602747D01*
X130772032Y-70573253D01*
X130802822Y-70542464D01*
X130807638Y-70540469D01*
X130811473Y-70536938D01*
X130852351Y-70521948D01*
X130892582Y-70505284D01*
X130899710Y-70504582D01*
X130902688Y-70503490D01*
X130908404Y-70503725D01*
X130941159Y-70500500D01*
X131750500Y-70500500D01*
X131845788Y-70519454D01*
G37*
%TD.AperFunction*%
%TA.AperFunction,Conductor*%
G36*
X120965788Y-101469454D02*
G01*
X121046570Y-101523430D01*
X121100546Y-101604212D01*
X121119500Y-101699500D01*
X121119500Y-103126000D01*
X121100546Y-103221288D01*
X121046570Y-103302070D01*
X120965788Y-103356046D01*
X120870500Y-103375000D01*
X120735001Y-103375000D01*
X120735000Y-103375001D01*
X120735000Y-106674999D01*
X120735001Y-106675000D01*
X121282825Y-106675000D01*
X121282832Y-106674999D01*
X121342376Y-106668597D01*
X121342378Y-106668597D01*
X121364066Y-106660508D01*
X121459969Y-106644966D01*
X121484991Y-106648533D01*
X121485095Y-106647675D01*
X121587725Y-106659999D01*
X122352276Y-106659999D01*
X122439049Y-106649580D01*
X122439057Y-106649578D01*
X122577147Y-106595122D01*
X122695424Y-106505430D01*
X122695430Y-106505424D01*
X122785122Y-106387147D01*
X122839577Y-106249059D01*
X122839578Y-106249055D01*
X122849999Y-106162273D01*
X122849999Y-105837723D01*
X122839580Y-105750950D01*
X122835806Y-105736019D01*
X122830831Y-105638991D01*
X122835805Y-105613985D01*
X122839578Y-105599055D01*
X122849999Y-105512273D01*
X122849999Y-105187723D01*
X122839580Y-105100950D01*
X122835806Y-105086019D01*
X122829159Y-105003329D01*
X122850944Y-104753965D01*
X122852099Y-104750001D01*
X125200000Y-104750001D01*
X125200000Y-105147832D01*
X125206401Y-105207371D01*
X125206403Y-105207378D01*
X125256646Y-105342087D01*
X125342810Y-105457187D01*
X125342812Y-105457189D01*
X125457912Y-105543353D01*
X125592621Y-105593596D01*
X125592628Y-105593598D01*
X125652167Y-105599999D01*
X125652175Y-105600000D01*
X126249999Y-105600000D01*
X126250000Y-105599999D01*
X126250000Y-104750001D01*
X126249999Y-104750000D01*
X125200001Y-104750000D01*
X125200000Y-104750001D01*
X122852099Y-104750001D01*
X122861552Y-104717551D01*
X122868952Y-104680350D01*
X122875752Y-104668812D01*
X122878119Y-104660688D01*
X122887241Y-104649318D01*
X122889203Y-104645989D01*
X122887200Y-104644754D01*
X122894812Y-104632412D01*
X122894814Y-104632411D01*
X122985690Y-104485079D01*
X123040139Y-104320761D01*
X123050500Y-104219343D01*
X123050499Y-103880658D01*
X123050499Y-103880657D01*
X123050499Y-103880653D01*
X123049493Y-103870812D01*
X123049493Y-103870809D01*
X123047589Y-103852167D01*
X125200000Y-103852167D01*
X125200000Y-104249999D01*
X125200001Y-104250000D01*
X126249999Y-104250000D01*
X126250000Y-104249999D01*
X126250000Y-103400001D01*
X126249999Y-103400000D01*
X125652167Y-103400000D01*
X125592628Y-103406401D01*
X125592621Y-103406403D01*
X125457912Y-103456646D01*
X125342812Y-103542810D01*
X125342810Y-103542812D01*
X125256646Y-103657912D01*
X125206403Y-103792621D01*
X125206401Y-103792628D01*
X125200000Y-103852167D01*
X123047589Y-103852167D01*
X123045380Y-103830546D01*
X123040139Y-103779239D01*
X123040138Y-103779237D01*
X123040138Y-103779233D01*
X122985692Y-103614926D01*
X122985691Y-103614923D01*
X122903451Y-103481592D01*
X122894814Y-103467589D01*
X122894813Y-103467588D01*
X122894810Y-103467584D01*
X122893423Y-103466197D01*
X122891840Y-103463828D01*
X122885819Y-103456213D01*
X122886429Y-103455730D01*
X122839450Y-103385413D01*
X122820500Y-103290135D01*
X122820500Y-102599500D01*
X122839454Y-102504212D01*
X122893430Y-102423430D01*
X122974212Y-102369454D01*
X123069500Y-102350500D01*
X124892446Y-102350500D01*
X124987734Y-102369454D01*
X125068516Y-102423430D01*
X125105531Y-102470677D01*
X125144528Y-102535185D01*
X125264815Y-102655472D01*
X125309943Y-102682753D01*
X125410391Y-102743477D01*
X125410393Y-102743477D01*
X125410394Y-102743478D01*
X125572804Y-102794086D01*
X125572808Y-102794086D01*
X125572811Y-102794087D01*
X125643369Y-102800499D01*
X125643377Y-102800499D01*
X125643384Y-102800500D01*
X125643390Y-102800500D01*
X127356610Y-102800500D01*
X127356616Y-102800500D01*
X127356623Y-102800499D01*
X127356630Y-102800499D01*
X127427188Y-102794087D01*
X127427189Y-102794086D01*
X127427196Y-102794086D01*
X127589606Y-102743478D01*
X127735185Y-102655472D01*
X127735188Y-102655468D01*
X127746935Y-102646266D01*
X127833634Y-102602419D01*
X127930512Y-102595088D01*
X128022821Y-102625389D01*
X128096507Y-102688708D01*
X128140354Y-102775407D01*
X128149500Y-102842273D01*
X128149500Y-103452335D01*
X128130546Y-103547623D01*
X128076570Y-103628405D01*
X127995788Y-103682381D01*
X127900500Y-103701335D01*
X127805212Y-103682381D01*
X127724430Y-103628405D01*
X127701167Y-103601557D01*
X127657193Y-103542816D01*
X127657187Y-103542810D01*
X127542087Y-103456646D01*
X127407378Y-103406403D01*
X127407371Y-103406401D01*
X127347832Y-103400000D01*
X126750001Y-103400000D01*
X126750000Y-103400001D01*
X126750000Y-105599999D01*
X126750001Y-105600000D01*
X127347825Y-105600000D01*
X127347832Y-105599999D01*
X127407371Y-105593598D01*
X127407378Y-105593596D01*
X127542087Y-105543353D01*
X127657187Y-105457189D01*
X127657191Y-105457185D01*
X127701166Y-105398443D01*
X127773443Y-105333520D01*
X127865064Y-105301198D01*
X127962080Y-105306399D01*
X128049721Y-105348330D01*
X128114644Y-105420607D01*
X128146966Y-105512228D01*
X128149500Y-105547664D01*
X128149500Y-108044570D01*
X128130546Y-108139858D01*
X128076570Y-108220640D01*
X126625196Y-109672013D01*
X126581870Y-109700962D01*
X126544417Y-109725988D01*
X126544414Y-109725988D01*
X126544414Y-109725989D01*
X126505991Y-109733631D01*
X126449129Y-109744943D01*
X126449127Y-109744942D01*
X126449126Y-109744943D01*
X126391955Y-109733571D01*
X126353839Y-109725990D01*
X126293415Y-109700962D01*
X126293415Y-109700961D01*
X126293413Y-109700961D01*
X126293410Y-109700960D01*
X126248084Y-109682184D01*
X126165924Y-109665842D01*
X126083767Y-109649500D01*
X126083765Y-109649500D01*
X114607554Y-109649500D01*
X114512266Y-109630546D01*
X114431484Y-109576570D01*
X114394468Y-109529322D01*
X114355472Y-109464815D01*
X114235185Y-109344528D01*
X114197777Y-109321914D01*
X114089607Y-109256522D01*
X114029286Y-109237726D01*
X113943951Y-109191283D01*
X113882885Y-109115718D01*
X113855384Y-109022537D01*
X113865636Y-108925924D01*
X113912079Y-108840589D01*
X113987644Y-108779523D01*
X114029286Y-108762274D01*
X114089606Y-108743478D01*
X114235185Y-108655472D01*
X114355472Y-108535185D01*
X114394466Y-108470679D01*
X114459981Y-108398943D01*
X114547964Y-108357736D01*
X114607554Y-108350500D01*
X115583765Y-108350500D01*
X115583767Y-108350500D01*
X115748082Y-108317816D01*
X115793408Y-108299039D01*
X115793416Y-108299038D01*
X115793416Y-108299036D01*
X115902863Y-108253704D01*
X116042162Y-108160627D01*
X117823712Y-106379075D01*
X117904491Y-106325102D01*
X117999779Y-106306148D01*
X118095067Y-106325102D01*
X118175849Y-106379078D01*
X118198184Y-106404694D01*
X118274569Y-106505424D01*
X118274575Y-106505430D01*
X118392852Y-106595122D01*
X118530940Y-106649577D01*
X118530944Y-106649578D01*
X118617725Y-106659999D01*
X119382276Y-106659999D01*
X119484909Y-106647676D01*
X119485307Y-106650996D01*
X119554894Y-106647420D01*
X119605935Y-106660508D01*
X119627620Y-106668596D01*
X119627628Y-106668598D01*
X119687167Y-106674999D01*
X119687175Y-106675000D01*
X120234999Y-106675000D01*
X120235000Y-106674999D01*
X120235000Y-103375001D01*
X120234999Y-103375000D01*
X120099500Y-103375000D01*
X120004212Y-103356046D01*
X119923430Y-103302070D01*
X119869454Y-103221288D01*
X119850500Y-103126000D01*
X119850500Y-101916234D01*
X119846020Y-101893713D01*
X119817816Y-101751918D01*
X119817052Y-101748077D01*
X119817053Y-101650922D01*
X119854233Y-101561162D01*
X119922932Y-101492464D01*
X120012691Y-101455284D01*
X120061268Y-101450500D01*
X120870500Y-101450500D01*
X120965788Y-101469454D01*
G37*
%TD.AperFunction*%
%TA.AperFunction,Conductor*%
G36*
X125595416Y-75412431D02*
G01*
X125605245Y-75411268D01*
X125642759Y-75421848D01*
X125680996Y-75429454D01*
X125689226Y-75434953D01*
X125698752Y-75437640D01*
X125729358Y-75461768D01*
X125761778Y-75483430D01*
X125775049Y-75497788D01*
X125779198Y-75502646D01*
X125779204Y-75502652D01*
X125779207Y-75502656D01*
X125830484Y-75553933D01*
X125884458Y-75634712D01*
X125903412Y-75730000D01*
X125884458Y-75825288D01*
X125830484Y-75906066D01*
X125779207Y-75957344D01*
X125779204Y-75957347D01*
X125631134Y-76161148D01*
X125631131Y-76161153D01*
X125631130Y-76161155D01*
X125517394Y-76384374D01*
X125516757Y-76385625D01*
X125438909Y-76625217D01*
X125399500Y-76874028D01*
X125399500Y-77125971D01*
X125438909Y-77374782D01*
X125514130Y-77606290D01*
X125516759Y-77614379D01*
X125631130Y-77838845D01*
X125631133Y-77838849D01*
X125631134Y-77838851D01*
X125660880Y-77879793D01*
X125779207Y-78042656D01*
X125830484Y-78093933D01*
X125884458Y-78174712D01*
X125903412Y-78270000D01*
X125884458Y-78365288D01*
X125830484Y-78446066D01*
X125787325Y-78489226D01*
X125779204Y-78497347D01*
X125631134Y-78701148D01*
X125631131Y-78701153D01*
X125631130Y-78701155D01*
X125530871Y-78897925D01*
X125516757Y-78925625D01*
X125438909Y-79165217D01*
X125399500Y-79414028D01*
X125399500Y-79665971D01*
X125438909Y-79914782D01*
X125488615Y-80067763D01*
X125516759Y-80154379D01*
X125631130Y-80378845D01*
X125631133Y-80378849D01*
X125631134Y-80378851D01*
X125735528Y-80522537D01*
X125779207Y-80582656D01*
X125957344Y-80760793D01*
X126161155Y-80908870D01*
X126385621Y-81023241D01*
X126625215Y-81101090D01*
X126712729Y-81114951D01*
X126874028Y-81140499D01*
X126874035Y-81140499D01*
X126874038Y-81140500D01*
X126874041Y-81140500D01*
X127125959Y-81140500D01*
X127125962Y-81140500D01*
X127125965Y-81140499D01*
X127125971Y-81140499D01*
X127243513Y-81121881D01*
X127374785Y-81101090D01*
X127614379Y-81023241D01*
X127838845Y-80908870D01*
X128042656Y-80760793D01*
X128220793Y-80582656D01*
X128368870Y-80378845D01*
X128483241Y-80154379D01*
X128561090Y-79914785D01*
X128561090Y-79914784D01*
X128563687Y-79906792D01*
X128611159Y-79822025D01*
X128687456Y-79761876D01*
X128780963Y-79735505D01*
X128877445Y-79746924D01*
X128962212Y-79794396D01*
X129022361Y-79870693D01*
X129048732Y-79964200D01*
X129049500Y-79983737D01*
X129049500Y-83300500D01*
X129030546Y-83395788D01*
X128976570Y-83476570D01*
X128895788Y-83530546D01*
X128800500Y-83549500D01*
X126593616Y-83549500D01*
X126406384Y-83549500D01*
X126332930Y-83564110D01*
X126222746Y-83586027D01*
X126049773Y-83657675D01*
X126049768Y-83657678D01*
X125894095Y-83761695D01*
X125761695Y-83894095D01*
X125657678Y-84049768D01*
X125657675Y-84049773D01*
X125586027Y-84222746D01*
X125549500Y-84406385D01*
X125549500Y-99300500D01*
X125530546Y-99395788D01*
X125476570Y-99476570D01*
X125395788Y-99530546D01*
X125300500Y-99549500D01*
X121071843Y-99549500D01*
X120976555Y-99530546D01*
X120895773Y-99476570D01*
X120841797Y-99395788D01*
X120822843Y-99300500D01*
X120825909Y-99261547D01*
X120850499Y-99106295D01*
X120850500Y-99106284D01*
X120850500Y-98893715D01*
X120850499Y-98893703D01*
X120817246Y-98683759D01*
X120817246Y-98683757D01*
X120751557Y-98481588D01*
X120655051Y-98292184D01*
X120530104Y-98120208D01*
X120379792Y-97969896D01*
X120207816Y-97844949D01*
X120018412Y-97748443D01*
X120018409Y-97748442D01*
X120018407Y-97748441D01*
X119816240Y-97682753D01*
X119606296Y-97649500D01*
X119606287Y-97649500D01*
X119393713Y-97649500D01*
X119393703Y-97649500D01*
X119183759Y-97682753D01*
X118981592Y-97748441D01*
X118792182Y-97844950D01*
X118620206Y-97969897D01*
X118469897Y-98120206D01*
X118344950Y-98292182D01*
X118248441Y-98481592D01*
X118182753Y-98683759D01*
X118157755Y-98841588D01*
X118124128Y-98932738D01*
X118058179Y-99004081D01*
X117969948Y-99044755D01*
X117872868Y-99048569D01*
X117837746Y-99040361D01*
X117727202Y-99005915D01*
X117727188Y-99005912D01*
X117656630Y-98999500D01*
X117656616Y-98999500D01*
X116343384Y-98999500D01*
X116343369Y-98999500D01*
X116272811Y-99005912D01*
X116272803Y-99005914D01*
X116110391Y-99056522D01*
X115964816Y-99144527D01*
X115844527Y-99264816D01*
X115756522Y-99410391D01*
X115737726Y-99470714D01*
X115691282Y-99556049D01*
X115615717Y-99617115D01*
X115522536Y-99644615D01*
X115425923Y-99634363D01*
X115340588Y-99587919D01*
X115279522Y-99512354D01*
X115262274Y-99470714D01*
X115243477Y-99410391D01*
X115177044Y-99300500D01*
X115155472Y-99264815D01*
X115035185Y-99144528D01*
X115013723Y-99131553D01*
X114889608Y-99056522D01*
X114727196Y-99005914D01*
X114727188Y-99005912D01*
X114656630Y-98999500D01*
X114656616Y-98999500D01*
X113343384Y-98999500D01*
X113343369Y-98999500D01*
X113272811Y-99005912D01*
X113272803Y-99005914D01*
X113110391Y-99056522D01*
X112964816Y-99144527D01*
X112844527Y-99264816D01*
X112756523Y-99410390D01*
X112736522Y-99474578D01*
X112731067Y-99484600D01*
X112728842Y-99495788D01*
X112708008Y-99526968D01*
X112690078Y-99559913D01*
X112681204Y-99567083D01*
X112674866Y-99576570D01*
X112643682Y-99597406D01*
X112614513Y-99620978D01*
X112603570Y-99624207D01*
X112594084Y-99630546D01*
X112557299Y-99637862D01*
X112521331Y-99648478D01*
X112498796Y-99649500D01*
X112455428Y-99649500D01*
X112360140Y-99630546D01*
X112279358Y-99576570D01*
X109423430Y-96720641D01*
X109369454Y-96639859D01*
X109350500Y-96544571D01*
X109350500Y-93096849D01*
X109369454Y-93001561D01*
X109423427Y-92920782D01*
X120124410Y-82219799D01*
X120205186Y-82165828D01*
X120300474Y-82146874D01*
X120395762Y-82165828D01*
X120476544Y-82219804D01*
X120530520Y-82300586D01*
X120546408Y-82356918D01*
X120554473Y-82407833D01*
X120622566Y-82617406D01*
X120622569Y-82617413D01*
X120722614Y-82813761D01*
X120722616Y-82813764D01*
X120768931Y-82877513D01*
X121355387Y-82291057D01*
X121360889Y-82311591D01*
X121439881Y-82448408D01*
X121551592Y-82560119D01*
X121688409Y-82639111D01*
X121708940Y-82644612D01*
X121122486Y-83231067D01*
X121186236Y-83277384D01*
X121382586Y-83377430D01*
X121382593Y-83377433D01*
X121592168Y-83445527D01*
X121809808Y-83479999D01*
X121809821Y-83480000D01*
X122030179Y-83480000D01*
X122030191Y-83479999D01*
X122247831Y-83445527D01*
X122457406Y-83377433D01*
X122457413Y-83377430D01*
X122653763Y-83277384D01*
X122717512Y-83231067D01*
X122717512Y-83231066D01*
X122131059Y-82644612D01*
X122151591Y-82639111D01*
X122288408Y-82560119D01*
X122400119Y-82448408D01*
X122479111Y-82311591D01*
X122484612Y-82291059D01*
X123071066Y-82877512D01*
X123071067Y-82877512D01*
X123117384Y-82813763D01*
X123217430Y-82617413D01*
X123217433Y-82617406D01*
X123285527Y-82407831D01*
X123319999Y-82190191D01*
X123320000Y-82190179D01*
X123320000Y-81969820D01*
X123319999Y-81969808D01*
X123285527Y-81752168D01*
X123217433Y-81542593D01*
X123217430Y-81542586D01*
X123117384Y-81346236D01*
X123071067Y-81282486D01*
X122484612Y-81868940D01*
X122479111Y-81848409D01*
X122400119Y-81711592D01*
X122288408Y-81599881D01*
X122151591Y-81520889D01*
X122131057Y-81515387D01*
X122717513Y-80928931D01*
X122653764Y-80882616D01*
X122653761Y-80882614D01*
X122457413Y-80782569D01*
X122457406Y-80782566D01*
X122247831Y-80714472D01*
X122030191Y-80680000D01*
X121809808Y-80680000D01*
X121592168Y-80714472D01*
X121382593Y-80782566D01*
X121382576Y-80782574D01*
X121186243Y-80882611D01*
X121186232Y-80882617D01*
X121122486Y-80928931D01*
X121708942Y-81515387D01*
X121688409Y-81520889D01*
X121551592Y-81599881D01*
X121439881Y-81711592D01*
X121360889Y-81848409D01*
X121355387Y-81868942D01*
X120768931Y-81282486D01*
X120719038Y-81286413D01*
X120622556Y-81274994D01*
X120537788Y-81227523D01*
X120477640Y-81151226D01*
X120451268Y-81057719D01*
X120450500Y-81038181D01*
X120450500Y-75659500D01*
X120469454Y-75564212D01*
X120523430Y-75483430D01*
X120604212Y-75429454D01*
X120699500Y-75410500D01*
X125585708Y-75410500D01*
X125595416Y-75412431D01*
G37*
%TD.AperFunction*%
%TA.AperFunction,Conductor*%
G36*
X120579598Y-70519454D02*
G01*
X120660380Y-70573430D01*
X120714356Y-70654212D01*
X120733310Y-70749500D01*
X120714356Y-70844788D01*
X120685755Y-70895859D01*
X120551134Y-71081148D01*
X120551131Y-71081153D01*
X120551130Y-71081155D01*
X120436759Y-71305621D01*
X120436757Y-71305625D01*
X120358909Y-71545217D01*
X120319500Y-71794028D01*
X120319500Y-72045971D01*
X120358909Y-72294782D01*
X120358910Y-72294785D01*
X120436759Y-72534379D01*
X120551130Y-72758845D01*
X120551133Y-72758849D01*
X120551134Y-72758851D01*
X120692696Y-72953694D01*
X120699207Y-72962656D01*
X120820984Y-73084433D01*
X120874958Y-73165212D01*
X120893912Y-73260500D01*
X120874958Y-73355788D01*
X120820982Y-73436570D01*
X120740200Y-73490546D01*
X120644912Y-73509500D01*
X118254292Y-73509500D01*
X118159004Y-73490546D01*
X118078222Y-73436570D01*
X118064951Y-73422212D01*
X118060801Y-73417353D01*
X118060795Y-73417347D01*
X118060793Y-73417344D01*
X117882656Y-73239207D01*
X117782395Y-73166363D01*
X117678851Y-73091134D01*
X117678849Y-73091133D01*
X117678845Y-73091130D01*
X117454379Y-72976759D01*
X117454376Y-72976758D01*
X117454374Y-72976757D01*
X117214782Y-72898909D01*
X116965971Y-72859500D01*
X116965962Y-72859500D01*
X116714038Y-72859500D01*
X116714028Y-72859500D01*
X116465217Y-72898909D01*
X116225625Y-72976757D01*
X116225621Y-72976758D01*
X116225621Y-72976759D01*
X116001155Y-73091130D01*
X116001153Y-73091131D01*
X116001148Y-73091134D01*
X115797347Y-73239204D01*
X115619204Y-73417347D01*
X115471134Y-73621148D01*
X115356757Y-73845625D01*
X115278909Y-74085217D01*
X115239500Y-74334028D01*
X115239500Y-74585971D01*
X115278909Y-74834782D01*
X115342890Y-75031697D01*
X115356759Y-75074379D01*
X115471130Y-75298845D01*
X115471133Y-75298849D01*
X115471134Y-75298851D01*
X115615670Y-75497788D01*
X115619207Y-75502656D01*
X115670484Y-75553933D01*
X115724458Y-75634712D01*
X115743412Y-75730000D01*
X115724458Y-75825288D01*
X115670484Y-75906066D01*
X115619207Y-75957344D01*
X115619204Y-75957347D01*
X115471134Y-76161148D01*
X115471131Y-76161153D01*
X115471130Y-76161155D01*
X115357394Y-76384374D01*
X115356757Y-76385625D01*
X115278909Y-76625217D01*
X115239500Y-76874028D01*
X115239500Y-77125971D01*
X115278909Y-77374782D01*
X115354130Y-77606290D01*
X115356759Y-77614379D01*
X115471130Y-77838845D01*
X115471133Y-77838849D01*
X115471134Y-77838851D01*
X115500880Y-77879793D01*
X115619207Y-78042656D01*
X115670484Y-78093933D01*
X115724458Y-78174712D01*
X115743412Y-78270000D01*
X115724458Y-78365288D01*
X115670484Y-78446066D01*
X115627325Y-78489226D01*
X115619204Y-78497347D01*
X115471134Y-78701148D01*
X115471131Y-78701153D01*
X115471130Y-78701155D01*
X115370871Y-78897925D01*
X115356757Y-78925625D01*
X115278909Y-79165217D01*
X115239500Y-79414028D01*
X115239500Y-79665974D01*
X115240002Y-79672357D01*
X115238839Y-79682177D01*
X115240769Y-79691880D01*
X115233162Y-79730121D01*
X115228578Y-79768838D01*
X115223744Y-79777467D01*
X115221815Y-79787168D01*
X115200155Y-79819583D01*
X115181102Y-79853603D01*
X115167839Y-79867950D01*
X115058018Y-79977771D01*
X114977236Y-80031747D01*
X114918261Y-80046521D01*
X114918379Y-80047114D01*
X114814564Y-80067763D01*
X114814563Y-80067762D01*
X114722753Y-80086025D01*
X114651097Y-80115706D01*
X114549774Y-80157674D01*
X114549769Y-80157677D01*
X114394095Y-80261695D01*
X109679220Y-84976570D01*
X109598438Y-85030546D01*
X109503150Y-85049500D01*
X96895849Y-85049500D01*
X96800561Y-85030546D01*
X96719779Y-84976570D01*
X96665803Y-84895788D01*
X96646849Y-84800500D01*
X96665803Y-84705212D01*
X96719776Y-84624433D01*
X98320780Y-83023430D01*
X98401562Y-82969454D01*
X98496850Y-82950500D01*
X102456943Y-82950500D01*
X102552231Y-82969454D01*
X102633013Y-83023430D01*
X102634869Y-83025525D01*
X102644526Y-83035182D01*
X102644528Y-83035185D01*
X102764815Y-83155472D01*
X102826873Y-83192987D01*
X102910391Y-83243477D01*
X102910393Y-83243477D01*
X102910394Y-83243478D01*
X103072804Y-83294086D01*
X103072808Y-83294086D01*
X103072811Y-83294087D01*
X103143369Y-83300499D01*
X103143377Y-83300499D01*
X103143384Y-83300500D01*
X103143390Y-83300500D01*
X104856610Y-83300500D01*
X104856616Y-83300500D01*
X104856623Y-83300499D01*
X104856630Y-83300499D01*
X104927188Y-83294087D01*
X104927189Y-83294086D01*
X104927196Y-83294086D01*
X105089606Y-83243478D01*
X105235185Y-83155472D01*
X105355472Y-83035185D01*
X105443478Y-82889606D01*
X105494086Y-82727196D01*
X105500500Y-82656616D01*
X105500500Y-81343384D01*
X105494086Y-81272804D01*
X105443478Y-81110394D01*
X105443477Y-81110393D01*
X105443477Y-81110391D01*
X105392987Y-81026873D01*
X105355472Y-80964815D01*
X105235185Y-80844528D01*
X105162354Y-80800500D01*
X105089607Y-80756522D01*
X105029286Y-80737726D01*
X104943951Y-80691283D01*
X104882885Y-80615718D01*
X104855384Y-80522537D01*
X104865636Y-80425924D01*
X104912079Y-80340589D01*
X104987644Y-80279523D01*
X105029286Y-80262274D01*
X105089606Y-80243478D01*
X105235185Y-80155472D01*
X105355472Y-80035185D01*
X105443478Y-79889606D01*
X105494086Y-79727196D01*
X105497296Y-79691880D01*
X105500499Y-79656630D01*
X105500500Y-79656609D01*
X105500500Y-78946849D01*
X105519454Y-78851561D01*
X105573427Y-78770782D01*
X105738302Y-78605908D01*
X105842323Y-78450230D01*
X105913973Y-78277250D01*
X105914858Y-78272804D01*
X105950500Y-78093616D01*
X105950500Y-77184292D01*
X105969454Y-77089004D01*
X106023430Y-77008222D01*
X106037788Y-76994951D01*
X106042646Y-76990801D01*
X106042648Y-76990798D01*
X106042656Y-76990793D01*
X106220793Y-76812656D01*
X106368870Y-76608845D01*
X106483241Y-76384379D01*
X106561090Y-76144785D01*
X106588790Y-75969896D01*
X106600499Y-75895971D01*
X106600500Y-75895959D01*
X106600500Y-75644040D01*
X106600499Y-75644028D01*
X106571631Y-75461768D01*
X106561090Y-75395215D01*
X106483241Y-75155621D01*
X106368870Y-74931155D01*
X106335849Y-74885706D01*
X106258114Y-74778712D01*
X106217439Y-74690481D01*
X106213625Y-74593401D01*
X106247252Y-74502251D01*
X106260226Y-74483130D01*
X106343353Y-74372088D01*
X106393596Y-74237378D01*
X106393598Y-74237371D01*
X106399999Y-74177832D01*
X106400000Y-74177825D01*
X106400000Y-73480001D01*
X106399999Y-73480000D01*
X105375278Y-73480000D01*
X105419333Y-73403694D01*
X105450000Y-73289244D01*
X105450000Y-73170756D01*
X105419333Y-73056306D01*
X105375278Y-72980000D01*
X106399999Y-72980000D01*
X106400000Y-72979999D01*
X106400000Y-72282175D01*
X106399999Y-72282167D01*
X106393598Y-72222628D01*
X106393596Y-72222621D01*
X106343353Y-72087912D01*
X106257189Y-71972812D01*
X106257187Y-71972810D01*
X106142087Y-71886646D01*
X106007378Y-71836403D01*
X106007371Y-71836401D01*
X105947832Y-71830000D01*
X105250001Y-71830000D01*
X105250000Y-71830001D01*
X105250000Y-72854722D01*
X105173694Y-72810667D01*
X105059244Y-72780000D01*
X104940756Y-72780000D01*
X104826306Y-72810667D01*
X104750000Y-72854722D01*
X104750000Y-71830001D01*
X104749999Y-71830000D01*
X104052167Y-71830000D01*
X103992628Y-71836401D01*
X103992621Y-71836403D01*
X103857912Y-71886646D01*
X103742812Y-71972810D01*
X103742810Y-71972812D01*
X103656646Y-72087912D01*
X103606403Y-72222621D01*
X103606401Y-72222628D01*
X103600000Y-72282167D01*
X103600000Y-72979999D01*
X103600001Y-72980000D01*
X104624722Y-72980000D01*
X104580667Y-73056306D01*
X104550000Y-73170756D01*
X104550000Y-73289244D01*
X104580667Y-73403694D01*
X104624722Y-73480000D01*
X103600001Y-73480000D01*
X103600000Y-73480001D01*
X103600000Y-74177832D01*
X103606401Y-74237371D01*
X103606403Y-74237378D01*
X103656646Y-74372087D01*
X103739774Y-74483131D01*
X103781705Y-74570772D01*
X103786906Y-74667787D01*
X103754585Y-74759408D01*
X103741886Y-74778711D01*
X103631133Y-74931149D01*
X103516757Y-75155625D01*
X103438909Y-75395217D01*
X103399500Y-75644028D01*
X103399500Y-75895971D01*
X103438909Y-76144782D01*
X103438910Y-76144785D01*
X103516759Y-76384379D01*
X103631130Y-76608845D01*
X103631133Y-76608849D01*
X103631134Y-76608851D01*
X103773835Y-76805262D01*
X103779207Y-76812656D01*
X103957344Y-76990793D01*
X103957347Y-76990795D01*
X103957353Y-76990801D01*
X103962212Y-76994951D01*
X103968337Y-77002721D01*
X103976570Y-77008222D01*
X103998231Y-77040641D01*
X104022360Y-77071248D01*
X104025046Y-77080773D01*
X104030546Y-77089004D01*
X104038151Y-77127240D01*
X104048732Y-77164755D01*
X104049500Y-77184292D01*
X104049500Y-77450500D01*
X104030546Y-77545788D01*
X103976570Y-77626570D01*
X103895788Y-77680546D01*
X103800500Y-77699500D01*
X103143369Y-77699500D01*
X103072811Y-77705912D01*
X103072803Y-77705914D01*
X102910391Y-77756522D01*
X102764816Y-77844527D01*
X102644527Y-77964816D01*
X102556522Y-78110391D01*
X102505914Y-78272803D01*
X102505912Y-78272811D01*
X102499500Y-78343369D01*
X102499500Y-79656630D01*
X102505912Y-79727188D01*
X102505914Y-79727196D01*
X102556522Y-79889608D01*
X102609820Y-79977771D01*
X102644528Y-80035185D01*
X102764815Y-80155472D01*
X102826873Y-80192987D01*
X102910391Y-80243477D01*
X102910393Y-80243477D01*
X102910394Y-80243478D01*
X102968865Y-80261698D01*
X102970714Y-80262274D01*
X103056049Y-80308718D01*
X103117115Y-80384283D01*
X103144615Y-80477464D01*
X103134363Y-80574077D01*
X103087919Y-80659412D01*
X103012354Y-80720478D01*
X102970714Y-80737726D01*
X102910391Y-80756522D01*
X102764816Y-80844527D01*
X102764815Y-80844527D01*
X102764815Y-80844528D01*
X102644528Y-80964815D01*
X102644526Y-80964817D01*
X102633878Y-80975466D01*
X102631182Y-80972770D01*
X102579257Y-81017388D01*
X102486947Y-81047686D01*
X102456943Y-81049500D01*
X97906381Y-81049500D01*
X97814564Y-81067763D01*
X97814563Y-81067762D01*
X97722751Y-81086026D01*
X97549773Y-81157675D01*
X97549768Y-81157678D01*
X97418896Y-81245123D01*
X97418897Y-81245124D01*
X97394089Y-81261700D01*
X96425570Y-82230220D01*
X96344788Y-82284196D01*
X96249500Y-82303150D01*
X96154212Y-82284196D01*
X96073430Y-82230220D01*
X96019454Y-82149438D01*
X96000500Y-82054150D01*
X96000500Y-81343390D01*
X96000499Y-81343369D01*
X95994087Y-81272811D01*
X95994086Y-81272808D01*
X95994086Y-81272804D01*
X95943478Y-81110394D01*
X95943477Y-81110393D01*
X95943477Y-81110391D01*
X95892987Y-81026873D01*
X95855472Y-80964815D01*
X95735185Y-80844528D01*
X95662354Y-80800500D01*
X95589607Y-80756522D01*
X95529286Y-80737726D01*
X95443951Y-80691283D01*
X95382885Y-80615718D01*
X95355384Y-80522537D01*
X95365636Y-80425924D01*
X95412079Y-80340589D01*
X95487644Y-80279523D01*
X95529286Y-80262274D01*
X95589606Y-80243478D01*
X95735185Y-80155472D01*
X95855472Y-80035185D01*
X95943478Y-79889606D01*
X95994086Y-79727196D01*
X95997296Y-79691880D01*
X96000499Y-79656630D01*
X96000500Y-79656609D01*
X96000500Y-78343390D01*
X96000499Y-78343369D01*
X95994087Y-78272811D01*
X95994086Y-78272808D01*
X95994086Y-78272804D01*
X95943478Y-78110394D01*
X95943477Y-78110393D01*
X95943477Y-78110391D01*
X95892987Y-78026873D01*
X95855472Y-77964815D01*
X95735185Y-77844528D01*
X95589606Y-77756522D01*
X95589604Y-77756521D01*
X95576716Y-77748730D01*
X95578159Y-77746341D01*
X95518185Y-77703589D01*
X95466677Y-77621211D01*
X95450500Y-77532925D01*
X95450500Y-75906385D01*
X95450500Y-75906384D01*
X95413973Y-75722749D01*
X95413972Y-75722746D01*
X95342324Y-75549773D01*
X95342321Y-75549768D01*
X95307589Y-75497788D01*
X95238302Y-75394092D01*
X95238300Y-75394090D01*
X95105909Y-75261698D01*
X94875908Y-75031698D01*
X94720230Y-74927677D01*
X94720225Y-74927674D01*
X94618903Y-74885706D01*
X94618901Y-74885705D01*
X94547251Y-74856027D01*
X94547247Y-74856026D01*
X94455435Y-74837762D01*
X94455435Y-74837763D01*
X94363617Y-74819500D01*
X94363616Y-74819500D01*
X91505863Y-74819500D01*
X91410575Y-74800546D01*
X91329793Y-74746570D01*
X91275817Y-74665788D01*
X91256863Y-74570500D01*
X91275817Y-74475212D01*
X91306530Y-74421278D01*
X91343352Y-74372090D01*
X91393596Y-74237378D01*
X91393598Y-74237371D01*
X91399999Y-74177832D01*
X91400000Y-74177825D01*
X91400000Y-73480001D01*
X91399999Y-73480000D01*
X90375278Y-73480000D01*
X90419333Y-73403694D01*
X90450000Y-73289244D01*
X90450000Y-73170756D01*
X90419333Y-73056306D01*
X90375278Y-72980000D01*
X91399999Y-72980000D01*
X91400000Y-72979999D01*
X91400000Y-72282175D01*
X91399999Y-72282167D01*
X91393598Y-72222628D01*
X91393596Y-72222621D01*
X91343353Y-72087912D01*
X91257189Y-71972812D01*
X91257187Y-71972810D01*
X91142087Y-71886646D01*
X91007378Y-71836403D01*
X91007371Y-71836401D01*
X90947832Y-71830000D01*
X90250001Y-71830000D01*
X90250000Y-71830001D01*
X90250000Y-72854722D01*
X90173694Y-72810667D01*
X90059244Y-72780000D01*
X89940756Y-72780000D01*
X89826306Y-72810667D01*
X89750000Y-72854722D01*
X89750000Y-71830001D01*
X89749999Y-71830000D01*
X89052167Y-71830000D01*
X88992628Y-71836401D01*
X88992621Y-71836403D01*
X88857912Y-71886646D01*
X88742812Y-71972810D01*
X88742810Y-71972812D01*
X88656646Y-72087912D01*
X88606403Y-72222621D01*
X88606401Y-72222628D01*
X88600000Y-72282167D01*
X88600000Y-72979999D01*
X88600001Y-72980000D01*
X89624722Y-72980000D01*
X89580667Y-73056306D01*
X89550000Y-73170756D01*
X89550000Y-73289244D01*
X89580667Y-73403694D01*
X89624722Y-73480000D01*
X88600001Y-73480000D01*
X88600000Y-73480001D01*
X88600000Y-74177832D01*
X88606401Y-74237371D01*
X88606403Y-74237378D01*
X88656646Y-74372087D01*
X88739774Y-74483131D01*
X88781705Y-74570772D01*
X88786906Y-74667787D01*
X88754585Y-74759408D01*
X88741886Y-74778711D01*
X88631133Y-74931149D01*
X88516757Y-75155625D01*
X88438909Y-75395217D01*
X88399500Y-75644028D01*
X88399500Y-75895971D01*
X88438909Y-76144782D01*
X88438910Y-76144785D01*
X88516759Y-76384379D01*
X88631130Y-76608845D01*
X88631133Y-76608849D01*
X88631134Y-76608851D01*
X88773835Y-76805262D01*
X88779207Y-76812656D01*
X88957344Y-76990793D01*
X89161155Y-77138870D01*
X89385621Y-77253241D01*
X89625215Y-77331090D01*
X89712729Y-77344951D01*
X89874028Y-77370499D01*
X89874035Y-77370499D01*
X89874038Y-77370500D01*
X89874041Y-77370500D01*
X90125959Y-77370500D01*
X90125962Y-77370500D01*
X90125965Y-77370499D01*
X90125971Y-77370499D01*
X90243513Y-77351881D01*
X90374785Y-77331090D01*
X90614379Y-77253241D01*
X90838845Y-77138870D01*
X91042656Y-76990793D01*
X91220793Y-76812656D01*
X91220798Y-76812648D01*
X91220801Y-76812646D01*
X91224951Y-76807788D01*
X91301248Y-76747640D01*
X91394755Y-76721268D01*
X91414292Y-76720500D01*
X93300500Y-76720500D01*
X93395788Y-76739454D01*
X93476570Y-76793430D01*
X93530546Y-76874212D01*
X93549500Y-76969500D01*
X93549500Y-77532925D01*
X93530546Y-77628213D01*
X93476570Y-77708995D01*
X93422024Y-77746646D01*
X93423284Y-77748730D01*
X93264816Y-77844527D01*
X93144527Y-77964816D01*
X93056522Y-78110391D01*
X93005914Y-78272803D01*
X93005912Y-78272811D01*
X92999500Y-78343369D01*
X92999500Y-79656630D01*
X93005912Y-79727188D01*
X93005914Y-79727196D01*
X93056522Y-79889608D01*
X93109820Y-79977771D01*
X93144528Y-80035185D01*
X93264815Y-80155472D01*
X93326873Y-80192987D01*
X93410391Y-80243477D01*
X93410393Y-80243477D01*
X93410394Y-80243478D01*
X93468865Y-80261698D01*
X93470714Y-80262274D01*
X93556049Y-80308718D01*
X93617115Y-80384283D01*
X93644615Y-80477464D01*
X93634363Y-80574077D01*
X93587919Y-80659412D01*
X93512354Y-80720478D01*
X93470714Y-80737726D01*
X93410391Y-80756522D01*
X93264816Y-80844527D01*
X93264815Y-80844527D01*
X93264815Y-80844528D01*
X93144528Y-80964815D01*
X93144526Y-80964817D01*
X93133878Y-80975466D01*
X93131182Y-80972770D01*
X93079257Y-81017388D01*
X92986947Y-81047686D01*
X92956943Y-81049500D01*
X90489500Y-81049500D01*
X90394212Y-81030546D01*
X90313430Y-80976570D01*
X90259454Y-80895788D01*
X90240500Y-80800500D01*
X90240500Y-79708390D01*
X90240499Y-79708369D01*
X90234087Y-79637811D01*
X90234086Y-79637808D01*
X90234086Y-79637804D01*
X90183478Y-79475394D01*
X90183477Y-79475393D01*
X90183477Y-79475391D01*
X90104810Y-79345262D01*
X90095472Y-79329815D01*
X89975185Y-79209528D01*
X89936479Y-79186129D01*
X89829608Y-79121522D01*
X89667196Y-79070914D01*
X89667188Y-79070912D01*
X89596630Y-79064500D01*
X89596616Y-79064500D01*
X87883384Y-79064500D01*
X87883369Y-79064500D01*
X87812811Y-79070912D01*
X87812803Y-79070914D01*
X87650392Y-79121522D01*
X87598817Y-79152701D01*
X87507466Y-79185776D01*
X87410410Y-79181375D01*
X87341183Y-79152701D01*
X87289607Y-79121522D01*
X87127196Y-79070914D01*
X87127188Y-79070912D01*
X87056630Y-79064500D01*
X87056616Y-79064500D01*
X85343384Y-79064500D01*
X85343369Y-79064500D01*
X85272811Y-79070912D01*
X85272803Y-79070914D01*
X85110392Y-79121522D01*
X85058817Y-79152701D01*
X84967466Y-79185776D01*
X84870410Y-79181375D01*
X84801183Y-79152701D01*
X84749607Y-79121522D01*
X84587196Y-79070914D01*
X84587188Y-79070912D01*
X84516630Y-79064500D01*
X84516616Y-79064500D01*
X82803384Y-79064500D01*
X82803369Y-79064500D01*
X82732811Y-79070912D01*
X82732803Y-79070914D01*
X82570392Y-79121522D01*
X82518817Y-79152701D01*
X82427466Y-79185776D01*
X82330410Y-79181375D01*
X82261183Y-79152701D01*
X82209607Y-79121522D01*
X82047196Y-79070914D01*
X82047188Y-79070912D01*
X81976630Y-79064500D01*
X81976616Y-79064500D01*
X80263384Y-79064500D01*
X80263369Y-79064500D01*
X80192811Y-79070912D01*
X80192803Y-79070914D01*
X80030393Y-79121522D01*
X79978815Y-79152702D01*
X79944668Y-79165065D01*
X79911941Y-79180784D01*
X79899335Y-79181478D01*
X79887463Y-79185777D01*
X79851184Y-79184131D01*
X79814933Y-79186129D01*
X79803231Y-79181956D01*
X79790408Y-79181375D01*
X79723263Y-79153945D01*
X79722208Y-79153321D01*
X79669606Y-79121522D01*
X79667118Y-79120746D01*
X79652764Y-79112259D01*
X79626692Y-79088910D01*
X79598185Y-79068589D01*
X79590784Y-79056752D01*
X79580390Y-79047444D01*
X79565236Y-79015893D01*
X79546677Y-78986211D01*
X79544022Y-78971726D01*
X79538327Y-78959867D01*
X79536812Y-78932373D01*
X79530500Y-78897925D01*
X79530500Y-78584514D01*
X79549454Y-78489226D01*
X79603430Y-78408444D01*
X79684212Y-78354468D01*
X79779500Y-78335514D01*
X79818454Y-78338580D01*
X79893706Y-78350499D01*
X79893707Y-78350499D01*
X79893713Y-78350500D01*
X79893716Y-78350500D01*
X80106284Y-78350500D01*
X80106287Y-78350500D01*
X80106290Y-78350499D01*
X80106296Y-78350499D01*
X80205476Y-78334789D01*
X80316243Y-78317246D01*
X80518412Y-78251557D01*
X80707816Y-78155051D01*
X80879792Y-78030104D01*
X81030104Y-77879792D01*
X81155051Y-77707816D01*
X81251557Y-77518412D01*
X81317246Y-77316243D01*
X81342361Y-77157676D01*
X81350499Y-77106296D01*
X81350500Y-77106284D01*
X81350500Y-76893715D01*
X81350499Y-76893703D01*
X81326068Y-76739454D01*
X81317246Y-76683757D01*
X81251557Y-76481588D01*
X81155051Y-76292184D01*
X81030104Y-76120208D01*
X80879792Y-75969896D01*
X80707816Y-75844949D01*
X80518412Y-75748443D01*
X80518409Y-75748442D01*
X80518407Y-75748441D01*
X80316240Y-75682753D01*
X80106296Y-75649500D01*
X80106287Y-75649500D01*
X79893713Y-75649500D01*
X79893703Y-75649500D01*
X79683759Y-75682753D01*
X79481592Y-75748441D01*
X79292182Y-75844950D01*
X79120206Y-75969897D01*
X79113534Y-75976570D01*
X79032752Y-76030546D01*
X78937464Y-76049500D01*
X78406381Y-76049500D01*
X78314564Y-76067763D01*
X78314563Y-76067762D01*
X78222753Y-76086025D01*
X78151097Y-76115706D01*
X78049774Y-76157674D01*
X78049769Y-76157677D01*
X77894095Y-76261695D01*
X77761695Y-76394095D01*
X77657677Y-76549768D01*
X77657674Y-76549775D01*
X77586027Y-76722749D01*
X77586025Y-76722754D01*
X77549500Y-76906378D01*
X77549500Y-77093618D01*
X77562241Y-77157676D01*
X77582932Y-77261697D01*
X77582933Y-77261697D01*
X77586026Y-77277249D01*
X77597505Y-77304962D01*
X77610546Y-77336446D01*
X77629500Y-77431731D01*
X77629500Y-78897925D01*
X77610546Y-78993213D01*
X77556570Y-79073995D01*
X77522893Y-79102192D01*
X77499019Y-79118834D01*
X77490394Y-79121522D01*
X77344815Y-79209528D01*
X77289350Y-79264992D01*
X77271259Y-79277604D01*
X77246566Y-79288407D01*
X77224152Y-79303384D01*
X77202485Y-79307693D01*
X77182250Y-79316547D01*
X77155301Y-79317078D01*
X77128864Y-79322337D01*
X77105196Y-79318066D01*
X77085114Y-79318463D01*
X77066052Y-79311004D01*
X77041852Y-79306638D01*
X76947384Y-79271404D01*
X76947371Y-79271401D01*
X76887832Y-79265000D01*
X76290001Y-79265000D01*
X76290000Y-79265001D01*
X76290000Y-81016000D01*
X76271046Y-81111288D01*
X76217070Y-81192070D01*
X76136288Y-81246046D01*
X76041000Y-81265000D01*
X76039000Y-81265000D01*
X75943712Y-81246046D01*
X75862930Y-81192070D01*
X75808954Y-81111288D01*
X75790000Y-81016000D01*
X75790000Y-79265001D01*
X75789999Y-79265000D01*
X75192167Y-79265000D01*
X75132628Y-79271401D01*
X75132621Y-79271403D01*
X75038150Y-79306639D01*
X74942246Y-79322179D01*
X74847695Y-79299836D01*
X74775067Y-79249410D01*
X74735185Y-79209528D01*
X74696479Y-79186129D01*
X74589608Y-79121522D01*
X74427196Y-79070914D01*
X74427188Y-79070912D01*
X74356630Y-79064500D01*
X74356616Y-79064500D01*
X72643384Y-79064500D01*
X72643369Y-79064500D01*
X72572811Y-79070912D01*
X72572803Y-79070914D01*
X72410391Y-79121522D01*
X72264816Y-79209527D01*
X72144527Y-79329816D01*
X72056522Y-79475391D01*
X72005914Y-79637803D01*
X72005912Y-79637811D01*
X71999500Y-79708369D01*
X71999500Y-82821630D01*
X72005912Y-82892188D01*
X72005914Y-82892196D01*
X72056522Y-83054608D01*
X72117498Y-83155472D01*
X72144528Y-83200185D01*
X72264815Y-83320472D01*
X72309250Y-83347334D01*
X72410391Y-83408477D01*
X72565041Y-83456667D01*
X72637322Y-83492948D01*
X72682518Y-83525784D01*
X72713567Y-83548343D01*
X72924008Y-83655568D01*
X73148632Y-83728553D01*
X73381908Y-83765500D01*
X73381912Y-83765500D01*
X73618088Y-83765500D01*
X73618092Y-83765500D01*
X73851368Y-83728553D01*
X74075992Y-83655568D01*
X74286433Y-83548343D01*
X74362678Y-83492946D01*
X74434956Y-83456667D01*
X74589606Y-83408478D01*
X74589610Y-83408476D01*
X74641908Y-83376860D01*
X74735185Y-83320472D01*
X74855472Y-83200185D01*
X74943478Y-83054606D01*
X74952741Y-83024879D01*
X74965333Y-83002312D01*
X74977737Y-82987741D01*
X74992773Y-82960116D01*
X75007987Y-82943457D01*
X75640000Y-82311444D01*
X75640000Y-82317661D01*
X75667259Y-82419394D01*
X75719920Y-82510606D01*
X75794394Y-82585080D01*
X75885606Y-82637741D01*
X75987339Y-82665000D01*
X75993552Y-82665000D01*
X75383338Y-83275213D01*
X75335861Y-83360301D01*
X75358652Y-83376860D01*
X75540974Y-83469757D01*
X75540980Y-83469759D01*
X75735586Y-83532990D01*
X75937676Y-83564998D01*
X75937692Y-83565000D01*
X76142308Y-83565000D01*
X76142323Y-83564998D01*
X76344413Y-83532990D01*
X76539019Y-83469759D01*
X76539025Y-83469757D01*
X76721342Y-83376863D01*
X76721347Y-83376859D01*
X76744137Y-83360302D01*
X76696660Y-83275213D01*
X76086446Y-82665000D01*
X76092661Y-82665000D01*
X76194394Y-82637741D01*
X76285606Y-82585080D01*
X76360080Y-82510606D01*
X76412741Y-82419394D01*
X76440000Y-82317661D01*
X76440000Y-82311446D01*
X77072014Y-82943460D01*
X77099195Y-82984141D01*
X77114666Y-83002312D01*
X77127260Y-83024883D01*
X77136522Y-83054606D01*
X77224528Y-83200185D01*
X77344815Y-83320472D01*
X77389250Y-83347334D01*
X77490391Y-83408477D01*
X77645041Y-83456667D01*
X77717322Y-83492948D01*
X77762518Y-83525784D01*
X77793567Y-83548343D01*
X78004008Y-83655568D01*
X78228632Y-83728553D01*
X78461908Y-83765500D01*
X78461912Y-83765500D01*
X78698088Y-83765500D01*
X78698092Y-83765500D01*
X78931368Y-83728553D01*
X79155992Y-83655568D01*
X79366433Y-83548343D01*
X79442679Y-83492946D01*
X79496850Y-83463086D01*
X79506795Y-83459122D01*
X79507196Y-83459086D01*
X79669606Y-83408478D01*
X79738748Y-83366679D01*
X79757815Y-83359081D01*
X79785785Y-83353907D01*
X79812532Y-83344223D01*
X79833103Y-83345155D01*
X79853349Y-83341411D01*
X79881168Y-83347334D01*
X79909587Y-83348623D01*
X79933250Y-83358424D01*
X79948374Y-83361645D01*
X79959500Y-83369298D01*
X79978819Y-83377300D01*
X80030390Y-83408476D01*
X80030391Y-83408476D01*
X80030394Y-83408478D01*
X80149291Y-83445527D01*
X80185041Y-83456667D01*
X80257322Y-83492948D01*
X80302518Y-83525784D01*
X80333567Y-83548343D01*
X80544008Y-83655568D01*
X80768632Y-83728553D01*
X81001908Y-83765500D01*
X81001912Y-83765500D01*
X81238088Y-83765500D01*
X81238092Y-83765500D01*
X81471368Y-83728553D01*
X81695992Y-83655568D01*
X81906433Y-83548343D01*
X81982679Y-83492946D01*
X82036850Y-83463086D01*
X82046795Y-83459122D01*
X82047196Y-83459086D01*
X82209606Y-83408478D01*
X82278748Y-83366679D01*
X82297815Y-83359081D01*
X82325785Y-83353907D01*
X82352532Y-83344223D01*
X82373103Y-83345155D01*
X82393349Y-83341411D01*
X82421168Y-83347334D01*
X82449587Y-83348623D01*
X82473250Y-83358424D01*
X82488374Y-83361645D01*
X82499500Y-83369298D01*
X82518819Y-83377300D01*
X82583285Y-83416272D01*
X82581839Y-83418662D01*
X82641791Y-83461387D01*
X82693311Y-83543756D01*
X82709500Y-83632075D01*
X82709500Y-83753621D01*
X82746025Y-83937245D01*
X82746027Y-83937250D01*
X82817674Y-84110224D01*
X82817677Y-84110231D01*
X82921695Y-84265904D01*
X82921698Y-84265908D01*
X83894092Y-85238302D01*
X84615220Y-85959430D01*
X84669196Y-86040212D01*
X84688150Y-86135500D01*
X84669196Y-86230788D01*
X84615220Y-86311570D01*
X84534438Y-86365546D01*
X84439150Y-86384500D01*
X81863369Y-86384500D01*
X81792811Y-86390912D01*
X81792803Y-86390914D01*
X81630391Y-86441522D01*
X81484816Y-86529527D01*
X81364527Y-86649816D01*
X81276522Y-86795391D01*
X81225914Y-86957803D01*
X81225912Y-86957811D01*
X81219500Y-87028369D01*
X81219500Y-87494175D01*
X81200546Y-87589463D01*
X81146570Y-87670245D01*
X81065788Y-87724221D01*
X80970500Y-87743175D01*
X80875212Y-87724221D01*
X80794430Y-87670245D01*
X80767220Y-87643035D01*
X80739692Y-87623035D01*
X80601610Y-87522713D01*
X80601609Y-87522712D01*
X80601607Y-87522711D01*
X80419224Y-87429782D01*
X80419214Y-87429778D01*
X80224531Y-87366522D01*
X80022361Y-87334500D01*
X80022352Y-87334500D01*
X79817648Y-87334500D01*
X79817638Y-87334500D01*
X79615468Y-87366522D01*
X79420785Y-87429778D01*
X79420775Y-87429782D01*
X79238392Y-87522711D01*
X79072779Y-87643035D01*
X78928033Y-87787781D01*
X78921686Y-87795214D01*
X78920635Y-87794316D01*
X78857356Y-87852805D01*
X78766204Y-87886427D01*
X78669125Y-87882608D01*
X78580896Y-87841929D01*
X78525819Y-87786848D01*
X78511967Y-87767782D01*
X78367220Y-87623035D01*
X78201607Y-87502711D01*
X78019224Y-87409782D01*
X78019214Y-87409778D01*
X77824531Y-87346522D01*
X77622361Y-87314500D01*
X77622352Y-87314500D01*
X77417648Y-87314500D01*
X77417638Y-87314500D01*
X77215468Y-87346522D01*
X77020785Y-87409778D01*
X77020775Y-87409782D01*
X76838392Y-87502711D01*
X76672779Y-87623035D01*
X76528033Y-87767781D01*
X76528030Y-87767785D01*
X76451445Y-87873196D01*
X76380102Y-87939145D01*
X76288952Y-87972772D01*
X76191872Y-87968958D01*
X76103642Y-87928283D01*
X76048555Y-87873196D01*
X75971969Y-87767785D01*
X75971966Y-87767781D01*
X75827220Y-87623035D01*
X75661607Y-87502711D01*
X75479224Y-87409782D01*
X75479214Y-87409778D01*
X75284531Y-87346522D01*
X75082361Y-87314500D01*
X75082352Y-87314500D01*
X74877648Y-87314500D01*
X74877638Y-87314500D01*
X74675468Y-87346522D01*
X74480785Y-87409778D01*
X74480775Y-87409782D01*
X74298392Y-87502711D01*
X74132779Y-87623035D01*
X73988033Y-87767781D01*
X73988030Y-87767785D01*
X73911445Y-87873196D01*
X73840102Y-87939145D01*
X73748952Y-87972772D01*
X73651872Y-87968958D01*
X73563642Y-87928283D01*
X73508555Y-87873196D01*
X73431969Y-87767785D01*
X73431966Y-87767781D01*
X73287220Y-87623035D01*
X73121607Y-87502711D01*
X72939224Y-87409782D01*
X72939214Y-87409778D01*
X72744531Y-87346522D01*
X72542361Y-87314500D01*
X72542352Y-87314500D01*
X72337648Y-87314500D01*
X72337638Y-87314500D01*
X72135468Y-87346522D01*
X71940785Y-87409778D01*
X71940780Y-87409780D01*
X71862543Y-87449644D01*
X71769036Y-87476015D01*
X71672554Y-87464596D01*
X71587787Y-87417124D01*
X71527639Y-87340826D01*
X71501268Y-87247319D01*
X71500500Y-87227783D01*
X71500500Y-70749500D01*
X71519454Y-70654212D01*
X71573430Y-70573430D01*
X71654212Y-70519454D01*
X71749500Y-70500500D01*
X120484310Y-70500500D01*
X120579598Y-70519454D01*
G37*
%TD.AperFunction*%
%TD*%
M02*
