%TF.GenerationSoftware,KiCad,Pcbnew,9.0.4*%
%TF.CreationDate,2026-05-01T15:15:06-04:00*%
%TF.ProjectId,HypoV Breakout,4879706f-5620-4427-9265-616b6f75742e,rev?*%
%TF.SameCoordinates,Original*%
%TF.FileFunction,Legend,Top*%
%TF.FilePolarity,Positive*%
%FSLAX46Y46*%
G04 Gerber Fmt 4.6, Leading zero omitted, Abs format (unit mm)*
G04 Created by KiCad (PCBNEW 9.0.4) date 2026-05-01 15:15:06*
%MOMM*%
%LPD*%
G01*
G04 APERTURE LIST*
%ADD10C,0.200000*%
%ADD11C,0.150000*%
%ADD12C,0.080000*%
%ADD13C,0.120000*%
%ADD14C,0.152400*%
G04 APERTURE END LIST*
D10*
X98245863Y-66591695D02*
X98741101Y-66591695D01*
X98741101Y-66591695D02*
X98474435Y-66896457D01*
X98474435Y-66896457D02*
X98588720Y-66896457D01*
X98588720Y-66896457D02*
X98664911Y-66934552D01*
X98664911Y-66934552D02*
X98703006Y-66972647D01*
X98703006Y-66972647D02*
X98741101Y-67048838D01*
X98741101Y-67048838D02*
X98741101Y-67239314D01*
X98741101Y-67239314D02*
X98703006Y-67315504D01*
X98703006Y-67315504D02*
X98664911Y-67353600D01*
X98664911Y-67353600D02*
X98588720Y-67391695D01*
X98588720Y-67391695D02*
X98360149Y-67391695D01*
X98360149Y-67391695D02*
X98283958Y-67353600D01*
X98283958Y-67353600D02*
X98245863Y-67315504D01*
X99083959Y-67315504D02*
X99122054Y-67353600D01*
X99122054Y-67353600D02*
X99083959Y-67391695D01*
X99083959Y-67391695D02*
X99045863Y-67353600D01*
X99045863Y-67353600D02*
X99083959Y-67315504D01*
X99083959Y-67315504D02*
X99083959Y-67391695D01*
X99388720Y-66591695D02*
X99883958Y-66591695D01*
X99883958Y-66591695D02*
X99617292Y-66896457D01*
X99617292Y-66896457D02*
X99731577Y-66896457D01*
X99731577Y-66896457D02*
X99807768Y-66934552D01*
X99807768Y-66934552D02*
X99845863Y-66972647D01*
X99845863Y-66972647D02*
X99883958Y-67048838D01*
X99883958Y-67048838D02*
X99883958Y-67239314D01*
X99883958Y-67239314D02*
X99845863Y-67315504D01*
X99845863Y-67315504D02*
X99807768Y-67353600D01*
X99807768Y-67353600D02*
X99731577Y-67391695D01*
X99731577Y-67391695D02*
X99503006Y-67391695D01*
X99503006Y-67391695D02*
X99426815Y-67353600D01*
X99426815Y-67353600D02*
X99388720Y-67315504D01*
X100112530Y-66591695D02*
X100379197Y-67391695D01*
X100379197Y-67391695D02*
X100645863Y-66591695D01*
X98974435Y-76091695D02*
X99126816Y-76091695D01*
X99126816Y-76091695D02*
X99203006Y-76129790D01*
X99203006Y-76129790D02*
X99279197Y-76205980D01*
X99279197Y-76205980D02*
X99317292Y-76358361D01*
X99317292Y-76358361D02*
X99317292Y-76625028D01*
X99317292Y-76625028D02*
X99279197Y-76777409D01*
X99279197Y-76777409D02*
X99203006Y-76853600D01*
X99203006Y-76853600D02*
X99126816Y-76891695D01*
X99126816Y-76891695D02*
X98974435Y-76891695D01*
X98974435Y-76891695D02*
X98898244Y-76853600D01*
X98898244Y-76853600D02*
X98822054Y-76777409D01*
X98822054Y-76777409D02*
X98783958Y-76625028D01*
X98783958Y-76625028D02*
X98783958Y-76358361D01*
X98783958Y-76358361D02*
X98822054Y-76205980D01*
X98822054Y-76205980D02*
X98898244Y-76129790D01*
X98898244Y-76129790D02*
X98974435Y-76091695D01*
X99622053Y-76853600D02*
X99736339Y-76891695D01*
X99736339Y-76891695D02*
X99926815Y-76891695D01*
X99926815Y-76891695D02*
X100003006Y-76853600D01*
X100003006Y-76853600D02*
X100041101Y-76815504D01*
X100041101Y-76815504D02*
X100079196Y-76739314D01*
X100079196Y-76739314D02*
X100079196Y-76663123D01*
X100079196Y-76663123D02*
X100041101Y-76586933D01*
X100041101Y-76586933D02*
X100003006Y-76548838D01*
X100003006Y-76548838D02*
X99926815Y-76510742D01*
X99926815Y-76510742D02*
X99774434Y-76472647D01*
X99774434Y-76472647D02*
X99698244Y-76434552D01*
X99698244Y-76434552D02*
X99660149Y-76396457D01*
X99660149Y-76396457D02*
X99622053Y-76320266D01*
X99622053Y-76320266D02*
X99622053Y-76244076D01*
X99622053Y-76244076D02*
X99660149Y-76167885D01*
X99660149Y-76167885D02*
X99698244Y-76129790D01*
X99698244Y-76129790D02*
X99774434Y-76091695D01*
X99774434Y-76091695D02*
X99964911Y-76091695D01*
X99964911Y-76091695D02*
X100079196Y-76129790D01*
X118853600Y-75216041D02*
X118891695Y-75101755D01*
X118891695Y-75101755D02*
X118891695Y-74911279D01*
X118891695Y-74911279D02*
X118853600Y-74835088D01*
X118853600Y-74835088D02*
X118815504Y-74796993D01*
X118815504Y-74796993D02*
X118739314Y-74758898D01*
X118739314Y-74758898D02*
X118663123Y-74758898D01*
X118663123Y-74758898D02*
X118586933Y-74796993D01*
X118586933Y-74796993D02*
X118548838Y-74835088D01*
X118548838Y-74835088D02*
X118510742Y-74911279D01*
X118510742Y-74911279D02*
X118472647Y-75063660D01*
X118472647Y-75063660D02*
X118434552Y-75139850D01*
X118434552Y-75139850D02*
X118396457Y-75177945D01*
X118396457Y-75177945D02*
X118320266Y-75216041D01*
X118320266Y-75216041D02*
X118244076Y-75216041D01*
X118244076Y-75216041D02*
X118167885Y-75177945D01*
X118167885Y-75177945D02*
X118129790Y-75139850D01*
X118129790Y-75139850D02*
X118091695Y-75063660D01*
X118091695Y-75063660D02*
X118091695Y-74873183D01*
X118091695Y-74873183D02*
X118129790Y-74758898D01*
X118815504Y-73958897D02*
X118853600Y-73996993D01*
X118853600Y-73996993D02*
X118891695Y-74111278D01*
X118891695Y-74111278D02*
X118891695Y-74187469D01*
X118891695Y-74187469D02*
X118853600Y-74301755D01*
X118853600Y-74301755D02*
X118777409Y-74377945D01*
X118777409Y-74377945D02*
X118701219Y-74416040D01*
X118701219Y-74416040D02*
X118548838Y-74454136D01*
X118548838Y-74454136D02*
X118434552Y-74454136D01*
X118434552Y-74454136D02*
X118282171Y-74416040D01*
X118282171Y-74416040D02*
X118205980Y-74377945D01*
X118205980Y-74377945D02*
X118129790Y-74301755D01*
X118129790Y-74301755D02*
X118091695Y-74187469D01*
X118091695Y-74187469D02*
X118091695Y-74111278D01*
X118091695Y-74111278D02*
X118129790Y-73996993D01*
X118129790Y-73996993D02*
X118167885Y-73958897D01*
X118891695Y-73235088D02*
X118891695Y-73616040D01*
X118891695Y-73616040D02*
X118091695Y-73616040D01*
X122274435Y-67367219D02*
X122893482Y-67367219D01*
X122893482Y-67367219D02*
X122560149Y-67748171D01*
X122560149Y-67748171D02*
X122703006Y-67748171D01*
X122703006Y-67748171D02*
X122798244Y-67795790D01*
X122798244Y-67795790D02*
X122845863Y-67843409D01*
X122845863Y-67843409D02*
X122893482Y-67938647D01*
X122893482Y-67938647D02*
X122893482Y-68176742D01*
X122893482Y-68176742D02*
X122845863Y-68271980D01*
X122845863Y-68271980D02*
X122798244Y-68319600D01*
X122798244Y-68319600D02*
X122703006Y-68367219D01*
X122703006Y-68367219D02*
X122417292Y-68367219D01*
X122417292Y-68367219D02*
X122322054Y-68319600D01*
X122322054Y-68319600D02*
X122274435Y-68271980D01*
X123322054Y-68271980D02*
X123369673Y-68319600D01*
X123369673Y-68319600D02*
X123322054Y-68367219D01*
X123322054Y-68367219D02*
X123274435Y-68319600D01*
X123274435Y-68319600D02*
X123322054Y-68271980D01*
X123322054Y-68271980D02*
X123322054Y-68367219D01*
X123703006Y-67367219D02*
X124322053Y-67367219D01*
X124322053Y-67367219D02*
X123988720Y-67748171D01*
X123988720Y-67748171D02*
X124131577Y-67748171D01*
X124131577Y-67748171D02*
X124226815Y-67795790D01*
X124226815Y-67795790D02*
X124274434Y-67843409D01*
X124274434Y-67843409D02*
X124322053Y-67938647D01*
X124322053Y-67938647D02*
X124322053Y-68176742D01*
X124322053Y-68176742D02*
X124274434Y-68271980D01*
X124274434Y-68271980D02*
X124226815Y-68319600D01*
X124226815Y-68319600D02*
X124131577Y-68367219D01*
X124131577Y-68367219D02*
X123845863Y-68367219D01*
X123845863Y-68367219D02*
X123750625Y-68319600D01*
X123750625Y-68319600D02*
X123703006Y-68271980D01*
X118091695Y-77525564D02*
X118091695Y-77373183D01*
X118091695Y-77373183D02*
X118129790Y-77296993D01*
X118129790Y-77296993D02*
X118205980Y-77220802D01*
X118205980Y-77220802D02*
X118358361Y-77182707D01*
X118358361Y-77182707D02*
X118625028Y-77182707D01*
X118625028Y-77182707D02*
X118777409Y-77220802D01*
X118777409Y-77220802D02*
X118853600Y-77296993D01*
X118853600Y-77296993D02*
X118891695Y-77373183D01*
X118891695Y-77373183D02*
X118891695Y-77525564D01*
X118891695Y-77525564D02*
X118853600Y-77601755D01*
X118853600Y-77601755D02*
X118777409Y-77677945D01*
X118777409Y-77677945D02*
X118625028Y-77716041D01*
X118625028Y-77716041D02*
X118358361Y-77716041D01*
X118358361Y-77716041D02*
X118205980Y-77677945D01*
X118205980Y-77677945D02*
X118129790Y-77601755D01*
X118129790Y-77601755D02*
X118091695Y-77525564D01*
X118853600Y-76877946D02*
X118891695Y-76763660D01*
X118891695Y-76763660D02*
X118891695Y-76573184D01*
X118891695Y-76573184D02*
X118853600Y-76496993D01*
X118853600Y-76496993D02*
X118815504Y-76458898D01*
X118815504Y-76458898D02*
X118739314Y-76420803D01*
X118739314Y-76420803D02*
X118663123Y-76420803D01*
X118663123Y-76420803D02*
X118586933Y-76458898D01*
X118586933Y-76458898D02*
X118548838Y-76496993D01*
X118548838Y-76496993D02*
X118510742Y-76573184D01*
X118510742Y-76573184D02*
X118472647Y-76725565D01*
X118472647Y-76725565D02*
X118434552Y-76801755D01*
X118434552Y-76801755D02*
X118396457Y-76839850D01*
X118396457Y-76839850D02*
X118320266Y-76877946D01*
X118320266Y-76877946D02*
X118244076Y-76877946D01*
X118244076Y-76877946D02*
X118167885Y-76839850D01*
X118167885Y-76839850D02*
X118129790Y-76801755D01*
X118129790Y-76801755D02*
X118091695Y-76725565D01*
X118091695Y-76725565D02*
X118091695Y-76535088D01*
X118091695Y-76535088D02*
X118129790Y-76420803D01*
X118853600Y-72716041D02*
X118891695Y-72601755D01*
X118891695Y-72601755D02*
X118891695Y-72411279D01*
X118891695Y-72411279D02*
X118853600Y-72335088D01*
X118853600Y-72335088D02*
X118815504Y-72296993D01*
X118815504Y-72296993D02*
X118739314Y-72258898D01*
X118739314Y-72258898D02*
X118663123Y-72258898D01*
X118663123Y-72258898D02*
X118586933Y-72296993D01*
X118586933Y-72296993D02*
X118548838Y-72335088D01*
X118548838Y-72335088D02*
X118510742Y-72411279D01*
X118510742Y-72411279D02*
X118472647Y-72563660D01*
X118472647Y-72563660D02*
X118434552Y-72639850D01*
X118434552Y-72639850D02*
X118396457Y-72677945D01*
X118396457Y-72677945D02*
X118320266Y-72716041D01*
X118320266Y-72716041D02*
X118244076Y-72716041D01*
X118244076Y-72716041D02*
X118167885Y-72677945D01*
X118167885Y-72677945D02*
X118129790Y-72639850D01*
X118129790Y-72639850D02*
X118091695Y-72563660D01*
X118091695Y-72563660D02*
X118091695Y-72373183D01*
X118091695Y-72373183D02*
X118129790Y-72258898D01*
X118891695Y-71916040D02*
X118091695Y-71916040D01*
X118091695Y-71916040D02*
X118091695Y-71725564D01*
X118091695Y-71725564D02*
X118129790Y-71611278D01*
X118129790Y-71611278D02*
X118205980Y-71535088D01*
X118205980Y-71535088D02*
X118282171Y-71496993D01*
X118282171Y-71496993D02*
X118434552Y-71458897D01*
X118434552Y-71458897D02*
X118548838Y-71458897D01*
X118548838Y-71458897D02*
X118701219Y-71496993D01*
X118701219Y-71496993D02*
X118777409Y-71535088D01*
X118777409Y-71535088D02*
X118853600Y-71611278D01*
X118853600Y-71611278D02*
X118891695Y-71725564D01*
X118891695Y-71725564D02*
X118891695Y-71916040D01*
X118663123Y-71154136D02*
X118663123Y-70773183D01*
X118891695Y-71230326D02*
X118091695Y-70963659D01*
X118091695Y-70963659D02*
X118891695Y-70696993D01*
X93283958Y-74353600D02*
X93398244Y-74391695D01*
X93398244Y-74391695D02*
X93588720Y-74391695D01*
X93588720Y-74391695D02*
X93664911Y-74353600D01*
X93664911Y-74353600D02*
X93703006Y-74315504D01*
X93703006Y-74315504D02*
X93741101Y-74239314D01*
X93741101Y-74239314D02*
X93741101Y-74163123D01*
X93741101Y-74163123D02*
X93703006Y-74086933D01*
X93703006Y-74086933D02*
X93664911Y-74048838D01*
X93664911Y-74048838D02*
X93588720Y-74010742D01*
X93588720Y-74010742D02*
X93436339Y-73972647D01*
X93436339Y-73972647D02*
X93360149Y-73934552D01*
X93360149Y-73934552D02*
X93322054Y-73896457D01*
X93322054Y-73896457D02*
X93283958Y-73820266D01*
X93283958Y-73820266D02*
X93283958Y-73744076D01*
X93283958Y-73744076D02*
X93322054Y-73667885D01*
X93322054Y-73667885D02*
X93360149Y-73629790D01*
X93360149Y-73629790D02*
X93436339Y-73591695D01*
X93436339Y-73591695D02*
X93626816Y-73591695D01*
X93626816Y-73591695D02*
X93741101Y-73629790D01*
X94541102Y-74315504D02*
X94503006Y-74353600D01*
X94503006Y-74353600D02*
X94388721Y-74391695D01*
X94388721Y-74391695D02*
X94312530Y-74391695D01*
X94312530Y-74391695D02*
X94198244Y-74353600D01*
X94198244Y-74353600D02*
X94122054Y-74277409D01*
X94122054Y-74277409D02*
X94083959Y-74201219D01*
X94083959Y-74201219D02*
X94045863Y-74048838D01*
X94045863Y-74048838D02*
X94045863Y-73934552D01*
X94045863Y-73934552D02*
X94083959Y-73782171D01*
X94083959Y-73782171D02*
X94122054Y-73705980D01*
X94122054Y-73705980D02*
X94198244Y-73629790D01*
X94198244Y-73629790D02*
X94312530Y-73591695D01*
X94312530Y-73591695D02*
X94388721Y-73591695D01*
X94388721Y-73591695D02*
X94503006Y-73629790D01*
X94503006Y-73629790D02*
X94541102Y-73667885D01*
X95264911Y-74391695D02*
X94883959Y-74391695D01*
X94883959Y-74391695D02*
X94883959Y-73591695D01*
X98283958Y-71853600D02*
X98398244Y-71891695D01*
X98398244Y-71891695D02*
X98588720Y-71891695D01*
X98588720Y-71891695D02*
X98664911Y-71853600D01*
X98664911Y-71853600D02*
X98703006Y-71815504D01*
X98703006Y-71815504D02*
X98741101Y-71739314D01*
X98741101Y-71739314D02*
X98741101Y-71663123D01*
X98741101Y-71663123D02*
X98703006Y-71586933D01*
X98703006Y-71586933D02*
X98664911Y-71548838D01*
X98664911Y-71548838D02*
X98588720Y-71510742D01*
X98588720Y-71510742D02*
X98436339Y-71472647D01*
X98436339Y-71472647D02*
X98360149Y-71434552D01*
X98360149Y-71434552D02*
X98322054Y-71396457D01*
X98322054Y-71396457D02*
X98283958Y-71320266D01*
X98283958Y-71320266D02*
X98283958Y-71244076D01*
X98283958Y-71244076D02*
X98322054Y-71167885D01*
X98322054Y-71167885D02*
X98360149Y-71129790D01*
X98360149Y-71129790D02*
X98436339Y-71091695D01*
X98436339Y-71091695D02*
X98626816Y-71091695D01*
X98626816Y-71091695D02*
X98741101Y-71129790D01*
X99083959Y-71891695D02*
X99083959Y-71091695D01*
X99083959Y-71091695D02*
X99274435Y-71091695D01*
X99274435Y-71091695D02*
X99388721Y-71129790D01*
X99388721Y-71129790D02*
X99464911Y-71205980D01*
X99464911Y-71205980D02*
X99503006Y-71282171D01*
X99503006Y-71282171D02*
X99541102Y-71434552D01*
X99541102Y-71434552D02*
X99541102Y-71548838D01*
X99541102Y-71548838D02*
X99503006Y-71701219D01*
X99503006Y-71701219D02*
X99464911Y-71777409D01*
X99464911Y-71777409D02*
X99388721Y-71853600D01*
X99388721Y-71853600D02*
X99274435Y-71891695D01*
X99274435Y-71891695D02*
X99083959Y-71891695D01*
X99845863Y-71663123D02*
X100226816Y-71663123D01*
X99769673Y-71891695D02*
X100036340Y-71091695D01*
X100036340Y-71091695D02*
X100303006Y-71891695D01*
D11*
X90619047Y-66788152D02*
X90619047Y-67454819D01*
X90380952Y-66407200D02*
X90142857Y-67121485D01*
X90142857Y-67121485D02*
X90761904Y-67121485D01*
X91142857Y-67359580D02*
X91190476Y-67407200D01*
X91190476Y-67407200D02*
X91142857Y-67454819D01*
X91142857Y-67454819D02*
X91095238Y-67407200D01*
X91095238Y-67407200D02*
X91142857Y-67359580D01*
X91142857Y-67359580D02*
X91142857Y-67454819D01*
X91523809Y-66454819D02*
X92190475Y-66454819D01*
X92190475Y-66454819D02*
X91761904Y-67454819D01*
X92571428Y-67454819D02*
X92571428Y-66454819D01*
X93142856Y-67454819D02*
X92714285Y-66883390D01*
X93142856Y-66454819D02*
X92571428Y-67026247D01*
X93333333Y-67550057D02*
X94095237Y-67550057D01*
X94904761Y-67454819D02*
X94571428Y-66978628D01*
X94333333Y-67454819D02*
X94333333Y-66454819D01*
X94333333Y-66454819D02*
X94714285Y-66454819D01*
X94714285Y-66454819D02*
X94809523Y-66502438D01*
X94809523Y-66502438D02*
X94857142Y-66550057D01*
X94857142Y-66550057D02*
X94904761Y-66645295D01*
X94904761Y-66645295D02*
X94904761Y-66788152D01*
X94904761Y-66788152D02*
X94857142Y-66883390D01*
X94857142Y-66883390D02*
X94809523Y-66931009D01*
X94809523Y-66931009D02*
X94714285Y-66978628D01*
X94714285Y-66978628D02*
X94333333Y-66978628D01*
X95238095Y-66454819D02*
X95857142Y-66454819D01*
X95857142Y-66454819D02*
X95523809Y-66835771D01*
X95523809Y-66835771D02*
X95666666Y-66835771D01*
X95666666Y-66835771D02*
X95761904Y-66883390D01*
X95761904Y-66883390D02*
X95809523Y-66931009D01*
X95809523Y-66931009D02*
X95857142Y-67026247D01*
X95857142Y-67026247D02*
X95857142Y-67264342D01*
X95857142Y-67264342D02*
X95809523Y-67359580D01*
X95809523Y-67359580D02*
X95761904Y-67407200D01*
X95761904Y-67407200D02*
X95666666Y-67454819D01*
X95666666Y-67454819D02*
X95380952Y-67454819D01*
X95380952Y-67454819D02*
X95285714Y-67407200D01*
X95285714Y-67407200D02*
X95238095Y-67359580D01*
X91304819Y-70190476D02*
X90828628Y-70523809D01*
X91304819Y-70761904D02*
X90304819Y-70761904D01*
X90304819Y-70761904D02*
X90304819Y-70380952D01*
X90304819Y-70380952D02*
X90352438Y-70285714D01*
X90352438Y-70285714D02*
X90400057Y-70238095D01*
X90400057Y-70238095D02*
X90495295Y-70190476D01*
X90495295Y-70190476D02*
X90638152Y-70190476D01*
X90638152Y-70190476D02*
X90733390Y-70238095D01*
X90733390Y-70238095D02*
X90781009Y-70285714D01*
X90781009Y-70285714D02*
X90828628Y-70380952D01*
X90828628Y-70380952D02*
X90828628Y-70761904D01*
D12*
X92393816Y-71690474D02*
X92727149Y-71690474D01*
X92203340Y-71809522D02*
X92560482Y-71928569D01*
X92560482Y-71928569D02*
X92560482Y-71619046D01*
X92679530Y-71428570D02*
X92703340Y-71404760D01*
X92703340Y-71404760D02*
X92727149Y-71428570D01*
X92727149Y-71428570D02*
X92703340Y-71452379D01*
X92703340Y-71452379D02*
X92679530Y-71428570D01*
X92679530Y-71428570D02*
X92727149Y-71428570D01*
X92227149Y-71238094D02*
X92227149Y-70904761D01*
X92227149Y-70904761D02*
X92727149Y-71119046D01*
X92727149Y-70714285D02*
X92227149Y-70714285D01*
X92727149Y-70428571D02*
X92441435Y-70642856D01*
X92227149Y-70428571D02*
X92512863Y-70714285D01*
X92774768Y-70333333D02*
X92774768Y-69952380D01*
X92727149Y-69547619D02*
X92489054Y-69714285D01*
X92727149Y-69833333D02*
X92227149Y-69833333D01*
X92227149Y-69833333D02*
X92227149Y-69642857D01*
X92227149Y-69642857D02*
X92250959Y-69595238D01*
X92250959Y-69595238D02*
X92274768Y-69571428D01*
X92274768Y-69571428D02*
X92322387Y-69547619D01*
X92322387Y-69547619D02*
X92393816Y-69547619D01*
X92393816Y-69547619D02*
X92441435Y-69571428D01*
X92441435Y-69571428D02*
X92465244Y-69595238D01*
X92465244Y-69595238D02*
X92489054Y-69642857D01*
X92489054Y-69642857D02*
X92489054Y-69833333D01*
X92227149Y-69380952D02*
X92227149Y-69071428D01*
X92227149Y-69071428D02*
X92417625Y-69238095D01*
X92417625Y-69238095D02*
X92417625Y-69166666D01*
X92417625Y-69166666D02*
X92441435Y-69119047D01*
X92441435Y-69119047D02*
X92465244Y-69095238D01*
X92465244Y-69095238D02*
X92512863Y-69071428D01*
X92512863Y-69071428D02*
X92631911Y-69071428D01*
X92631911Y-69071428D02*
X92679530Y-69095238D01*
X92679530Y-69095238D02*
X92703340Y-69119047D01*
X92703340Y-69119047D02*
X92727149Y-69166666D01*
X92727149Y-69166666D02*
X92727149Y-69309523D01*
X92727149Y-69309523D02*
X92703340Y-69357142D01*
X92703340Y-69357142D02*
X92679530Y-69380952D01*
D11*
X102619047Y-66788152D02*
X102619047Y-67454819D01*
X102380952Y-66407200D02*
X102142857Y-67121485D01*
X102142857Y-67121485D02*
X102761904Y-67121485D01*
X103142857Y-67359580D02*
X103190476Y-67407200D01*
X103190476Y-67407200D02*
X103142857Y-67454819D01*
X103142857Y-67454819D02*
X103095238Y-67407200D01*
X103095238Y-67407200D02*
X103142857Y-67359580D01*
X103142857Y-67359580D02*
X103142857Y-67454819D01*
X103523809Y-66454819D02*
X104190475Y-66454819D01*
X104190475Y-66454819D02*
X103761904Y-67454819D01*
X104571428Y-67454819D02*
X104571428Y-66454819D01*
X105142856Y-67454819D02*
X104714285Y-66883390D01*
X105142856Y-66454819D02*
X104571428Y-67026247D01*
X105333333Y-67550057D02*
X106095237Y-67550057D01*
X106904761Y-67454819D02*
X106571428Y-66978628D01*
X106333333Y-67454819D02*
X106333333Y-66454819D01*
X106333333Y-66454819D02*
X106714285Y-66454819D01*
X106714285Y-66454819D02*
X106809523Y-66502438D01*
X106809523Y-66502438D02*
X106857142Y-66550057D01*
X106857142Y-66550057D02*
X106904761Y-66645295D01*
X106904761Y-66645295D02*
X106904761Y-66788152D01*
X106904761Y-66788152D02*
X106857142Y-66883390D01*
X106857142Y-66883390D02*
X106809523Y-66931009D01*
X106809523Y-66931009D02*
X106714285Y-66978628D01*
X106714285Y-66978628D02*
X106333333Y-66978628D01*
X107285714Y-66550057D02*
X107333333Y-66502438D01*
X107333333Y-66502438D02*
X107428571Y-66454819D01*
X107428571Y-66454819D02*
X107666666Y-66454819D01*
X107666666Y-66454819D02*
X107761904Y-66502438D01*
X107761904Y-66502438D02*
X107809523Y-66550057D01*
X107809523Y-66550057D02*
X107857142Y-66645295D01*
X107857142Y-66645295D02*
X107857142Y-66740533D01*
X107857142Y-66740533D02*
X107809523Y-66883390D01*
X107809523Y-66883390D02*
X107238095Y-67454819D01*
X107238095Y-67454819D02*
X107857142Y-67454819D01*
X100304819Y-69190476D02*
X99828628Y-69523809D01*
X100304819Y-69761904D02*
X99304819Y-69761904D01*
X99304819Y-69761904D02*
X99304819Y-69380952D01*
X99304819Y-69380952D02*
X99352438Y-69285714D01*
X99352438Y-69285714D02*
X99400057Y-69238095D01*
X99400057Y-69238095D02*
X99495295Y-69190476D01*
X99495295Y-69190476D02*
X99638152Y-69190476D01*
X99638152Y-69190476D02*
X99733390Y-69238095D01*
X99733390Y-69238095D02*
X99781009Y-69285714D01*
X99781009Y-69285714D02*
X99828628Y-69380952D01*
X99828628Y-69380952D02*
X99828628Y-69761904D01*
D12*
X101393816Y-70690474D02*
X101727149Y-70690474D01*
X101203340Y-70809522D02*
X101560482Y-70928569D01*
X101560482Y-70928569D02*
X101560482Y-70619046D01*
X101679530Y-70428570D02*
X101703340Y-70404760D01*
X101703340Y-70404760D02*
X101727149Y-70428570D01*
X101727149Y-70428570D02*
X101703340Y-70452379D01*
X101703340Y-70452379D02*
X101679530Y-70428570D01*
X101679530Y-70428570D02*
X101727149Y-70428570D01*
X101227149Y-70238094D02*
X101227149Y-69904761D01*
X101227149Y-69904761D02*
X101727149Y-70119046D01*
X101727149Y-69714285D02*
X101227149Y-69714285D01*
X101727149Y-69428571D02*
X101441435Y-69642856D01*
X101227149Y-69428571D02*
X101512863Y-69714285D01*
X101774768Y-69333333D02*
X101774768Y-68952380D01*
X101727149Y-68547619D02*
X101489054Y-68714285D01*
X101727149Y-68833333D02*
X101227149Y-68833333D01*
X101227149Y-68833333D02*
X101227149Y-68642857D01*
X101227149Y-68642857D02*
X101250959Y-68595238D01*
X101250959Y-68595238D02*
X101274768Y-68571428D01*
X101274768Y-68571428D02*
X101322387Y-68547619D01*
X101322387Y-68547619D02*
X101393816Y-68547619D01*
X101393816Y-68547619D02*
X101441435Y-68571428D01*
X101441435Y-68571428D02*
X101465244Y-68595238D01*
X101465244Y-68595238D02*
X101489054Y-68642857D01*
X101489054Y-68642857D02*
X101489054Y-68833333D01*
X101274768Y-68357142D02*
X101250959Y-68333333D01*
X101250959Y-68333333D02*
X101227149Y-68285714D01*
X101227149Y-68285714D02*
X101227149Y-68166666D01*
X101227149Y-68166666D02*
X101250959Y-68119047D01*
X101250959Y-68119047D02*
X101274768Y-68095238D01*
X101274768Y-68095238D02*
X101322387Y-68071428D01*
X101322387Y-68071428D02*
X101370006Y-68071428D01*
X101370006Y-68071428D02*
X101441435Y-68095238D01*
X101441435Y-68095238D02*
X101727149Y-68380952D01*
X101727149Y-68380952D02*
X101727149Y-68071428D01*
D11*
X125287495Y-73881020D02*
X125287495Y-74690543D01*
X125287495Y-74690543D02*
X125335114Y-74785781D01*
X125335114Y-74785781D02*
X125382733Y-74833401D01*
X125382733Y-74833401D02*
X125477971Y-74881020D01*
X125477971Y-74881020D02*
X125668447Y-74881020D01*
X125668447Y-74881020D02*
X125763685Y-74833401D01*
X125763685Y-74833401D02*
X125811304Y-74785781D01*
X125811304Y-74785781D02*
X125858923Y-74690543D01*
X125858923Y-74690543D02*
X125858923Y-73881020D01*
X126287495Y-73976258D02*
X126335114Y-73928639D01*
X126335114Y-73928639D02*
X126430352Y-73881020D01*
X126430352Y-73881020D02*
X126668447Y-73881020D01*
X126668447Y-73881020D02*
X126763685Y-73928639D01*
X126763685Y-73928639D02*
X126811304Y-73976258D01*
X126811304Y-73976258D02*
X126858923Y-74071496D01*
X126858923Y-74071496D02*
X126858923Y-74166734D01*
X126858923Y-74166734D02*
X126811304Y-74309591D01*
X126811304Y-74309591D02*
X126239876Y-74881020D01*
X126239876Y-74881020D02*
X126858923Y-74881020D01*
X120049400Y-74881020D02*
X120049400Y-73881020D01*
X120049400Y-73881020D02*
X120382733Y-74595305D01*
X120382733Y-74595305D02*
X120716066Y-73881020D01*
X120716066Y-73881020D02*
X120716066Y-74881020D01*
X121144638Y-74595305D02*
X121620828Y-74595305D01*
X121049400Y-74881020D02*
X121382733Y-73881020D01*
X121382733Y-73881020D02*
X121716066Y-74881020D01*
X121954162Y-73881020D02*
X122620828Y-74881020D01*
X122620828Y-73881020D02*
X121954162Y-74881020D01*
X122906543Y-73881020D02*
X123525590Y-73881020D01*
X123525590Y-73881020D02*
X123192257Y-74261972D01*
X123192257Y-74261972D02*
X123335114Y-74261972D01*
X123335114Y-74261972D02*
X123430352Y-74309591D01*
X123430352Y-74309591D02*
X123477971Y-74357210D01*
X123477971Y-74357210D02*
X123525590Y-74452448D01*
X123525590Y-74452448D02*
X123525590Y-74690543D01*
X123525590Y-74690543D02*
X123477971Y-74785781D01*
X123477971Y-74785781D02*
X123430352Y-74833401D01*
X123430352Y-74833401D02*
X123335114Y-74881020D01*
X123335114Y-74881020D02*
X123049400Y-74881020D01*
X123049400Y-74881020D02*
X122954162Y-74833401D01*
X122954162Y-74833401D02*
X122906543Y-74785781D01*
X124144638Y-73881020D02*
X124239876Y-73881020D01*
X124239876Y-73881020D02*
X124335114Y-73928639D01*
X124335114Y-73928639D02*
X124382733Y-73976258D01*
X124382733Y-73976258D02*
X124430352Y-74071496D01*
X124430352Y-74071496D02*
X124477971Y-74261972D01*
X124477971Y-74261972D02*
X124477971Y-74500067D01*
X124477971Y-74500067D02*
X124430352Y-74690543D01*
X124430352Y-74690543D02*
X124382733Y-74785781D01*
X124382733Y-74785781D02*
X124335114Y-74833401D01*
X124335114Y-74833401D02*
X124239876Y-74881020D01*
X124239876Y-74881020D02*
X124144638Y-74881020D01*
X124144638Y-74881020D02*
X124049400Y-74833401D01*
X124049400Y-74833401D02*
X124001781Y-74785781D01*
X124001781Y-74785781D02*
X123954162Y-74690543D01*
X123954162Y-74690543D02*
X123906543Y-74500067D01*
X123906543Y-74500067D02*
X123906543Y-74261972D01*
X123906543Y-74261972D02*
X123954162Y-74071496D01*
X123954162Y-74071496D02*
X124001781Y-73976258D01*
X124001781Y-73976258D02*
X124049400Y-73928639D01*
X124049400Y-73928639D02*
X124144638Y-73881020D01*
X124858924Y-73976258D02*
X124906543Y-73928639D01*
X124906543Y-73928639D02*
X125001781Y-73881020D01*
X125001781Y-73881020D02*
X125239876Y-73881020D01*
X125239876Y-73881020D02*
X125335114Y-73928639D01*
X125335114Y-73928639D02*
X125382733Y-73976258D01*
X125382733Y-73976258D02*
X125430352Y-74071496D01*
X125430352Y-74071496D02*
X125430352Y-74166734D01*
X125430352Y-74166734D02*
X125382733Y-74309591D01*
X125382733Y-74309591D02*
X124811305Y-74881020D01*
X124811305Y-74881020D02*
X125430352Y-74881020D01*
X126049400Y-73881020D02*
X126144638Y-73881020D01*
X126144638Y-73881020D02*
X126239876Y-73928639D01*
X126239876Y-73928639D02*
X126287495Y-73976258D01*
X126287495Y-73976258D02*
X126335114Y-74071496D01*
X126335114Y-74071496D02*
X126382733Y-74261972D01*
X126382733Y-74261972D02*
X126382733Y-74500067D01*
X126382733Y-74500067D02*
X126335114Y-74690543D01*
X126335114Y-74690543D02*
X126287495Y-74785781D01*
X126287495Y-74785781D02*
X126239876Y-74833401D01*
X126239876Y-74833401D02*
X126144638Y-74881020D01*
X126144638Y-74881020D02*
X126049400Y-74881020D01*
X126049400Y-74881020D02*
X125954162Y-74833401D01*
X125954162Y-74833401D02*
X125906543Y-74785781D01*
X125906543Y-74785781D02*
X125858924Y-74690543D01*
X125858924Y-74690543D02*
X125811305Y-74500067D01*
X125811305Y-74500067D02*
X125811305Y-74261972D01*
X125811305Y-74261972D02*
X125858924Y-74071496D01*
X125858924Y-74071496D02*
X125906543Y-73976258D01*
X125906543Y-73976258D02*
X125954162Y-73928639D01*
X125954162Y-73928639D02*
X126049400Y-73881020D01*
X127287495Y-73881020D02*
X126811305Y-73881020D01*
X126811305Y-73881020D02*
X126763686Y-74357210D01*
X126763686Y-74357210D02*
X126811305Y-74309591D01*
X126811305Y-74309591D02*
X126906543Y-74261972D01*
X126906543Y-74261972D02*
X127144638Y-74261972D01*
X127144638Y-74261972D02*
X127239876Y-74309591D01*
X127239876Y-74309591D02*
X127287495Y-74357210D01*
X127287495Y-74357210D02*
X127335114Y-74452448D01*
X127335114Y-74452448D02*
X127335114Y-74690543D01*
X127335114Y-74690543D02*
X127287495Y-74785781D01*
X127287495Y-74785781D02*
X127239876Y-74833401D01*
X127239876Y-74833401D02*
X127144638Y-74881020D01*
X127144638Y-74881020D02*
X126906543Y-74881020D01*
X126906543Y-74881020D02*
X126811305Y-74833401D01*
X126811305Y-74833401D02*
X126763686Y-74785781D01*
X127763686Y-74881020D02*
X127763686Y-73881020D01*
X127763686Y-73881020D02*
X128097019Y-74595305D01*
X128097019Y-74595305D02*
X128430352Y-73881020D01*
X128430352Y-73881020D02*
X128430352Y-74881020D01*
X128763686Y-73881020D02*
X129335114Y-73881020D01*
X129049400Y-74881020D02*
X129049400Y-73881020D01*
X129620829Y-74595305D02*
X130097019Y-74595305D01*
X129525591Y-74881020D02*
X129858924Y-73881020D01*
X129858924Y-73881020D02*
X130192257Y-74881020D01*
X130525591Y-74500067D02*
X131287496Y-74500067D01*
X130906543Y-74881020D02*
X130906543Y-74119115D01*
X131620829Y-73881020D02*
X132192257Y-73881020D01*
X131906543Y-74881020D02*
X131906543Y-73881020D01*
X125287495Y-73881020D02*
X125287495Y-74690543D01*
X125287495Y-74690543D02*
X125335114Y-74785781D01*
X125335114Y-74785781D02*
X125382733Y-74833401D01*
X125382733Y-74833401D02*
X125477971Y-74881020D01*
X125477971Y-74881020D02*
X125668447Y-74881020D01*
X125668447Y-74881020D02*
X125763685Y-74833401D01*
X125763685Y-74833401D02*
X125811304Y-74785781D01*
X125811304Y-74785781D02*
X125858923Y-74690543D01*
X125858923Y-74690543D02*
X125858923Y-73881020D01*
X126287495Y-73976258D02*
X126335114Y-73928639D01*
X126335114Y-73928639D02*
X126430352Y-73881020D01*
X126430352Y-73881020D02*
X126668447Y-73881020D01*
X126668447Y-73881020D02*
X126763685Y-73928639D01*
X126763685Y-73928639D02*
X126811304Y-73976258D01*
X126811304Y-73976258D02*
X126858923Y-74071496D01*
X126858923Y-74071496D02*
X126858923Y-74166734D01*
X126858923Y-74166734D02*
X126811304Y-74309591D01*
X126811304Y-74309591D02*
X126239876Y-74881020D01*
X126239876Y-74881020D02*
X126858923Y-74881020D01*
X120106666Y-65802420D02*
X120106666Y-66516705D01*
X120106666Y-66516705D02*
X120059047Y-66659562D01*
X120059047Y-66659562D02*
X119963809Y-66754801D01*
X119963809Y-66754801D02*
X119820952Y-66802420D01*
X119820952Y-66802420D02*
X119725714Y-66802420D01*
X121106666Y-66802420D02*
X120535238Y-66802420D01*
X120820952Y-66802420D02*
X120820952Y-65802420D01*
X120820952Y-65802420D02*
X120725714Y-65945277D01*
X120725714Y-65945277D02*
X120630476Y-66040515D01*
X120630476Y-66040515D02*
X120535238Y-66088134D01*
X115130475Y-82407181D02*
X115082856Y-82454801D01*
X115082856Y-82454801D02*
X114939999Y-82502420D01*
X114939999Y-82502420D02*
X114844761Y-82502420D01*
X114844761Y-82502420D02*
X114701904Y-82454801D01*
X114701904Y-82454801D02*
X114606666Y-82359562D01*
X114606666Y-82359562D02*
X114559047Y-82264324D01*
X114559047Y-82264324D02*
X114511428Y-82073848D01*
X114511428Y-82073848D02*
X114511428Y-81930991D01*
X114511428Y-81930991D02*
X114559047Y-81740515D01*
X114559047Y-81740515D02*
X114606666Y-81645277D01*
X114606666Y-81645277D02*
X114701904Y-81550039D01*
X114701904Y-81550039D02*
X114844761Y-81502420D01*
X114844761Y-81502420D02*
X114939999Y-81502420D01*
X114939999Y-81502420D02*
X115082856Y-81550039D01*
X115082856Y-81550039D02*
X115130475Y-81597658D01*
X115701904Y-82502420D02*
X115606666Y-82454801D01*
X115606666Y-82454801D02*
X115559047Y-82407181D01*
X115559047Y-82407181D02*
X115511428Y-82311943D01*
X115511428Y-82311943D02*
X115511428Y-82026229D01*
X115511428Y-82026229D02*
X115559047Y-81930991D01*
X115559047Y-81930991D02*
X115606666Y-81883372D01*
X115606666Y-81883372D02*
X115701904Y-81835753D01*
X115701904Y-81835753D02*
X115844761Y-81835753D01*
X115844761Y-81835753D02*
X115939999Y-81883372D01*
X115939999Y-81883372D02*
X115987618Y-81930991D01*
X115987618Y-81930991D02*
X116035237Y-82026229D01*
X116035237Y-82026229D02*
X116035237Y-82311943D01*
X116035237Y-82311943D02*
X115987618Y-82407181D01*
X115987618Y-82407181D02*
X115939999Y-82454801D01*
X115939999Y-82454801D02*
X115844761Y-82502420D01*
X115844761Y-82502420D02*
X115701904Y-82502420D01*
X116463809Y-81835753D02*
X116463809Y-82502420D01*
X116463809Y-81930991D02*
X116511428Y-81883372D01*
X116511428Y-81883372D02*
X116606666Y-81835753D01*
X116606666Y-81835753D02*
X116749523Y-81835753D01*
X116749523Y-81835753D02*
X116844761Y-81883372D01*
X116844761Y-81883372D02*
X116892380Y-81978610D01*
X116892380Y-81978610D02*
X116892380Y-82502420D01*
X117368571Y-81835753D02*
X117368571Y-82502420D01*
X117368571Y-81930991D02*
X117416190Y-81883372D01*
X117416190Y-81883372D02*
X117511428Y-81835753D01*
X117511428Y-81835753D02*
X117654285Y-81835753D01*
X117654285Y-81835753D02*
X117749523Y-81883372D01*
X117749523Y-81883372D02*
X117797142Y-81978610D01*
X117797142Y-81978610D02*
X117797142Y-82502420D01*
X118035238Y-82597658D02*
X118797142Y-82597658D01*
X119225714Y-81502420D02*
X119320952Y-81502420D01*
X119320952Y-81502420D02*
X119416190Y-81550039D01*
X119416190Y-81550039D02*
X119463809Y-81597658D01*
X119463809Y-81597658D02*
X119511428Y-81692896D01*
X119511428Y-81692896D02*
X119559047Y-81883372D01*
X119559047Y-81883372D02*
X119559047Y-82121467D01*
X119559047Y-82121467D02*
X119511428Y-82311943D01*
X119511428Y-82311943D02*
X119463809Y-82407181D01*
X119463809Y-82407181D02*
X119416190Y-82454801D01*
X119416190Y-82454801D02*
X119320952Y-82502420D01*
X119320952Y-82502420D02*
X119225714Y-82502420D01*
X119225714Y-82502420D02*
X119130476Y-82454801D01*
X119130476Y-82454801D02*
X119082857Y-82407181D01*
X119082857Y-82407181D02*
X119035238Y-82311943D01*
X119035238Y-82311943D02*
X118987619Y-82121467D01*
X118987619Y-82121467D02*
X118987619Y-81883372D01*
X118987619Y-81883372D02*
X119035238Y-81692896D01*
X119035238Y-81692896D02*
X119082857Y-81597658D01*
X119082857Y-81597658D02*
X119130476Y-81550039D01*
X119130476Y-81550039D02*
X119225714Y-81502420D01*
X120511428Y-82502420D02*
X119940000Y-82502420D01*
X120225714Y-82502420D02*
X120225714Y-81502420D01*
X120225714Y-81502420D02*
X120130476Y-81645277D01*
X120130476Y-81645277D02*
X120035238Y-81740515D01*
X120035238Y-81740515D02*
X119940000Y-81788134D01*
X120844762Y-82502420D02*
X121368571Y-81835753D01*
X120844762Y-81835753D02*
X121368571Y-82502420D01*
X121940000Y-81502420D02*
X122035238Y-81502420D01*
X122035238Y-81502420D02*
X122130476Y-81550039D01*
X122130476Y-81550039D02*
X122178095Y-81597658D01*
X122178095Y-81597658D02*
X122225714Y-81692896D01*
X122225714Y-81692896D02*
X122273333Y-81883372D01*
X122273333Y-81883372D02*
X122273333Y-82121467D01*
X122273333Y-82121467D02*
X122225714Y-82311943D01*
X122225714Y-82311943D02*
X122178095Y-82407181D01*
X122178095Y-82407181D02*
X122130476Y-82454801D01*
X122130476Y-82454801D02*
X122035238Y-82502420D01*
X122035238Y-82502420D02*
X121940000Y-82502420D01*
X121940000Y-82502420D02*
X121844762Y-82454801D01*
X121844762Y-82454801D02*
X121797143Y-82407181D01*
X121797143Y-82407181D02*
X121749524Y-82311943D01*
X121749524Y-82311943D02*
X121701905Y-82121467D01*
X121701905Y-82121467D02*
X121701905Y-81883372D01*
X121701905Y-81883372D02*
X121749524Y-81692896D01*
X121749524Y-81692896D02*
X121797143Y-81597658D01*
X121797143Y-81597658D02*
X121844762Y-81550039D01*
X121844762Y-81550039D02*
X121940000Y-81502420D01*
X123178095Y-81502420D02*
X122701905Y-81502420D01*
X122701905Y-81502420D02*
X122654286Y-81978610D01*
X122654286Y-81978610D02*
X122701905Y-81930991D01*
X122701905Y-81930991D02*
X122797143Y-81883372D01*
X122797143Y-81883372D02*
X123035238Y-81883372D01*
X123035238Y-81883372D02*
X123130476Y-81930991D01*
X123130476Y-81930991D02*
X123178095Y-81978610D01*
X123178095Y-81978610D02*
X123225714Y-82073848D01*
X123225714Y-82073848D02*
X123225714Y-82311943D01*
X123225714Y-82311943D02*
X123178095Y-82407181D01*
X123178095Y-82407181D02*
X123130476Y-82454801D01*
X123130476Y-82454801D02*
X123035238Y-82502420D01*
X123035238Y-82502420D02*
X122797143Y-82502420D01*
X122797143Y-82502420D02*
X122701905Y-82454801D01*
X122701905Y-82454801D02*
X122654286Y-82407181D01*
X123416191Y-82597658D02*
X124178095Y-82597658D01*
X124416191Y-82502420D02*
X124416191Y-81502420D01*
X124416191Y-81502420D02*
X124797143Y-81502420D01*
X124797143Y-81502420D02*
X124892381Y-81550039D01*
X124892381Y-81550039D02*
X124940000Y-81597658D01*
X124940000Y-81597658D02*
X124987619Y-81692896D01*
X124987619Y-81692896D02*
X124987619Y-81835753D01*
X124987619Y-81835753D02*
X124940000Y-81930991D01*
X124940000Y-81930991D02*
X124892381Y-81978610D01*
X124892381Y-81978610D02*
X124797143Y-82026229D01*
X124797143Y-82026229D02*
X124416191Y-82026229D01*
X125416191Y-82502420D02*
X125416191Y-81835753D01*
X125416191Y-81502420D02*
X125368572Y-81550039D01*
X125368572Y-81550039D02*
X125416191Y-81597658D01*
X125416191Y-81597658D02*
X125463810Y-81550039D01*
X125463810Y-81550039D02*
X125416191Y-81502420D01*
X125416191Y-81502420D02*
X125416191Y-81597658D01*
X125892381Y-81835753D02*
X125892381Y-82502420D01*
X125892381Y-81930991D02*
X125940000Y-81883372D01*
X125940000Y-81883372D02*
X126035238Y-81835753D01*
X126035238Y-81835753D02*
X126178095Y-81835753D01*
X126178095Y-81835753D02*
X126273333Y-81883372D01*
X126273333Y-81883372D02*
X126320952Y-81978610D01*
X126320952Y-81978610D02*
X126320952Y-82502420D01*
X119894819Y-74530934D02*
X120609104Y-74530934D01*
X120609104Y-74530934D02*
X120751961Y-74578553D01*
X120751961Y-74578553D02*
X120847200Y-74673791D01*
X120847200Y-74673791D02*
X120894819Y-74816648D01*
X120894819Y-74816648D02*
X120894819Y-74911886D01*
X120894819Y-73530934D02*
X120894819Y-74102362D01*
X120894819Y-73816648D02*
X119894819Y-73816648D01*
X119894819Y-73816648D02*
X120037676Y-73911886D01*
X120037676Y-73911886D02*
X120132914Y-74007124D01*
X120132914Y-74007124D02*
X120180533Y-74102362D01*
X91788152Y-81904761D02*
X92454819Y-81904761D01*
X91407200Y-82142856D02*
X92121485Y-82380951D01*
X92121485Y-82380951D02*
X92121485Y-81761904D01*
X92359580Y-81380951D02*
X92407200Y-81333332D01*
X92407200Y-81333332D02*
X92454819Y-81380951D01*
X92454819Y-81380951D02*
X92407200Y-81428570D01*
X92407200Y-81428570D02*
X92359580Y-81380951D01*
X92359580Y-81380951D02*
X92454819Y-81380951D01*
X91454819Y-80999999D02*
X91454819Y-80333333D01*
X91454819Y-80333333D02*
X92454819Y-80761904D01*
X92454819Y-79952380D02*
X91454819Y-79952380D01*
X92454819Y-79380952D02*
X91883390Y-79809523D01*
X91454819Y-79380952D02*
X92026247Y-79952380D01*
X92550057Y-79190476D02*
X92550057Y-78428571D01*
X92454819Y-77619047D02*
X91978628Y-77952380D01*
X92454819Y-78190475D02*
X91454819Y-78190475D01*
X91454819Y-78190475D02*
X91454819Y-77809523D01*
X91454819Y-77809523D02*
X91502438Y-77714285D01*
X91502438Y-77714285D02*
X91550057Y-77666666D01*
X91550057Y-77666666D02*
X91645295Y-77619047D01*
X91645295Y-77619047D02*
X91788152Y-77619047D01*
X91788152Y-77619047D02*
X91883390Y-77666666D01*
X91883390Y-77666666D02*
X91931009Y-77714285D01*
X91931009Y-77714285D02*
X91978628Y-77809523D01*
X91978628Y-77809523D02*
X91978628Y-78190475D01*
X90804819Y-74690476D02*
X90328628Y-75023809D01*
X90804819Y-75261904D02*
X89804819Y-75261904D01*
X89804819Y-75261904D02*
X89804819Y-74880952D01*
X89804819Y-74880952D02*
X89852438Y-74785714D01*
X89852438Y-74785714D02*
X89900057Y-74738095D01*
X89900057Y-74738095D02*
X89995295Y-74690476D01*
X89995295Y-74690476D02*
X90138152Y-74690476D01*
X90138152Y-74690476D02*
X90233390Y-74738095D01*
X90233390Y-74738095D02*
X90281009Y-74785714D01*
X90281009Y-74785714D02*
X90328628Y-74880952D01*
X90328628Y-74880952D02*
X90328628Y-75261904D01*
D12*
X91893816Y-75952379D02*
X92227149Y-75952379D01*
X91703340Y-76071427D02*
X92060482Y-76190474D01*
X92060482Y-76190474D02*
X92060482Y-75880951D01*
X92179530Y-75690475D02*
X92203340Y-75666665D01*
X92203340Y-75666665D02*
X92227149Y-75690475D01*
X92227149Y-75690475D02*
X92203340Y-75714284D01*
X92203340Y-75714284D02*
X92179530Y-75690475D01*
X92179530Y-75690475D02*
X92227149Y-75690475D01*
X91727149Y-75499999D02*
X91727149Y-75166666D01*
X91727149Y-75166666D02*
X92227149Y-75380951D01*
X92227149Y-74976190D02*
X91727149Y-74976190D01*
X92227149Y-74690476D02*
X91941435Y-74904761D01*
X91727149Y-74690476D02*
X92012863Y-74976190D01*
X92274768Y-74595238D02*
X92274768Y-74214285D01*
X92227149Y-73809524D02*
X91989054Y-73976190D01*
X92227149Y-74095238D02*
X91727149Y-74095238D01*
X91727149Y-74095238D02*
X91727149Y-73904762D01*
X91727149Y-73904762D02*
X91750959Y-73857143D01*
X91750959Y-73857143D02*
X91774768Y-73833333D01*
X91774768Y-73833333D02*
X91822387Y-73809524D01*
X91822387Y-73809524D02*
X91893816Y-73809524D01*
X91893816Y-73809524D02*
X91941435Y-73833333D01*
X91941435Y-73833333D02*
X91965244Y-73857143D01*
X91965244Y-73857143D02*
X91989054Y-73904762D01*
X91989054Y-73904762D02*
X91989054Y-74095238D01*
D11*
X110359580Y-80309523D02*
X110407200Y-80261904D01*
X110407200Y-80261904D02*
X110454819Y-80309523D01*
X110454819Y-80309523D02*
X110407200Y-80357142D01*
X110407200Y-80357142D02*
X110359580Y-80309523D01*
X110359580Y-80309523D02*
X110454819Y-80309523D01*
X110454819Y-79309524D02*
X110454819Y-79880952D01*
X110454819Y-79595238D02*
X109454819Y-79595238D01*
X109454819Y-79595238D02*
X109597676Y-79690476D01*
X109597676Y-79690476D02*
X109692914Y-79785714D01*
X109692914Y-79785714D02*
X109740533Y-79880952D01*
X109454819Y-78880952D02*
X110264342Y-78880952D01*
X110264342Y-78880952D02*
X110359580Y-78833333D01*
X110359580Y-78833333D02*
X110407200Y-78785714D01*
X110407200Y-78785714D02*
X110454819Y-78690476D01*
X110454819Y-78690476D02*
X110454819Y-78500000D01*
X110454819Y-78500000D02*
X110407200Y-78404762D01*
X110407200Y-78404762D02*
X110359580Y-78357143D01*
X110359580Y-78357143D02*
X110264342Y-78309524D01*
X110264342Y-78309524D02*
X109454819Y-78309524D01*
X109931009Y-77500000D02*
X109931009Y-77833333D01*
X110454819Y-77833333D02*
X109454819Y-77833333D01*
X109454819Y-77833333D02*
X109454819Y-77357143D01*
X110550057Y-77214286D02*
X110550057Y-76452381D01*
X110359580Y-75642857D02*
X110407200Y-75690476D01*
X110407200Y-75690476D02*
X110454819Y-75833333D01*
X110454819Y-75833333D02*
X110454819Y-75928571D01*
X110454819Y-75928571D02*
X110407200Y-76071428D01*
X110407200Y-76071428D02*
X110311961Y-76166666D01*
X110311961Y-76166666D02*
X110216723Y-76214285D01*
X110216723Y-76214285D02*
X110026247Y-76261904D01*
X110026247Y-76261904D02*
X109883390Y-76261904D01*
X109883390Y-76261904D02*
X109692914Y-76214285D01*
X109692914Y-76214285D02*
X109597676Y-76166666D01*
X109597676Y-76166666D02*
X109502438Y-76071428D01*
X109502438Y-76071428D02*
X109454819Y-75928571D01*
X109454819Y-75928571D02*
X109454819Y-75833333D01*
X109454819Y-75833333D02*
X109502438Y-75690476D01*
X109502438Y-75690476D02*
X109550057Y-75642857D01*
X108642080Y-72690476D02*
X108689700Y-72738095D01*
X108689700Y-72738095D02*
X108737319Y-72880952D01*
X108737319Y-72880952D02*
X108737319Y-72976190D01*
X108737319Y-72976190D02*
X108689700Y-73119047D01*
X108689700Y-73119047D02*
X108594461Y-73214285D01*
X108594461Y-73214285D02*
X108499223Y-73261904D01*
X108499223Y-73261904D02*
X108308747Y-73309523D01*
X108308747Y-73309523D02*
X108165890Y-73309523D01*
X108165890Y-73309523D02*
X107975414Y-73261904D01*
X107975414Y-73261904D02*
X107880176Y-73214285D01*
X107880176Y-73214285D02*
X107784938Y-73119047D01*
X107784938Y-73119047D02*
X107737319Y-72976190D01*
X107737319Y-72976190D02*
X107737319Y-72880952D01*
X107737319Y-72880952D02*
X107784938Y-72738095D01*
X107784938Y-72738095D02*
X107832557Y-72690476D01*
D12*
X110142030Y-74154761D02*
X110165840Y-74130951D01*
X110165840Y-74130951D02*
X110189649Y-74154761D01*
X110189649Y-74154761D02*
X110165840Y-74178570D01*
X110165840Y-74178570D02*
X110142030Y-74154761D01*
X110142030Y-74154761D02*
X110189649Y-74154761D01*
X110189649Y-73654761D02*
X110189649Y-73940475D01*
X110189649Y-73797618D02*
X109689649Y-73797618D01*
X109689649Y-73797618D02*
X109761078Y-73845237D01*
X109761078Y-73845237D02*
X109808697Y-73892856D01*
X109808697Y-73892856D02*
X109832506Y-73940475D01*
X109689649Y-73440476D02*
X110094411Y-73440476D01*
X110094411Y-73440476D02*
X110142030Y-73416666D01*
X110142030Y-73416666D02*
X110165840Y-73392857D01*
X110165840Y-73392857D02*
X110189649Y-73345238D01*
X110189649Y-73345238D02*
X110189649Y-73250000D01*
X110189649Y-73250000D02*
X110165840Y-73202381D01*
X110165840Y-73202381D02*
X110142030Y-73178571D01*
X110142030Y-73178571D02*
X110094411Y-73154762D01*
X110094411Y-73154762D02*
X109689649Y-73154762D01*
X109927744Y-72749999D02*
X109927744Y-72916666D01*
X110189649Y-72916666D02*
X109689649Y-72916666D01*
X109689649Y-72916666D02*
X109689649Y-72678571D01*
X110237268Y-72607143D02*
X110237268Y-72226190D01*
X110142030Y-71821429D02*
X110165840Y-71845238D01*
X110165840Y-71845238D02*
X110189649Y-71916667D01*
X110189649Y-71916667D02*
X110189649Y-71964286D01*
X110189649Y-71964286D02*
X110165840Y-72035714D01*
X110165840Y-72035714D02*
X110118220Y-72083333D01*
X110118220Y-72083333D02*
X110070601Y-72107143D01*
X110070601Y-72107143D02*
X109975363Y-72130952D01*
X109975363Y-72130952D02*
X109903935Y-72130952D01*
X109903935Y-72130952D02*
X109808697Y-72107143D01*
X109808697Y-72107143D02*
X109761078Y-72083333D01*
X109761078Y-72083333D02*
X109713459Y-72035714D01*
X109713459Y-72035714D02*
X109689649Y-71964286D01*
X109689649Y-71964286D02*
X109689649Y-71916667D01*
X109689649Y-71916667D02*
X109713459Y-71845238D01*
X109713459Y-71845238D02*
X109737268Y-71821429D01*
D11*
X97666666Y-64454819D02*
X97666666Y-65169104D01*
X97666666Y-65169104D02*
X97619047Y-65311961D01*
X97619047Y-65311961D02*
X97523809Y-65407200D01*
X97523809Y-65407200D02*
X97380952Y-65454819D01*
X97380952Y-65454819D02*
X97285714Y-65454819D01*
X98047619Y-64454819D02*
X98666666Y-64454819D01*
X98666666Y-64454819D02*
X98333333Y-64835771D01*
X98333333Y-64835771D02*
X98476190Y-64835771D01*
X98476190Y-64835771D02*
X98571428Y-64883390D01*
X98571428Y-64883390D02*
X98619047Y-64931009D01*
X98619047Y-64931009D02*
X98666666Y-65026247D01*
X98666666Y-65026247D02*
X98666666Y-65264342D01*
X98666666Y-65264342D02*
X98619047Y-65359580D01*
X98619047Y-65359580D02*
X98571428Y-65407200D01*
X98571428Y-65407200D02*
X98476190Y-65454819D01*
X98476190Y-65454819D02*
X98190476Y-65454819D01*
X98190476Y-65454819D02*
X98095238Y-65407200D01*
X98095238Y-65407200D02*
X98047619Y-65359580D01*
X95954819Y-74253333D02*
X96669104Y-74253333D01*
X96669104Y-74253333D02*
X96811961Y-74300952D01*
X96811961Y-74300952D02*
X96907200Y-74396190D01*
X96907200Y-74396190D02*
X96954819Y-74539047D01*
X96954819Y-74539047D02*
X96954819Y-74634285D01*
X95954819Y-73872380D02*
X95954819Y-73253333D01*
X95954819Y-73253333D02*
X96335771Y-73586666D01*
X96335771Y-73586666D02*
X96335771Y-73443809D01*
X96335771Y-73443809D02*
X96383390Y-73348571D01*
X96383390Y-73348571D02*
X96431009Y-73300952D01*
X96431009Y-73300952D02*
X96526247Y-73253333D01*
X96526247Y-73253333D02*
X96764342Y-73253333D01*
X96764342Y-73253333D02*
X96859580Y-73300952D01*
X96859580Y-73300952D02*
X96907200Y-73348571D01*
X96907200Y-73348571D02*
X96954819Y-73443809D01*
X96954819Y-73443809D02*
X96954819Y-73729523D01*
X96954819Y-73729523D02*
X96907200Y-73824761D01*
X96907200Y-73824761D02*
X96859580Y-73872380D01*
X104688695Y-73929818D02*
X104688695Y-74739341D01*
X104688695Y-74739341D02*
X104736314Y-74834579D01*
X104736314Y-74834579D02*
X104783933Y-74882199D01*
X104783933Y-74882199D02*
X104879171Y-74929818D01*
X104879171Y-74929818D02*
X105069647Y-74929818D01*
X105069647Y-74929818D02*
X105164885Y-74882199D01*
X105164885Y-74882199D02*
X105212504Y-74834579D01*
X105212504Y-74834579D02*
X105260123Y-74739341D01*
X105260123Y-74739341D02*
X105260123Y-73929818D01*
X106260123Y-74929818D02*
X105688695Y-74929818D01*
X105974409Y-74929818D02*
X105974409Y-73929818D01*
X105974409Y-73929818D02*
X105879171Y-74072675D01*
X105879171Y-74072675D02*
X105783933Y-74167913D01*
X105783933Y-74167913D02*
X105688695Y-74215532D01*
X101831552Y-81954819D02*
X101831552Y-80954819D01*
X101831552Y-80954819D02*
X102164885Y-81669104D01*
X102164885Y-81669104D02*
X102498218Y-80954819D01*
X102498218Y-80954819D02*
X102498218Y-81954819D01*
X102926790Y-81669104D02*
X103402980Y-81669104D01*
X102831552Y-81954819D02*
X103164885Y-80954819D01*
X103164885Y-80954819D02*
X103498218Y-81954819D01*
X103736314Y-80954819D02*
X104402980Y-81954819D01*
X104402980Y-80954819D02*
X103736314Y-81954819D01*
X104688695Y-80954819D02*
X105307742Y-80954819D01*
X105307742Y-80954819D02*
X104974409Y-81335771D01*
X104974409Y-81335771D02*
X105117266Y-81335771D01*
X105117266Y-81335771D02*
X105212504Y-81383390D01*
X105212504Y-81383390D02*
X105260123Y-81431009D01*
X105260123Y-81431009D02*
X105307742Y-81526247D01*
X105307742Y-81526247D02*
X105307742Y-81764342D01*
X105307742Y-81764342D02*
X105260123Y-81859580D01*
X105260123Y-81859580D02*
X105212504Y-81907200D01*
X105212504Y-81907200D02*
X105117266Y-81954819D01*
X105117266Y-81954819D02*
X104831552Y-81954819D01*
X104831552Y-81954819D02*
X104736314Y-81907200D01*
X104736314Y-81907200D02*
X104688695Y-81859580D01*
X105926790Y-80954819D02*
X106022028Y-80954819D01*
X106022028Y-80954819D02*
X106117266Y-81002438D01*
X106117266Y-81002438D02*
X106164885Y-81050057D01*
X106164885Y-81050057D02*
X106212504Y-81145295D01*
X106212504Y-81145295D02*
X106260123Y-81335771D01*
X106260123Y-81335771D02*
X106260123Y-81573866D01*
X106260123Y-81573866D02*
X106212504Y-81764342D01*
X106212504Y-81764342D02*
X106164885Y-81859580D01*
X106164885Y-81859580D02*
X106117266Y-81907200D01*
X106117266Y-81907200D02*
X106022028Y-81954819D01*
X106022028Y-81954819D02*
X105926790Y-81954819D01*
X105926790Y-81954819D02*
X105831552Y-81907200D01*
X105831552Y-81907200D02*
X105783933Y-81859580D01*
X105783933Y-81859580D02*
X105736314Y-81764342D01*
X105736314Y-81764342D02*
X105688695Y-81573866D01*
X105688695Y-81573866D02*
X105688695Y-81335771D01*
X105688695Y-81335771D02*
X105736314Y-81145295D01*
X105736314Y-81145295D02*
X105783933Y-81050057D01*
X105783933Y-81050057D02*
X105831552Y-81002438D01*
X105831552Y-81002438D02*
X105926790Y-80954819D01*
X106641076Y-81050057D02*
X106688695Y-81002438D01*
X106688695Y-81002438D02*
X106783933Y-80954819D01*
X106783933Y-80954819D02*
X107022028Y-80954819D01*
X107022028Y-80954819D02*
X107117266Y-81002438D01*
X107117266Y-81002438D02*
X107164885Y-81050057D01*
X107164885Y-81050057D02*
X107212504Y-81145295D01*
X107212504Y-81145295D02*
X107212504Y-81240533D01*
X107212504Y-81240533D02*
X107164885Y-81383390D01*
X107164885Y-81383390D02*
X106593457Y-81954819D01*
X106593457Y-81954819D02*
X107212504Y-81954819D01*
X107831552Y-80954819D02*
X107926790Y-80954819D01*
X107926790Y-80954819D02*
X108022028Y-81002438D01*
X108022028Y-81002438D02*
X108069647Y-81050057D01*
X108069647Y-81050057D02*
X108117266Y-81145295D01*
X108117266Y-81145295D02*
X108164885Y-81335771D01*
X108164885Y-81335771D02*
X108164885Y-81573866D01*
X108164885Y-81573866D02*
X108117266Y-81764342D01*
X108117266Y-81764342D02*
X108069647Y-81859580D01*
X108069647Y-81859580D02*
X108022028Y-81907200D01*
X108022028Y-81907200D02*
X107926790Y-81954819D01*
X107926790Y-81954819D02*
X107831552Y-81954819D01*
X107831552Y-81954819D02*
X107736314Y-81907200D01*
X107736314Y-81907200D02*
X107688695Y-81859580D01*
X107688695Y-81859580D02*
X107641076Y-81764342D01*
X107641076Y-81764342D02*
X107593457Y-81573866D01*
X107593457Y-81573866D02*
X107593457Y-81335771D01*
X107593457Y-81335771D02*
X107641076Y-81145295D01*
X107641076Y-81145295D02*
X107688695Y-81050057D01*
X107688695Y-81050057D02*
X107736314Y-81002438D01*
X107736314Y-81002438D02*
X107831552Y-80954819D01*
X109069647Y-80954819D02*
X108593457Y-80954819D01*
X108593457Y-80954819D02*
X108545838Y-81431009D01*
X108545838Y-81431009D02*
X108593457Y-81383390D01*
X108593457Y-81383390D02*
X108688695Y-81335771D01*
X108688695Y-81335771D02*
X108926790Y-81335771D01*
X108926790Y-81335771D02*
X109022028Y-81383390D01*
X109022028Y-81383390D02*
X109069647Y-81431009D01*
X109069647Y-81431009D02*
X109117266Y-81526247D01*
X109117266Y-81526247D02*
X109117266Y-81764342D01*
X109117266Y-81764342D02*
X109069647Y-81859580D01*
X109069647Y-81859580D02*
X109022028Y-81907200D01*
X109022028Y-81907200D02*
X108926790Y-81954819D01*
X108926790Y-81954819D02*
X108688695Y-81954819D01*
X108688695Y-81954819D02*
X108593457Y-81907200D01*
X108593457Y-81907200D02*
X108545838Y-81859580D01*
X104688695Y-73929818D02*
X104688695Y-74739341D01*
X104688695Y-74739341D02*
X104736314Y-74834579D01*
X104736314Y-74834579D02*
X104783933Y-74882199D01*
X104783933Y-74882199D02*
X104879171Y-74929818D01*
X104879171Y-74929818D02*
X105069647Y-74929818D01*
X105069647Y-74929818D02*
X105164885Y-74882199D01*
X105164885Y-74882199D02*
X105212504Y-74834579D01*
X105212504Y-74834579D02*
X105260123Y-74739341D01*
X105260123Y-74739341D02*
X105260123Y-73929818D01*
X106260123Y-74929818D02*
X105688695Y-74929818D01*
X105974409Y-74929818D02*
X105974409Y-73929818D01*
X105974409Y-73929818D02*
X105879171Y-74072675D01*
X105879171Y-74072675D02*
X105783933Y-74167913D01*
X105783933Y-74167913D02*
X105688695Y-74215532D01*
D13*
%TO.C,4.7K_R3*%
X93235000Y-70272936D02*
X93235000Y-70727064D01*
X91765000Y-70272936D02*
X91765000Y-70727064D01*
%TO.C,4.7K_R2*%
X100765000Y-69272936D02*
X100765000Y-69727064D01*
X102235000Y-69272936D02*
X102235000Y-69727064D01*
D14*
%TO.C,U2*%
X127725800Y-72749801D02*
X124373000Y-72749801D01*
X124373000Y-76102601D02*
X127725800Y-76102601D01*
X123494400Y-73451201D02*
G75*
G02*
X123291200Y-73451201I-101600J0D01*
G01*
X123291200Y-73451201D02*
G75*
G02*
X123494400Y-73451201I101600J0D01*
G01*
D13*
%TO.C,J1*%
X119110000Y-70387601D02*
X119110000Y-80607601D01*
X119110000Y-70387601D02*
X121770000Y-70387601D01*
X119110000Y-80607601D02*
X121770000Y-80607601D01*
X120440000Y-67787601D02*
X121770000Y-67787601D01*
X121770000Y-67787601D02*
X121770000Y-69117601D01*
X121770000Y-70387601D02*
X121770000Y-80607601D01*
%TO.C,4.7K_R*%
X92735000Y-74772936D02*
X92735000Y-75227064D01*
X91265000Y-74772936D02*
X91265000Y-75227064D01*
%TO.C,.1UF_C*%
X110697500Y-72738748D02*
X110697500Y-73261252D01*
X109227500Y-72738748D02*
X109227500Y-73261252D01*
%TO.C,J3*%
X95170000Y-70110000D02*
X95170000Y-80330000D01*
X95170000Y-70110000D02*
X97830000Y-70110000D01*
X95170000Y-80330000D02*
X97830000Y-80330000D01*
X96500000Y-67510000D02*
X97830000Y-67510000D01*
X97830000Y-67510000D02*
X97830000Y-68840000D01*
X97830000Y-70110000D02*
X97830000Y-80330000D01*
D14*
%TO.C,U1*%
X102895600Y-73499999D02*
G75*
G02*
X102692400Y-73499999I-101600J0D01*
G01*
X102692400Y-73499999D02*
G75*
G02*
X102895600Y-73499999I101600J0D01*
G01*
X103774200Y-76151399D02*
X107127000Y-76151399D01*
X107127000Y-72798599D02*
X103774200Y-72798599D01*
%TD*%
M02*
