%TF.GenerationSoftware,KiCad,Pcbnew,9.0.4*%
%TF.CreationDate,2026-05-01T15:15:05-04:00*%
%TF.ProjectId,HypoV Breakout,4879706f-5620-4427-9265-616b6f75742e,rev?*%
%TF.SameCoordinates,Original*%
%TF.FileFunction,Copper,L1,Top*%
%TF.FilePolarity,Positive*%
%FSLAX46Y46*%
G04 Gerber Fmt 4.6, Leading zero omitted, Abs format (unit mm)*
G04 Created by KiCad (PCBNEW 9.0.4) date 2026-05-01 15:15:05*
%MOMM*%
%LPD*%
G01*
G04 APERTURE LIST*
G04 Aperture macros list*
%AMRoundRect*
0 Rectangle with rounded corners*
0 $1 Rounding radius*
0 $2 $3 $4 $5 $6 $7 $8 $9 X,Y pos of 4 corners*
0 Add a 4 corners polygon primitive as box body*
4,1,4,$2,$3,$4,$5,$6,$7,$8,$9,$2,$3,0*
0 Add four circle primitives for the rounded corners*
1,1,$1+$1,$2,$3*
1,1,$1+$1,$4,$5*
1,1,$1+$1,$6,$7*
1,1,$1+$1,$8,$9*
0 Add four rect primitives between the rounded corners*
20,1,$1+$1,$2,$3,$4,$5,0*
20,1,$1+$1,$4,$5,$6,$7,0*
20,1,$1+$1,$6,$7,$8,$9,0*
20,1,$1+$1,$8,$9,$2,$3,0*%
G04 Aperture macros list end*
%TA.AperFunction,SMDPad,CuDef*%
%ADD10RoundRect,0.250000X-0.450000X0.350000X-0.450000X-0.350000X0.450000X-0.350000X0.450000X0.350000X0*%
%TD*%
%TA.AperFunction,SMDPad,CuDef*%
%ADD11R,1.600200X2.387600*%
%TD*%
%TA.AperFunction,SMDPad,CuDef*%
%ADD12R,0.812800X0.304800*%
%TD*%
%TA.AperFunction,ComponentPad*%
%ADD13R,1.700000X1.700000*%
%TD*%
%TA.AperFunction,ComponentPad*%
%ADD14C,1.700000*%
%TD*%
%TA.AperFunction,SMDPad,CuDef*%
%ADD15RoundRect,0.250000X-0.475000X0.337500X-0.475000X-0.337500X0.475000X-0.337500X0.475000X0.337500X0*%
%TD*%
%TA.AperFunction,Conductor*%
%ADD16C,0.300000*%
%TD*%
%TA.AperFunction,Conductor*%
%ADD17C,0.200000*%
%TD*%
%TA.AperFunction,Conductor*%
%ADD18C,0.500000*%
%TD*%
G04 APERTURE END LIST*
D10*
%TO.P,4.7K_R3,1*%
%TO.N,+3V3*%
X92500000Y-69500000D03*
%TO.P,4.7K_R3,2*%
%TO.N,Net-(J3-Pin_3)*%
X92500000Y-71500000D03*
%TD*%
%TO.P,4.7K_R2,2*%
%TO.N,Net-(J3-Pin_2)*%
X101500000Y-70500000D03*
%TO.P,4.7K_R2,1*%
%TO.N,+3V3*%
X101500000Y-68500000D03*
%TD*%
D11*
%TO.P,U2,9,EPAD*%
%TO.N,GND2*%
X126049400Y-74426201D03*
D12*
%TO.P,U2,8,VDD*%
%TO.N,+3V32*%
X127598800Y-73451202D03*
%TO.P,U2,7,A0*%
%TO.N,GND2*%
X127598800Y-74101200D03*
%TO.P,U2,6,A1*%
X127598800Y-74751202D03*
%TO.P,U2,5,A2*%
X127598800Y-75401200D03*
%TO.P,U2,4,GND*%
X124500000Y-75401200D03*
%TO.P,U2,3,OS*%
%TO.N,Net-(J1-Pin_4)*%
X124500000Y-74751202D03*
%TO.P,U2,2,SCL*%
%TO.N,Net-(J1-Pin_3)*%
X124500000Y-74101200D03*
%TO.P,U2,1,SDA*%
%TO.N,Net-(J1-Pin_2)*%
X124500000Y-73451202D03*
%TD*%
D13*
%TO.P,J1,1,Pin_1*%
%TO.N,+3V32*%
X120440000Y-69117601D03*
D14*
%TO.P,J1,2,Pin_2*%
%TO.N,Net-(J1-Pin_2)*%
X120440000Y-71657601D03*
%TO.P,J1,3,Pin_3*%
%TO.N,Net-(J1-Pin_3)*%
X120440000Y-74197601D03*
%TO.P,J1,4,Pin_4*%
%TO.N,Net-(J1-Pin_4)*%
X120440000Y-76737601D03*
%TO.P,J1,5,Pin_5*%
%TO.N,GND2*%
X120440000Y-79277601D03*
%TD*%
D10*
%TO.P,4.7K_R,1*%
%TO.N,+3V3*%
X92000000Y-74000000D03*
%TO.P,4.7K_R,2*%
%TO.N,Net-(J3-Pin_4)*%
X92000000Y-76000000D03*
%TD*%
D15*
%TO.P,.1UF_C,1*%
%TO.N,+3V3*%
X109962500Y-71962500D03*
%TO.P,.1UF_C,2*%
%TO.N,GND*%
X109962500Y-74037500D03*
%TD*%
D13*
%TO.P,J3,1,Pin_1*%
%TO.N,+3V3*%
X96500000Y-68840000D03*
D14*
%TO.P,J3,2,Pin_2*%
%TO.N,Net-(J3-Pin_2)*%
X96500000Y-71380000D03*
%TO.P,J3,3,Pin_3*%
%TO.N,Net-(J3-Pin_3)*%
X96500000Y-73920000D03*
%TO.P,J3,4,Pin_4*%
%TO.N,Net-(J3-Pin_4)*%
X96500000Y-76460000D03*
%TO.P,J3,5,Pin_5*%
%TO.N,GND*%
X96500000Y-79000000D03*
%TD*%
D12*
%TO.P,U1,1,SDA*%
%TO.N,Net-(J3-Pin_2)*%
X103901200Y-73500000D03*
%TO.P,U1,2,SCL*%
%TO.N,Net-(J3-Pin_3)*%
X103901200Y-74149998D03*
%TO.P,U1,3,OS*%
%TO.N,Net-(J3-Pin_4)*%
X103901200Y-74800000D03*
%TO.P,U1,4,GND*%
%TO.N,GND*%
X103901200Y-75449998D03*
%TO.P,U1,5,A2*%
X107000000Y-75449998D03*
%TO.P,U1,6,A1*%
X107000000Y-74800000D03*
%TO.P,U1,7,A0*%
X107000000Y-74149998D03*
%TO.P,U1,8,VDD*%
%TO.N,+3V3*%
X107000000Y-73500000D03*
D11*
%TO.P,U1,9,EPAD*%
%TO.N,GND*%
X105450600Y-74474999D03*
%TD*%
D16*
%TO.N,GND2*%
X129098800Y-73901200D02*
X129098800Y-74901200D01*
X127598800Y-74101200D02*
X128898800Y-74101200D01*
X128898800Y-74101200D02*
X129098800Y-73901200D01*
X129098800Y-74901200D02*
X127748798Y-74901200D01*
X127748798Y-74901200D02*
X127598800Y-74751202D01*
%TO.N,+3V32*%
X127598800Y-70401200D02*
X126098800Y-68901200D01*
X127598800Y-73451202D02*
X127598800Y-70401200D01*
X126098800Y-68901200D02*
X125882399Y-69117601D01*
X125882399Y-69117601D02*
X120440000Y-69117601D01*
%TO.N,GND2*%
X127598800Y-74101200D02*
X126374401Y-74101200D01*
X126374401Y-74101200D02*
X126049400Y-74426201D01*
X127598800Y-75401200D02*
X127598800Y-74101200D01*
X124500000Y-76401200D02*
X124500000Y-77500000D01*
X124500000Y-75975601D02*
X126049400Y-74426201D01*
X124500000Y-76401200D02*
X124500000Y-75975601D01*
X124500000Y-77500000D02*
X122598800Y-79401200D01*
X122598800Y-79401200D02*
X122475201Y-79277601D01*
X124500000Y-75401200D02*
X124500000Y-76401200D01*
X122475201Y-79277601D02*
X120440000Y-79277601D01*
%TO.N,Net-(J1-Pin_4)*%
X122098800Y-76401200D02*
X122098800Y-76901200D01*
X123748798Y-74751202D02*
X122098800Y-76401200D01*
X122098800Y-76901200D02*
X120603599Y-76901200D01*
X120603599Y-76901200D02*
X120440000Y-76737601D01*
X124500000Y-74751202D02*
X123748798Y-74751202D01*
%TO.N,Net-(J1-Pin_3)*%
X124500000Y-74101200D02*
X123898800Y-74101200D01*
X123898800Y-74101200D02*
X123802399Y-74197601D01*
X123802399Y-74197601D02*
X120440000Y-74197601D01*
%TO.N,Net-(J1-Pin_2)*%
X124500000Y-73451202D02*
X124500000Y-72302400D01*
X124500000Y-72302400D02*
X123855201Y-71657601D01*
X123855201Y-71657601D02*
X120440000Y-71657601D01*
%TO.N,Net-(J3-Pin_2)*%
X101500000Y-70500000D02*
X103901200Y-72901200D01*
X103901200Y-72901200D02*
X103901200Y-73500000D01*
X96500000Y-71380000D02*
X97380000Y-70500000D01*
X97380000Y-70500000D02*
X101500000Y-70500000D01*
%TO.N,+3V3*%
X101500000Y-68500000D02*
X96840000Y-68500000D01*
X96840000Y-68500000D02*
X96500000Y-68840000D01*
X108500000Y-68500000D02*
X110000000Y-70000000D01*
X101500000Y-68500000D02*
X108500000Y-68500000D01*
X110000000Y-70000000D02*
X109962500Y-70037500D01*
X109962500Y-70037500D02*
X109962500Y-71962500D01*
%TO.N,Net-(J3-Pin_3)*%
X102149998Y-74149998D02*
X101920000Y-73920000D01*
X101920000Y-73920000D02*
X96500000Y-73920000D01*
%TO.N,+3V3*%
X90500000Y-72500000D02*
X90500000Y-70000000D01*
X90500000Y-70000000D02*
X91000000Y-69500000D01*
X92000000Y-74000000D02*
X90500000Y-72500000D01*
X91000000Y-69500000D02*
X92500000Y-69500000D01*
%TO.N,Net-(J3-Pin_4)*%
X92000000Y-76000000D02*
X96040000Y-76000000D01*
X96040000Y-76000000D02*
X96500000Y-76460000D01*
%TO.N,Net-(J3-Pin_3)*%
X92500000Y-71500000D02*
X94080000Y-71500000D01*
X94080000Y-71500000D02*
X96500000Y-73920000D01*
%TO.N,+3V3*%
X92500000Y-69500000D02*
X93160000Y-68840000D01*
X93160000Y-68840000D02*
X96500000Y-68840000D01*
%TO.N,Net-(J3-Pin_4)*%
X103252500Y-74800000D02*
X101682500Y-76370000D01*
X101500000Y-78000000D02*
X98000000Y-78000000D01*
X98000000Y-78000000D02*
X98000000Y-77960000D01*
X101682500Y-76370000D02*
X101682500Y-77817500D01*
X101682500Y-77817500D02*
X101500000Y-78000000D01*
X98000000Y-77960000D02*
X96500000Y-76460000D01*
D17*
%TO.N,GND*%
X105450600Y-77049400D02*
X103500000Y-79000000D01*
X103500000Y-79000000D02*
X96500000Y-79000000D01*
X105450600Y-74474999D02*
X105450600Y-77049400D01*
D16*
%TO.N,Net-(J3-Pin_4)*%
X103901200Y-74800000D02*
X103252500Y-74800000D01*
%TO.N,Net-(J3-Pin_3)*%
X103901200Y-74149998D02*
X102149998Y-74149998D01*
D18*
%TO.N,GND*%
X107000000Y-74149998D02*
X107000000Y-75449998D01*
D17*
X107000000Y-75449998D02*
X106425599Y-75449998D01*
X106425599Y-75449998D02*
X105450600Y-74474999D01*
X103901200Y-75449998D02*
X104475601Y-75449998D01*
X104475601Y-75449998D02*
X105450600Y-74474999D01*
%TO.N,+3V3*%
X107000000Y-73500000D02*
X108500000Y-73500000D01*
X108500000Y-73500000D02*
X108500000Y-72000000D01*
X108500000Y-72000000D02*
X108537500Y-71962500D01*
X108537500Y-71962500D02*
X109962500Y-71962500D01*
%TO.N,GND*%
X107000000Y-74149998D02*
X109850002Y-74149998D01*
X109850002Y-74149998D02*
X109962500Y-74037500D01*
%TD*%
%TA.AperFunction,Conductor*%
%TO.N,GND2*%
G36*
X129541339Y-66921385D02*
G01*
X129587094Y-66974189D01*
X129598300Y-67025700D01*
X129598300Y-81776700D01*
X129578615Y-81843739D01*
X129525811Y-81889494D01*
X129474300Y-81900700D01*
X118223300Y-81900700D01*
X118156261Y-81881015D01*
X118110506Y-81828211D01*
X118099300Y-81776700D01*
X118099300Y-68219736D01*
X119089500Y-68219736D01*
X119089500Y-70015471D01*
X119089501Y-70015477D01*
X119095908Y-70075084D01*
X119146202Y-70209929D01*
X119146206Y-70209936D01*
X119232452Y-70325145D01*
X119232455Y-70325148D01*
X119347664Y-70411394D01*
X119347671Y-70411398D01*
X119479082Y-70460411D01*
X119535016Y-70502282D01*
X119559433Y-70567746D01*
X119544582Y-70636019D01*
X119523431Y-70664274D01*
X119409889Y-70777816D01*
X119284951Y-70949780D01*
X119188444Y-71139186D01*
X119122753Y-71341361D01*
X119089500Y-71551314D01*
X119089500Y-71763887D01*
X119122753Y-71973840D01*
X119188444Y-72176015D01*
X119284951Y-72365421D01*
X119409890Y-72537387D01*
X119560213Y-72687710D01*
X119732182Y-72812651D01*
X119740946Y-72817117D01*
X119791742Y-72865092D01*
X119808536Y-72932913D01*
X119785998Y-72999048D01*
X119740946Y-73038085D01*
X119732182Y-73042550D01*
X119560213Y-73167491D01*
X119409890Y-73317814D01*
X119284951Y-73489780D01*
X119188444Y-73679186D01*
X119122753Y-73881361D01*
X119089500Y-74091314D01*
X119089500Y-74303887D01*
X119119203Y-74491429D01*
X119122754Y-74513844D01*
X119134818Y-74550974D01*
X119188444Y-74716015D01*
X119284951Y-74905421D01*
X119409890Y-75077387D01*
X119560213Y-75227710D01*
X119732182Y-75352651D01*
X119740946Y-75357117D01*
X119791742Y-75405092D01*
X119808536Y-75472913D01*
X119785998Y-75539048D01*
X119740946Y-75578085D01*
X119732182Y-75582550D01*
X119560213Y-75707491D01*
X119409890Y-75857814D01*
X119284951Y-76029780D01*
X119188444Y-76219186D01*
X119122753Y-76421361D01*
X119089500Y-76631314D01*
X119089500Y-76843887D01*
X119122753Y-77053840D01*
X119188444Y-77256015D01*
X119284951Y-77445421D01*
X119409890Y-77617387D01*
X119560213Y-77767710D01*
X119732179Y-77892649D01*
X119732181Y-77892650D01*
X119732184Y-77892652D01*
X119741493Y-77897395D01*
X119792290Y-77945367D01*
X119809087Y-78013188D01*
X119786552Y-78079323D01*
X119741505Y-78118361D01*
X119732446Y-78122977D01*
X119732440Y-78122981D01*
X119678282Y-78162328D01*
X119678282Y-78162329D01*
X120310591Y-78794638D01*
X120247007Y-78811676D01*
X120132993Y-78877502D01*
X120039901Y-78970594D01*
X119974075Y-79084608D01*
X119957037Y-79148192D01*
X119324728Y-78515883D01*
X119324727Y-78515883D01*
X119285380Y-78570040D01*
X119188904Y-78759383D01*
X119123242Y-78961470D01*
X119123242Y-78961473D01*
X119090000Y-79171354D01*
X119090000Y-79383847D01*
X119123242Y-79593728D01*
X119123242Y-79593731D01*
X119188904Y-79795818D01*
X119285375Y-79985151D01*
X119324728Y-80039317D01*
X119957036Y-79407008D01*
X119974075Y-79470594D01*
X120039901Y-79584608D01*
X120132993Y-79677700D01*
X120247007Y-79743526D01*
X120310590Y-79760563D01*
X119678282Y-80392870D01*
X119678282Y-80392871D01*
X119732449Y-80432225D01*
X119921782Y-80528696D01*
X120123870Y-80594358D01*
X120333754Y-80627601D01*
X120546246Y-80627601D01*
X120756127Y-80594358D01*
X120756130Y-80594358D01*
X120958217Y-80528696D01*
X121147554Y-80432223D01*
X121201716Y-80392871D01*
X121201717Y-80392871D01*
X120569408Y-79760563D01*
X120632993Y-79743526D01*
X120747007Y-79677700D01*
X120840099Y-79584608D01*
X120905925Y-79470594D01*
X120922962Y-79407009D01*
X121555270Y-80039318D01*
X121555270Y-80039317D01*
X121594622Y-79985155D01*
X121691095Y-79795818D01*
X121756757Y-79593731D01*
X121756757Y-79593728D01*
X121790000Y-79383847D01*
X121790000Y-79171354D01*
X121756757Y-78961473D01*
X121756757Y-78961470D01*
X121691095Y-78759383D01*
X121594624Y-78570050D01*
X121555270Y-78515883D01*
X121555269Y-78515883D01*
X120922962Y-79148191D01*
X120905925Y-79084608D01*
X120840099Y-78970594D01*
X120747007Y-78877502D01*
X120632993Y-78811676D01*
X120569409Y-78794638D01*
X121201716Y-78162329D01*
X121147547Y-78122974D01*
X121147547Y-78122973D01*
X121138500Y-78118364D01*
X121087706Y-78070389D01*
X121070912Y-78002567D01*
X121093451Y-77936433D01*
X121138508Y-77897394D01*
X121147816Y-77892652D01*
X121227007Y-77835116D01*
X121319786Y-77767710D01*
X121319788Y-77767707D01*
X121319792Y-77767705D01*
X121470104Y-77617393D01*
X121480696Y-77602813D01*
X121536026Y-77560149D01*
X121581014Y-77551700D01*
X122162871Y-77551700D01*
X122247415Y-77534882D01*
X122288544Y-77526701D01*
X122406927Y-77477665D01*
X122513469Y-77406476D01*
X122604076Y-77315869D01*
X122675265Y-77209327D01*
X122724301Y-77090944D01*
X122749300Y-76965269D01*
X122749300Y-76722007D01*
X122768985Y-76654968D01*
X122785614Y-76634331D01*
X123537935Y-75882010D01*
X123599254Y-75848528D01*
X123668945Y-75853512D01*
X123724879Y-75895384D01*
X123736411Y-75910789D01*
X123736412Y-75910790D01*
X123851506Y-75996950D01*
X123851513Y-75996954D01*
X123986220Y-76047196D01*
X123986227Y-76047198D01*
X124045755Y-76053599D01*
X124045772Y-76053600D01*
X124347600Y-76053600D01*
X124347600Y-75528101D01*
X124350150Y-75519415D01*
X124348862Y-75510454D01*
X124359840Y-75486413D01*
X124367285Y-75461062D01*
X124374125Y-75455134D01*
X124377887Y-75446898D01*
X124400121Y-75432608D01*
X124420089Y-75415307D01*
X124430603Y-75413019D01*
X124436665Y-75409124D01*
X124471596Y-75404101D01*
X124528401Y-75404101D01*
X124595439Y-75423786D01*
X124641194Y-75476590D01*
X124652400Y-75528101D01*
X124652400Y-76053600D01*
X124957549Y-76053600D01*
X124957549Y-76054603D01*
X125001877Y-76061364D01*
X125141923Y-76113598D01*
X125141927Y-76113599D01*
X125201455Y-76120000D01*
X125201472Y-76120001D01*
X125799400Y-76120001D01*
X125799400Y-72732401D01*
X125274500Y-72732401D01*
X125207461Y-72712716D01*
X125161706Y-72659912D01*
X125150500Y-72608401D01*
X125150500Y-72238328D01*
X125125502Y-72112661D01*
X125125501Y-72112660D01*
X125125501Y-72112656D01*
X125076465Y-71994273D01*
X125046506Y-71949436D01*
X125046506Y-71949435D01*
X125005277Y-71887731D01*
X125005271Y-71887724D01*
X124269874Y-71152327D01*
X124269870Y-71152324D01*
X124163328Y-71081136D01*
X124044945Y-71032100D01*
X124044939Y-71032098D01*
X123919272Y-71007101D01*
X123919270Y-71007101D01*
X121699618Y-71007101D01*
X121632579Y-70987416D01*
X121598900Y-70953009D01*
X121597915Y-70953726D01*
X121470109Y-70777814D01*
X121356569Y-70664274D01*
X121323084Y-70602951D01*
X121328068Y-70533259D01*
X121369940Y-70477326D01*
X121400915Y-70460411D01*
X121532331Y-70411397D01*
X121647546Y-70325147D01*
X121733796Y-70209932D01*
X121784091Y-70075084D01*
X121790500Y-70015474D01*
X121790500Y-69892101D01*
X121810185Y-69825062D01*
X121862989Y-69779307D01*
X121914500Y-69768101D01*
X125946467Y-69768101D01*
X125946468Y-69768101D01*
X125964271Y-69764559D01*
X126033860Y-69770782D01*
X126076148Y-69798494D01*
X126911981Y-70634327D01*
X126945466Y-70695650D01*
X126948300Y-70722008D01*
X126948300Y-72608401D01*
X126928615Y-72675440D01*
X126875811Y-72721195D01*
X126824300Y-72732401D01*
X126299400Y-72732401D01*
X126299400Y-76120001D01*
X126897328Y-76120001D01*
X126897344Y-76120000D01*
X126956872Y-76113599D01*
X126956876Y-76113598D01*
X127096921Y-76061364D01*
X127141251Y-76054600D01*
X127141251Y-76053600D01*
X127446400Y-76053600D01*
X127751200Y-76053600D01*
X128053028Y-76053600D01*
X128053044Y-76053599D01*
X128112572Y-76047198D01*
X128112579Y-76047196D01*
X128247286Y-75996954D01*
X128247293Y-75996950D01*
X128362387Y-75910790D01*
X128362390Y-75910787D01*
X128448550Y-75795693D01*
X128448554Y-75795686D01*
X128498796Y-75660979D01*
X128498798Y-75660972D01*
X128505199Y-75601444D01*
X128505200Y-75601427D01*
X128505200Y-75553600D01*
X127751200Y-75553600D01*
X127751200Y-76053600D01*
X127446400Y-76053600D01*
X127446400Y-75248800D01*
X127751200Y-75248800D01*
X128505200Y-75248800D01*
X128505200Y-75200972D01*
X128505199Y-75200955D01*
X128498797Y-75141422D01*
X128498797Y-75141420D01*
X128490635Y-75119538D01*
X128485648Y-75049847D01*
X128490635Y-75032864D01*
X128498797Y-75010981D01*
X128498797Y-75010979D01*
X128505199Y-74951446D01*
X128505200Y-74951429D01*
X128505200Y-74903602D01*
X127751200Y-74903602D01*
X127751200Y-75248800D01*
X127446400Y-75248800D01*
X127446400Y-74228101D01*
X127466085Y-74161062D01*
X127518889Y-74115307D01*
X127570397Y-74104101D01*
X127627201Y-74104101D01*
X127694239Y-74123786D01*
X127739994Y-74176590D01*
X127751200Y-74228101D01*
X127751200Y-74598802D01*
X128505200Y-74598802D01*
X128505200Y-74550974D01*
X128505199Y-74550957D01*
X128498798Y-74491429D01*
X128498797Y-74491423D01*
X128490633Y-74469535D01*
X128485648Y-74399844D01*
X128490633Y-74382867D01*
X128498797Y-74360978D01*
X128498798Y-74360972D01*
X128505199Y-74301444D01*
X128505200Y-74301427D01*
X128505200Y-74253600D01*
X128344638Y-74253600D01*
X128315200Y-74244956D01*
X128285212Y-74238433D01*
X128281980Y-74235201D01*
X128277599Y-74233915D01*
X128257509Y-74210730D01*
X128235807Y-74189028D01*
X128234835Y-74184563D01*
X128231844Y-74181111D01*
X128227476Y-74150736D01*
X128220954Y-74120755D01*
X128222550Y-74116475D01*
X128221900Y-74111953D01*
X128234648Y-74084038D01*
X128245370Y-74055291D01*
X128249799Y-74050861D01*
X128250925Y-74048397D01*
X128270326Y-74030334D01*
X128346200Y-73973534D01*
X128411664Y-73949116D01*
X128420512Y-73948800D01*
X128505200Y-73948800D01*
X128505200Y-73900972D01*
X128505199Y-73900955D01*
X128498798Y-73841427D01*
X128498797Y-73841424D01*
X128490900Y-73820250D01*
X128485915Y-73750558D01*
X128490893Y-73733598D01*
X128499291Y-73711085D01*
X128505700Y-73651475D01*
X128505699Y-73250930D01*
X128499291Y-73191319D01*
X128448996Y-73056471D01*
X128448995Y-73056470D01*
X128448993Y-73056466D01*
X128362748Y-72941259D01*
X128362746Y-72941256D01*
X128362742Y-72941253D01*
X128362739Y-72941250D01*
X128298989Y-72893526D01*
X128257118Y-72837592D01*
X128249300Y-72794260D01*
X128249300Y-70337128D01*
X128224302Y-70211461D01*
X128224301Y-70211460D01*
X128224301Y-70211456D01*
X128175265Y-70093073D01*
X128163245Y-70075084D01*
X128104076Y-69986530D01*
X128104074Y-69986528D01*
X128104072Y-69986525D01*
X126513473Y-68395926D01*
X126513469Y-68395923D01*
X126406927Y-68324735D01*
X126288544Y-68275699D01*
X126288536Y-68275697D01*
X126162873Y-68250701D01*
X126162869Y-68250701D01*
X126034731Y-68250701D01*
X126034726Y-68250701D01*
X125909063Y-68275697D01*
X125909055Y-68275699D01*
X125790674Y-68324734D01*
X125684126Y-68395926D01*
X125649273Y-68430781D01*
X125587951Y-68464267D01*
X125561591Y-68467101D01*
X121914499Y-68467101D01*
X121847460Y-68447416D01*
X121801705Y-68394612D01*
X121790499Y-68343101D01*
X121790499Y-68219730D01*
X121790498Y-68219724D01*
X121790497Y-68219717D01*
X121784091Y-68160118D01*
X121733796Y-68025270D01*
X121733795Y-68025269D01*
X121733793Y-68025265D01*
X121647547Y-67910056D01*
X121647544Y-67910053D01*
X121532335Y-67823807D01*
X121532328Y-67823803D01*
X121397482Y-67773509D01*
X121397483Y-67773509D01*
X121337883Y-67767102D01*
X121337881Y-67767101D01*
X121337873Y-67767101D01*
X121337864Y-67767101D01*
X119542129Y-67767101D01*
X119542123Y-67767102D01*
X119482516Y-67773509D01*
X119347671Y-67823803D01*
X119347664Y-67823807D01*
X119232455Y-67910053D01*
X119232452Y-67910056D01*
X119146206Y-68025265D01*
X119146202Y-68025272D01*
X119095908Y-68160118D01*
X119089501Y-68219717D01*
X119089501Y-68219724D01*
X119089500Y-68219736D01*
X118099300Y-68219736D01*
X118099300Y-67025700D01*
X118118985Y-66958661D01*
X118171789Y-66912906D01*
X118223300Y-66901700D01*
X129474300Y-66901700D01*
X129541339Y-66921385D01*
G37*
%TD.AperFunction*%
%TD*%
%TA.AperFunction,Conductor*%
%TO.N,GND*%
G36*
X111442539Y-66520185D02*
G01*
X111488294Y-66572989D01*
X111499500Y-66624500D01*
X111499500Y-82875500D01*
X111479815Y-82942539D01*
X111427011Y-82988294D01*
X111375500Y-82999500D01*
X90124500Y-82999500D01*
X90057461Y-82979815D01*
X90011706Y-82927011D01*
X90000500Y-82875500D01*
X90000500Y-73219808D01*
X90020185Y-73152769D01*
X90072989Y-73107014D01*
X90142147Y-73097070D01*
X90205703Y-73126095D01*
X90212181Y-73132127D01*
X90763181Y-73683127D01*
X90796666Y-73744450D01*
X90799500Y-73770808D01*
X90799500Y-74400001D01*
X90799501Y-74400019D01*
X90810000Y-74502796D01*
X90810001Y-74502799D01*
X90857984Y-74647600D01*
X90865186Y-74669334D01*
X90946089Y-74800498D01*
X90957289Y-74818657D01*
X91050951Y-74912319D01*
X91084436Y-74973642D01*
X91079452Y-75043334D01*
X91050951Y-75087681D01*
X90957289Y-75181342D01*
X90865187Y-75330663D01*
X90865185Y-75330668D01*
X90858947Y-75349494D01*
X90810001Y-75497203D01*
X90810001Y-75497204D01*
X90810000Y-75497204D01*
X90799500Y-75599983D01*
X90799500Y-76400001D01*
X90799501Y-76400019D01*
X90810000Y-76502796D01*
X90810001Y-76502799D01*
X90865185Y-76669331D01*
X90865187Y-76669336D01*
X90889901Y-76709403D01*
X90957288Y-76818656D01*
X91081344Y-76942712D01*
X91230666Y-77034814D01*
X91397203Y-77089999D01*
X91499991Y-77100500D01*
X92500008Y-77100499D01*
X92500016Y-77100498D01*
X92500019Y-77100498D01*
X92556302Y-77094748D01*
X92602797Y-77089999D01*
X92769334Y-77034814D01*
X92918656Y-76942712D01*
X93042712Y-76818656D01*
X93110099Y-76709402D01*
X93162047Y-76662679D01*
X93215638Y-76650500D01*
X95056932Y-76650500D01*
X95123971Y-76670185D01*
X95169726Y-76722989D01*
X95179405Y-76755100D01*
X95182753Y-76776241D01*
X95184379Y-76781245D01*
X95236843Y-76942712D01*
X95248444Y-76978414D01*
X95344951Y-77167820D01*
X95469890Y-77339786D01*
X95620213Y-77490109D01*
X95792179Y-77615048D01*
X95792181Y-77615049D01*
X95792184Y-77615051D01*
X95801493Y-77619794D01*
X95852290Y-77667766D01*
X95869087Y-77735587D01*
X95846552Y-77801722D01*
X95801505Y-77840760D01*
X95792446Y-77845376D01*
X95792440Y-77845380D01*
X95738282Y-77884727D01*
X95738282Y-77884728D01*
X96370591Y-78517037D01*
X96307007Y-78534075D01*
X96192993Y-78599901D01*
X96099901Y-78692993D01*
X96034075Y-78807007D01*
X96017037Y-78870591D01*
X95384728Y-78238282D01*
X95384727Y-78238282D01*
X95345380Y-78292439D01*
X95248904Y-78481782D01*
X95183242Y-78683869D01*
X95183242Y-78683872D01*
X95150000Y-78893753D01*
X95150000Y-79106246D01*
X95183242Y-79316127D01*
X95183242Y-79316130D01*
X95248904Y-79518217D01*
X95345375Y-79707550D01*
X95384728Y-79761716D01*
X96017037Y-79129408D01*
X96034075Y-79192993D01*
X96099901Y-79307007D01*
X96192993Y-79400099D01*
X96307007Y-79465925D01*
X96370590Y-79482962D01*
X95738282Y-80115269D01*
X95738282Y-80115270D01*
X95792449Y-80154624D01*
X95981782Y-80251095D01*
X96183870Y-80316757D01*
X96393754Y-80350000D01*
X96606246Y-80350000D01*
X96816127Y-80316757D01*
X96816130Y-80316757D01*
X97018217Y-80251095D01*
X97207554Y-80154622D01*
X97261716Y-80115270D01*
X97261717Y-80115270D01*
X96629408Y-79482962D01*
X96692993Y-79465925D01*
X96807007Y-79400099D01*
X96900099Y-79307007D01*
X96965925Y-79192993D01*
X96982962Y-79129408D01*
X97615270Y-79761717D01*
X97615270Y-79761716D01*
X97654622Y-79707554D01*
X97751095Y-79518217D01*
X97816757Y-79316130D01*
X97816757Y-79316127D01*
X97850000Y-79106246D01*
X97850000Y-78893754D01*
X97834184Y-78793898D01*
X97843138Y-78724605D01*
X97888134Y-78671153D01*
X97954886Y-78650513D01*
X97956657Y-78650500D01*
X101564071Y-78650500D01*
X101648615Y-78633682D01*
X101689744Y-78625501D01*
X101808127Y-78576465D01*
X101914669Y-78505277D01*
X102187777Y-78232169D01*
X102258965Y-78125627D01*
X102308001Y-78007244D01*
X102322186Y-77935931D01*
X102333000Y-77881569D01*
X102333000Y-76690807D01*
X102352685Y-76623768D01*
X102369314Y-76603130D01*
X102990294Y-75982151D01*
X103051612Y-75948669D01*
X103121303Y-75953653D01*
X103152282Y-75970569D01*
X103252710Y-76045750D01*
X103252713Y-76045752D01*
X103387420Y-76095994D01*
X103387427Y-76095996D01*
X103446955Y-76102397D01*
X103446972Y-76102398D01*
X103748800Y-76102398D01*
X103748800Y-75576899D01*
X103751350Y-75568213D01*
X103750062Y-75559252D01*
X103761040Y-75535211D01*
X103768485Y-75509860D01*
X103775325Y-75503932D01*
X103779087Y-75495696D01*
X103801321Y-75481406D01*
X103821289Y-75464105D01*
X103831803Y-75461817D01*
X103837865Y-75457922D01*
X103872800Y-75452899D01*
X103929600Y-75452899D01*
X103996639Y-75472584D01*
X104042394Y-75525388D01*
X104053600Y-75576899D01*
X104053600Y-76102398D01*
X104358749Y-76102398D01*
X104358749Y-76103401D01*
X104403077Y-76110162D01*
X104543123Y-76162396D01*
X104543127Y-76162397D01*
X104602655Y-76168798D01*
X104602672Y-76168799D01*
X105200600Y-76168799D01*
X105200600Y-72781199D01*
X104638443Y-72781199D01*
X104619261Y-72775566D01*
X104599283Y-72774853D01*
X104586422Y-72765924D01*
X104571404Y-72761514D01*
X104558314Y-72746408D01*
X104541891Y-72735005D01*
X104527682Y-72711056D01*
X104525649Y-72708710D01*
X104523882Y-72704651D01*
X104485919Y-72612999D01*
X104485918Y-72612998D01*
X104477665Y-72593072D01*
X104477662Y-72593067D01*
X104406478Y-72486532D01*
X104406472Y-72486525D01*
X102736818Y-70816871D01*
X102703333Y-70755548D01*
X102700499Y-70729190D01*
X102700499Y-70099998D01*
X102700498Y-70099981D01*
X102689999Y-69997203D01*
X102689998Y-69997200D01*
X102668504Y-69932335D01*
X102634814Y-69830666D01*
X102542712Y-69681344D01*
X102449049Y-69587681D01*
X102415564Y-69526358D01*
X102420548Y-69456666D01*
X102449049Y-69412319D01*
X102493496Y-69367872D01*
X102542712Y-69318656D01*
X102610099Y-69209402D01*
X102662047Y-69162679D01*
X102715638Y-69150500D01*
X108179192Y-69150500D01*
X108246231Y-69170185D01*
X108266873Y-69186819D01*
X109275681Y-70195627D01*
X109309166Y-70256950D01*
X109312000Y-70283308D01*
X109312000Y-70802983D01*
X109292315Y-70870022D01*
X109239511Y-70915777D01*
X109227010Y-70920686D01*
X109168166Y-70940186D01*
X109168163Y-70940187D01*
X109018842Y-71032289D01*
X108894789Y-71156342D01*
X108894788Y-71156344D01*
X108821910Y-71274500D01*
X108804271Y-71303097D01*
X108796683Y-71309921D01*
X108792445Y-71319203D01*
X108771145Y-71332891D01*
X108752323Y-71349821D01*
X108740687Y-71352465D01*
X108733667Y-71356977D01*
X108698732Y-71362000D01*
X108624169Y-71362000D01*
X108624153Y-71361999D01*
X108616557Y-71361999D01*
X108458443Y-71361999D01*
X108351087Y-71390765D01*
X108305710Y-71402924D01*
X108305709Y-71402925D01*
X108255596Y-71431859D01*
X108255595Y-71431860D01*
X108236799Y-71442712D01*
X108168785Y-71481979D01*
X108168782Y-71481981D01*
X108019481Y-71631282D01*
X108019480Y-71631284D01*
X107981979Y-71696239D01*
X107969361Y-71718094D01*
X107969359Y-71718096D01*
X107940425Y-71768209D01*
X107940424Y-71768210D01*
X107940423Y-71768215D01*
X107899499Y-71920943D01*
X107899499Y-71920945D01*
X107899499Y-72089046D01*
X107899500Y-72089059D01*
X107899500Y-72775500D01*
X107896949Y-72784185D01*
X107898238Y-72793147D01*
X107887259Y-72817187D01*
X107879815Y-72842539D01*
X107872974Y-72848466D01*
X107869213Y-72856703D01*
X107846978Y-72870992D01*
X107827011Y-72888294D01*
X107816496Y-72890581D01*
X107810435Y-72894477D01*
X107775500Y-72899500D01*
X107659563Y-72899500D01*
X107616230Y-72891682D01*
X107513882Y-72853508D01*
X107513883Y-72853508D01*
X107454283Y-72847101D01*
X107454281Y-72847100D01*
X107454273Y-72847100D01*
X107454264Y-72847100D01*
X106542408Y-72847101D01*
X106542408Y-72846357D01*
X106496948Y-72839396D01*
X106358080Y-72787602D01*
X106358072Y-72787600D01*
X106298544Y-72781199D01*
X105700600Y-72781199D01*
X105700600Y-76168799D01*
X106298528Y-76168799D01*
X106298544Y-76168798D01*
X106358072Y-76162397D01*
X106358076Y-76162396D01*
X106498121Y-76110162D01*
X106542451Y-76103398D01*
X106542451Y-76102398D01*
X106847600Y-76102398D01*
X107152400Y-76102398D01*
X107454228Y-76102398D01*
X107454244Y-76102397D01*
X107513772Y-76095996D01*
X107513779Y-76095994D01*
X107648486Y-76045752D01*
X107648493Y-76045748D01*
X107763587Y-75959588D01*
X107763590Y-75959585D01*
X107849750Y-75844491D01*
X107849754Y-75844484D01*
X107899996Y-75709777D01*
X107899998Y-75709770D01*
X107906399Y-75650242D01*
X107906400Y-75650225D01*
X107906400Y-75602398D01*
X107152400Y-75602398D01*
X107152400Y-76102398D01*
X106847600Y-76102398D01*
X106847600Y-75297598D01*
X107152400Y-75297598D01*
X107906400Y-75297598D01*
X107906400Y-75249770D01*
X107906399Y-75249753D01*
X107899997Y-75190220D01*
X107899997Y-75190218D01*
X107891835Y-75168336D01*
X107886848Y-75098645D01*
X107891835Y-75081662D01*
X107899997Y-75059779D01*
X107899997Y-75059777D01*
X107906399Y-75000244D01*
X107906400Y-75000227D01*
X107906400Y-74952400D01*
X107152400Y-74952400D01*
X107152400Y-75297598D01*
X106847600Y-75297598D01*
X106847600Y-74276899D01*
X106867285Y-74209860D01*
X106920089Y-74164105D01*
X106971597Y-74152899D01*
X107028401Y-74152899D01*
X107095439Y-74172584D01*
X107141194Y-74225388D01*
X107152400Y-74276899D01*
X107152400Y-74647600D01*
X107906400Y-74647600D01*
X107906400Y-74599772D01*
X107906399Y-74599755D01*
X107899998Y-74540227D01*
X107899997Y-74540221D01*
X107891833Y-74518333D01*
X107886848Y-74448642D01*
X107891833Y-74431665D01*
X107899997Y-74409776D01*
X107899998Y-74409770D01*
X107906399Y-74350242D01*
X107906400Y-74350225D01*
X107906400Y-74294264D01*
X107882698Y-74250858D01*
X107887682Y-74181166D01*
X107929554Y-74125233D01*
X107995018Y-74100816D01*
X108003864Y-74100500D01*
X108579053Y-74100500D01*
X108579057Y-74100500D01*
X108581400Y-74099872D01*
X108583453Y-74099920D01*
X108587113Y-74099439D01*
X108587188Y-74100009D01*
X108651246Y-74101529D01*
X108709112Y-74140686D01*
X108736622Y-74204912D01*
X108737500Y-74219643D01*
X108737500Y-74424970D01*
X108737501Y-74424987D01*
X108747994Y-74527697D01*
X108803141Y-74694119D01*
X108803143Y-74694124D01*
X108895184Y-74843345D01*
X109019154Y-74967315D01*
X109168375Y-75059356D01*
X109168380Y-75059358D01*
X109334802Y-75114505D01*
X109334809Y-75114506D01*
X109437519Y-75124999D01*
X109712499Y-75124999D01*
X110212500Y-75124999D01*
X110487472Y-75124999D01*
X110487486Y-75124998D01*
X110590197Y-75114505D01*
X110756619Y-75059358D01*
X110756624Y-75059356D01*
X110905845Y-74967315D01*
X111029815Y-74843345D01*
X111121856Y-74694124D01*
X111121858Y-74694119D01*
X111177005Y-74527697D01*
X111177006Y-74527690D01*
X111187499Y-74424986D01*
X111187500Y-74424973D01*
X111187500Y-74287500D01*
X110212500Y-74287500D01*
X110212500Y-75124999D01*
X109712499Y-75124999D01*
X109712500Y-75124998D01*
X109712500Y-74161500D01*
X109732185Y-74094461D01*
X109784989Y-74048706D01*
X109836500Y-74037500D01*
X109962500Y-74037500D01*
X109962500Y-73911500D01*
X109982185Y-73844461D01*
X110034989Y-73798706D01*
X110086500Y-73787500D01*
X111187499Y-73787500D01*
X111187499Y-73650028D01*
X111187498Y-73650013D01*
X111177005Y-73547302D01*
X111121858Y-73380880D01*
X111121856Y-73380875D01*
X111029815Y-73231654D01*
X110905844Y-73107683D01*
X110905841Y-73107681D01*
X110902839Y-73105829D01*
X110901213Y-73104021D01*
X110900177Y-73103202D01*
X110900317Y-73103024D01*
X110856117Y-73053880D01*
X110844897Y-72984917D01*
X110872743Y-72920836D01*
X110902844Y-72894754D01*
X110906156Y-72892712D01*
X111030212Y-72768656D01*
X111122314Y-72619334D01*
X111177499Y-72452797D01*
X111188000Y-72350009D01*
X111187999Y-71574992D01*
X111177499Y-71472203D01*
X111122314Y-71305666D01*
X111030212Y-71156344D01*
X110906156Y-71032288D01*
X110756834Y-70940186D01*
X110697993Y-70920688D01*
X110640551Y-70880916D01*
X110613728Y-70816400D01*
X110613000Y-70802983D01*
X110613000Y-70244588D01*
X110622440Y-70197133D01*
X110625501Y-70189744D01*
X110650499Y-70064069D01*
X110650499Y-69935931D01*
X110625501Y-69810256D01*
X110576465Y-69691873D01*
X110505277Y-69585331D01*
X110414669Y-69494723D01*
X109710543Y-68790597D01*
X108914674Y-67994727D01*
X108914673Y-67994726D01*
X108835952Y-67942127D01*
X108808127Y-67923535D01*
X108689744Y-67874499D01*
X108689738Y-67874497D01*
X108564071Y-67849500D01*
X108564069Y-67849500D01*
X102715638Y-67849500D01*
X102648599Y-67829815D01*
X102610099Y-67790597D01*
X102542712Y-67681344D01*
X102418656Y-67557288D01*
X102269334Y-67465186D01*
X102102797Y-67410001D01*
X102102795Y-67410000D01*
X102000010Y-67399500D01*
X100999998Y-67399500D01*
X100999980Y-67399501D01*
X100897203Y-67410000D01*
X100897200Y-67410001D01*
X100730668Y-67465185D01*
X100730663Y-67465187D01*
X100581342Y-67557289D01*
X100457289Y-67681342D01*
X100457288Y-67681344D01*
X100398281Y-67777011D01*
X100389901Y-67790597D01*
X100337953Y-67837321D01*
X100284362Y-67849500D01*
X97917872Y-67849500D01*
X97850833Y-67829815D01*
X97805078Y-67777011D01*
X97801690Y-67768833D01*
X97793797Y-67747671D01*
X97793793Y-67747664D01*
X97707547Y-67632455D01*
X97707544Y-67632452D01*
X97592335Y-67546206D01*
X97592328Y-67546202D01*
X97457482Y-67495908D01*
X97457483Y-67495908D01*
X97397883Y-67489501D01*
X97397881Y-67489500D01*
X97397873Y-67489500D01*
X97397864Y-67489500D01*
X95602129Y-67489500D01*
X95602123Y-67489501D01*
X95542516Y-67495908D01*
X95407671Y-67546202D01*
X95407664Y-67546206D01*
X95292455Y-67632452D01*
X95292452Y-67632455D01*
X95206206Y-67747664D01*
X95206202Y-67747671D01*
X95155908Y-67882517D01*
X95149501Y-67942116D01*
X95149500Y-67942135D01*
X95149500Y-68065500D01*
X95129815Y-68132539D01*
X95077011Y-68178294D01*
X95025500Y-68189500D01*
X93095929Y-68189500D01*
X92970261Y-68214497D01*
X92970255Y-68214499D01*
X92851874Y-68263534D01*
X92745331Y-68334723D01*
X92716869Y-68363184D01*
X92655544Y-68396667D01*
X92629190Y-68399500D01*
X91999998Y-68399500D01*
X91999980Y-68399501D01*
X91897203Y-68410000D01*
X91897200Y-68410001D01*
X91730668Y-68465185D01*
X91730663Y-68465187D01*
X91581342Y-68557289D01*
X91457289Y-68681342D01*
X91389901Y-68790597D01*
X91337953Y-68837321D01*
X91284362Y-68849500D01*
X90935929Y-68849500D01*
X90810261Y-68874497D01*
X90810255Y-68874499D01*
X90691874Y-68923534D01*
X90585326Y-68994726D01*
X90585325Y-68994727D01*
X90212181Y-69367872D01*
X90150858Y-69401357D01*
X90081166Y-69396373D01*
X90025233Y-69354501D01*
X90000816Y-69289037D01*
X90000500Y-69280191D01*
X90000500Y-66624500D01*
X90020185Y-66557461D01*
X90072989Y-66511706D01*
X90124500Y-66500500D01*
X111375500Y-66500500D01*
X111442539Y-66520185D01*
G37*
%TD.AperFunction*%
%TD*%
M02*
