%TF.GenerationSoftware,KiCad,Pcbnew,9.0.4*%
%TF.CreationDate,2026-04-29T10:12:37-04:00*%
%TF.ProjectId,_autosave-HypoV PCB,5f617574-6f73-4617-9665-2d4879706f56,rev?*%
%TF.SameCoordinates,Original*%
%TF.FileFunction,Soldermask,Top*%
%TF.FilePolarity,Negative*%
%FSLAX46Y46*%
G04 Gerber Fmt 4.6, Leading zero omitted, Abs format (unit mm)*
G04 Created by KiCad (PCBNEW 9.0.4) date 2026-04-29 10:12:37*
%MOMM*%
%LPD*%
G01*
G04 APERTURE LIST*
G04 Aperture macros list*
%AMRoundRect*
0 Rectangle with rounded corners*
0 $1 Rounding radius*
0 $2 $3 $4 $5 $6 $7 $8 $9 X,Y pos of 4 corners*
0 Add a 4 corners polygon primitive as box body*
4,1,4,$2,$3,$4,$5,$6,$7,$8,$9,$2,$3,0*
0 Add four circle primitives for the rounded corners*
1,1,$1+$1,$2,$3*
1,1,$1+$1,$4,$5*
1,1,$1+$1,$6,$7*
1,1,$1+$1,$8,$9*
0 Add four rect primitives between the rounded corners*
20,1,$1+$1,$2,$3,$4,$5,0*
20,1,$1+$1,$4,$5,$6,$7,0*
20,1,$1+$1,$6,$7,$8,$9,0*
20,1,$1+$1,$8,$9,$2,$3,0*%
G04 Aperture macros list end*
%ADD10C,1.800000*%
%ADD11R,1.800000X1.800000*%
%ADD12R,1.600000X1.200000*%
%ADD13RoundRect,0.102000X-0.750000X-1.150000X0.750000X-1.150000X0.750000X1.150000X-0.750000X1.150000X0*%
%ADD14RoundRect,0.065500X-0.416500X-0.196500X0.416500X-0.196500X0.416500X0.196500X-0.416500X0.196500X0*%
%ADD15R,1.200000X1.600000*%
%ADD16C,2.004000*%
%ADD17C,1.600000*%
%ADD18R,1.600000X3.000000*%
%ADD19R,1.200000X2.400000*%
%ADD20C,1.200000*%
%ADD21R,3.000000X3.000000*%
G04 APERTURE END LIST*
D10*
%TO.C,RED_LED1*%
X90000000Y-75770000D03*
D11*
X90000000Y-73230000D03*
%TD*%
D12*
%TO.C,PULLUP_4.7K_R3*%
X113000000Y-107500000D03*
X113000000Y-110500000D03*
%TD*%
D13*
%TO.C,TempSensor1*%
X120485000Y-105025000D03*
D14*
X121970000Y-104050000D03*
X121970000Y-104700000D03*
X121970000Y-105350000D03*
X121970000Y-106000000D03*
X119000000Y-106000000D03*
X119000000Y-105350000D03*
X119000000Y-104700000D03*
X119000000Y-104050000D03*
%TD*%
D15*
%TO.C,PULLUP_4.7K_R1*%
X114000000Y-100500000D03*
X117000000Y-100500000D03*
%TD*%
D12*
%TO.C,BYPASS_CAP_.1UF1*%
X126500000Y-104500000D03*
X126500000Y-101500000D03*
%TD*%
D15*
%TO.C,PULLUP_4.7K_R2*%
X107000000Y-104000000D03*
X110000000Y-104000000D03*
%TD*%
D11*
%TO.C,BLUE_LED1*%
X105000000Y-73230000D03*
D10*
X105000000Y-75770000D03*
%TD*%
D12*
%TO.C,R2*%
X104000000Y-79000000D03*
X104000000Y-82000000D03*
%TD*%
D16*
%TO.C,LittleGuy1*%
X121920000Y-82080000D03*
X116840000Y-79540000D03*
X127000000Y-79540000D03*
X116840000Y-77000000D03*
X127000000Y-77000000D03*
X116840000Y-74460000D03*
X127000000Y-74460000D03*
X121920000Y-71920000D03*
%TD*%
D17*
%TO.C,ESP32S3*%
X73500000Y-97500000D03*
D18*
X73500000Y-98500000D03*
D17*
X76040000Y-97500000D03*
D18*
X76040000Y-98500000D03*
D17*
X78580000Y-97500000D03*
D18*
X78580000Y-98500000D03*
D17*
X81120000Y-97500000D03*
D18*
X81120000Y-98500000D03*
D17*
X83660000Y-97500000D03*
D18*
X83660000Y-98500000D03*
D17*
X86200000Y-97500000D03*
D18*
X86200000Y-98500000D03*
D17*
X88740000Y-97500000D03*
D18*
X88740000Y-98500000D03*
D17*
X88740000Y-82265000D03*
D18*
X88740000Y-81265000D03*
D17*
X86200000Y-82265000D03*
D18*
X86200000Y-81265000D03*
D17*
X83660000Y-82265000D03*
D18*
X83660000Y-81265000D03*
D17*
X81120000Y-82265000D03*
D18*
X81120000Y-81265000D03*
D17*
X78580000Y-82265000D03*
D18*
X78580000Y-81265000D03*
D17*
X76040000Y-82265000D03*
D18*
X76040000Y-81265000D03*
D17*
X73500000Y-82265000D03*
D18*
X73500000Y-81265000D03*
D19*
X78820000Y-94385000D03*
X80920000Y-94385000D03*
D20*
X72440000Y-91155000D03*
X74980000Y-91155000D03*
X77520000Y-91155000D03*
X77520000Y-88615000D03*
X74980000Y-88615000D03*
X72440000Y-88615000D03*
X79920000Y-91135000D03*
X79920000Y-88635000D03*
D21*
X83420000Y-88585000D03*
%TD*%
D12*
%TO.C,R1*%
X94500000Y-79000000D03*
X94500000Y-82000000D03*
%TD*%
M02*
