%TF.GenerationSoftware,KiCad,Pcbnew,9.0.4*%
%TF.CreationDate,2026-04-29T10:12:37-04:00*%
%TF.ProjectId,_autosave-HypoV PCB,5f617574-6f73-4617-9665-2d4879706f56,rev?*%
%TF.SameCoordinates,Original*%
%TF.FileFunction,Legend,Top*%
%TF.FilePolarity,Positive*%
%FSLAX46Y46*%
G04 Gerber Fmt 4.6, Leading zero omitted, Abs format (unit mm)*
G04 Created by KiCad (PCBNEW 9.0.4) date 2026-04-29 10:12:37*
%MOMM*%
%LPD*%
G01*
G04 APERTURE LIST*
%ADD10C,0.150000*%
%ADD11C,0.100000*%
%ADD12C,0.120000*%
%ADD13C,0.200000*%
%ADD14C,0.127000*%
G04 APERTURE END LIST*
D10*
X93414819Y-77357143D02*
X92938628Y-77690476D01*
X93414819Y-77928571D02*
X92414819Y-77928571D01*
X92414819Y-77928571D02*
X92414819Y-77547619D01*
X92414819Y-77547619D02*
X92462438Y-77452381D01*
X92462438Y-77452381D02*
X92510057Y-77404762D01*
X92510057Y-77404762D02*
X92605295Y-77357143D01*
X92605295Y-77357143D02*
X92748152Y-77357143D01*
X92748152Y-77357143D02*
X92843390Y-77404762D01*
X92843390Y-77404762D02*
X92891009Y-77452381D01*
X92891009Y-77452381D02*
X92938628Y-77547619D01*
X92938628Y-77547619D02*
X92938628Y-77928571D01*
X92891009Y-76928571D02*
X92891009Y-76595238D01*
X93414819Y-76452381D02*
X93414819Y-76928571D01*
X93414819Y-76928571D02*
X92414819Y-76928571D01*
X92414819Y-76928571D02*
X92414819Y-76452381D01*
X93414819Y-76023809D02*
X92414819Y-76023809D01*
X92414819Y-76023809D02*
X92414819Y-75785714D01*
X92414819Y-75785714D02*
X92462438Y-75642857D01*
X92462438Y-75642857D02*
X92557676Y-75547619D01*
X92557676Y-75547619D02*
X92652914Y-75500000D01*
X92652914Y-75500000D02*
X92843390Y-75452381D01*
X92843390Y-75452381D02*
X92986247Y-75452381D01*
X92986247Y-75452381D02*
X93176723Y-75500000D01*
X93176723Y-75500000D02*
X93271961Y-75547619D01*
X93271961Y-75547619D02*
X93367200Y-75642857D01*
X93367200Y-75642857D02*
X93414819Y-75785714D01*
X93414819Y-75785714D02*
X93414819Y-76023809D01*
X93510057Y-75261905D02*
X93510057Y-74500000D01*
X93414819Y-73785714D02*
X93414819Y-74261904D01*
X93414819Y-74261904D02*
X92414819Y-74261904D01*
X92891009Y-73452380D02*
X92891009Y-73119047D01*
X93414819Y-72976190D02*
X93414819Y-73452380D01*
X93414819Y-73452380D02*
X92414819Y-73452380D01*
X92414819Y-73452380D02*
X92414819Y-72976190D01*
X93414819Y-72547618D02*
X92414819Y-72547618D01*
X92414819Y-72547618D02*
X92414819Y-72309523D01*
X92414819Y-72309523D02*
X92462438Y-72166666D01*
X92462438Y-72166666D02*
X92557676Y-72071428D01*
X92557676Y-72071428D02*
X92652914Y-72023809D01*
X92652914Y-72023809D02*
X92843390Y-71976190D01*
X92843390Y-71976190D02*
X92986247Y-71976190D01*
X92986247Y-71976190D02*
X93176723Y-72023809D01*
X93176723Y-72023809D02*
X93271961Y-72071428D01*
X93271961Y-72071428D02*
X93367200Y-72166666D01*
X93367200Y-72166666D02*
X93414819Y-72309523D01*
X93414819Y-72309523D02*
X93414819Y-72547618D01*
X93414819Y-71023809D02*
X93414819Y-71595237D01*
X93414819Y-71309523D02*
X92414819Y-71309523D01*
X92414819Y-71309523D02*
X92557676Y-71404761D01*
X92557676Y-71404761D02*
X92652914Y-71499999D01*
X92652914Y-71499999D02*
X92700533Y-71595237D01*
X111604819Y-115047618D02*
X110604819Y-115047618D01*
X110604819Y-115047618D02*
X110604819Y-114666666D01*
X110604819Y-114666666D02*
X110652438Y-114571428D01*
X110652438Y-114571428D02*
X110700057Y-114523809D01*
X110700057Y-114523809D02*
X110795295Y-114476190D01*
X110795295Y-114476190D02*
X110938152Y-114476190D01*
X110938152Y-114476190D02*
X111033390Y-114523809D01*
X111033390Y-114523809D02*
X111081009Y-114571428D01*
X111081009Y-114571428D02*
X111128628Y-114666666D01*
X111128628Y-114666666D02*
X111128628Y-115047618D01*
X110604819Y-114047618D02*
X111414342Y-114047618D01*
X111414342Y-114047618D02*
X111509580Y-113999999D01*
X111509580Y-113999999D02*
X111557200Y-113952380D01*
X111557200Y-113952380D02*
X111604819Y-113857142D01*
X111604819Y-113857142D02*
X111604819Y-113666666D01*
X111604819Y-113666666D02*
X111557200Y-113571428D01*
X111557200Y-113571428D02*
X111509580Y-113523809D01*
X111509580Y-113523809D02*
X111414342Y-113476190D01*
X111414342Y-113476190D02*
X110604819Y-113476190D01*
X111604819Y-112523809D02*
X111604819Y-112999999D01*
X111604819Y-112999999D02*
X110604819Y-112999999D01*
X111604819Y-111714285D02*
X111604819Y-112190475D01*
X111604819Y-112190475D02*
X110604819Y-112190475D01*
X110604819Y-111380951D02*
X111414342Y-111380951D01*
X111414342Y-111380951D02*
X111509580Y-111333332D01*
X111509580Y-111333332D02*
X111557200Y-111285713D01*
X111557200Y-111285713D02*
X111604819Y-111190475D01*
X111604819Y-111190475D02*
X111604819Y-110999999D01*
X111604819Y-110999999D02*
X111557200Y-110904761D01*
X111557200Y-110904761D02*
X111509580Y-110857142D01*
X111509580Y-110857142D02*
X111414342Y-110809523D01*
X111414342Y-110809523D02*
X110604819Y-110809523D01*
X111604819Y-110333332D02*
X110604819Y-110333332D01*
X110604819Y-110333332D02*
X110604819Y-109952380D01*
X110604819Y-109952380D02*
X110652438Y-109857142D01*
X110652438Y-109857142D02*
X110700057Y-109809523D01*
X110700057Y-109809523D02*
X110795295Y-109761904D01*
X110795295Y-109761904D02*
X110938152Y-109761904D01*
X110938152Y-109761904D02*
X111033390Y-109809523D01*
X111033390Y-109809523D02*
X111081009Y-109857142D01*
X111081009Y-109857142D02*
X111128628Y-109952380D01*
X111128628Y-109952380D02*
X111128628Y-110333332D01*
X111700057Y-109571428D02*
X111700057Y-108809523D01*
X110938152Y-108142856D02*
X111604819Y-108142856D01*
X110557200Y-108380951D02*
X111271485Y-108619046D01*
X111271485Y-108619046D02*
X111271485Y-107999999D01*
X111509580Y-107619046D02*
X111557200Y-107571427D01*
X111557200Y-107571427D02*
X111604819Y-107619046D01*
X111604819Y-107619046D02*
X111557200Y-107666665D01*
X111557200Y-107666665D02*
X111509580Y-107619046D01*
X111509580Y-107619046D02*
X111604819Y-107619046D01*
X110604819Y-107238094D02*
X110604819Y-106571428D01*
X110604819Y-106571428D02*
X111604819Y-106999999D01*
X111604819Y-106190475D02*
X110604819Y-106190475D01*
X111604819Y-105619047D02*
X111033390Y-106047618D01*
X110604819Y-105619047D02*
X111176247Y-106190475D01*
X111700057Y-105428571D02*
X111700057Y-104666666D01*
X111604819Y-103857142D02*
X111128628Y-104190475D01*
X111604819Y-104428570D02*
X110604819Y-104428570D01*
X110604819Y-104428570D02*
X110604819Y-104047618D01*
X110604819Y-104047618D02*
X110652438Y-103952380D01*
X110652438Y-103952380D02*
X110700057Y-103904761D01*
X110700057Y-103904761D02*
X110795295Y-103857142D01*
X110795295Y-103857142D02*
X110938152Y-103857142D01*
X110938152Y-103857142D02*
X111033390Y-103904761D01*
X111033390Y-103904761D02*
X111081009Y-103952380D01*
X111081009Y-103952380D02*
X111128628Y-104047618D01*
X111128628Y-104047618D02*
X111128628Y-104428570D01*
X110604819Y-103523808D02*
X110604819Y-102904761D01*
X110604819Y-102904761D02*
X110985771Y-103238094D01*
X110985771Y-103238094D02*
X110985771Y-103095237D01*
X110985771Y-103095237D02*
X111033390Y-102999999D01*
X111033390Y-102999999D02*
X111081009Y-102952380D01*
X111081009Y-102952380D02*
X111176247Y-102904761D01*
X111176247Y-102904761D02*
X111414342Y-102904761D01*
X111414342Y-102904761D02*
X111509580Y-102952380D01*
X111509580Y-102952380D02*
X111557200Y-102999999D01*
X111557200Y-102999999D02*
X111604819Y-103095237D01*
X111604819Y-103095237D02*
X111604819Y-103380951D01*
X111604819Y-103380951D02*
X111557200Y-103476189D01*
X111557200Y-103476189D02*
X111509580Y-103523808D01*
X116516666Y-101979819D02*
X117088094Y-101979819D01*
X116802380Y-102979819D02*
X116802380Y-101979819D01*
X117802380Y-102932200D02*
X117707142Y-102979819D01*
X117707142Y-102979819D02*
X117516666Y-102979819D01*
X117516666Y-102979819D02*
X117421428Y-102932200D01*
X117421428Y-102932200D02*
X117373809Y-102836961D01*
X117373809Y-102836961D02*
X117373809Y-102456009D01*
X117373809Y-102456009D02*
X117421428Y-102360771D01*
X117421428Y-102360771D02*
X117516666Y-102313152D01*
X117516666Y-102313152D02*
X117707142Y-102313152D01*
X117707142Y-102313152D02*
X117802380Y-102360771D01*
X117802380Y-102360771D02*
X117849999Y-102456009D01*
X117849999Y-102456009D02*
X117849999Y-102551247D01*
X117849999Y-102551247D02*
X117373809Y-102646485D01*
X118278571Y-102979819D02*
X118278571Y-102313152D01*
X118278571Y-102408390D02*
X118326190Y-102360771D01*
X118326190Y-102360771D02*
X118421428Y-102313152D01*
X118421428Y-102313152D02*
X118564285Y-102313152D01*
X118564285Y-102313152D02*
X118659523Y-102360771D01*
X118659523Y-102360771D02*
X118707142Y-102456009D01*
X118707142Y-102456009D02*
X118707142Y-102979819D01*
X118707142Y-102456009D02*
X118754761Y-102360771D01*
X118754761Y-102360771D02*
X118849999Y-102313152D01*
X118849999Y-102313152D02*
X118992856Y-102313152D01*
X118992856Y-102313152D02*
X119088095Y-102360771D01*
X119088095Y-102360771D02*
X119135714Y-102456009D01*
X119135714Y-102456009D02*
X119135714Y-102979819D01*
X119611904Y-102313152D02*
X119611904Y-103313152D01*
X119611904Y-102360771D02*
X119707142Y-102313152D01*
X119707142Y-102313152D02*
X119897618Y-102313152D01*
X119897618Y-102313152D02*
X119992856Y-102360771D01*
X119992856Y-102360771D02*
X120040475Y-102408390D01*
X120040475Y-102408390D02*
X120088094Y-102503628D01*
X120088094Y-102503628D02*
X120088094Y-102789342D01*
X120088094Y-102789342D02*
X120040475Y-102884580D01*
X120040475Y-102884580D02*
X119992856Y-102932200D01*
X119992856Y-102932200D02*
X119897618Y-102979819D01*
X119897618Y-102979819D02*
X119707142Y-102979819D01*
X119707142Y-102979819D02*
X119611904Y-102932200D01*
X120469047Y-102932200D02*
X120611904Y-102979819D01*
X120611904Y-102979819D02*
X120849999Y-102979819D01*
X120849999Y-102979819D02*
X120945237Y-102932200D01*
X120945237Y-102932200D02*
X120992856Y-102884580D01*
X120992856Y-102884580D02*
X121040475Y-102789342D01*
X121040475Y-102789342D02*
X121040475Y-102694104D01*
X121040475Y-102694104D02*
X120992856Y-102598866D01*
X120992856Y-102598866D02*
X120945237Y-102551247D01*
X120945237Y-102551247D02*
X120849999Y-102503628D01*
X120849999Y-102503628D02*
X120659523Y-102456009D01*
X120659523Y-102456009D02*
X120564285Y-102408390D01*
X120564285Y-102408390D02*
X120516666Y-102360771D01*
X120516666Y-102360771D02*
X120469047Y-102265533D01*
X120469047Y-102265533D02*
X120469047Y-102170295D01*
X120469047Y-102170295D02*
X120516666Y-102075057D01*
X120516666Y-102075057D02*
X120564285Y-102027438D01*
X120564285Y-102027438D02*
X120659523Y-101979819D01*
X120659523Y-101979819D02*
X120897618Y-101979819D01*
X120897618Y-101979819D02*
X121040475Y-102027438D01*
X121849999Y-102932200D02*
X121754761Y-102979819D01*
X121754761Y-102979819D02*
X121564285Y-102979819D01*
X121564285Y-102979819D02*
X121469047Y-102932200D01*
X121469047Y-102932200D02*
X121421428Y-102836961D01*
X121421428Y-102836961D02*
X121421428Y-102456009D01*
X121421428Y-102456009D02*
X121469047Y-102360771D01*
X121469047Y-102360771D02*
X121564285Y-102313152D01*
X121564285Y-102313152D02*
X121754761Y-102313152D01*
X121754761Y-102313152D02*
X121849999Y-102360771D01*
X121849999Y-102360771D02*
X121897618Y-102456009D01*
X121897618Y-102456009D02*
X121897618Y-102551247D01*
X121897618Y-102551247D02*
X121421428Y-102646485D01*
X122326190Y-102313152D02*
X122326190Y-102979819D01*
X122326190Y-102408390D02*
X122373809Y-102360771D01*
X122373809Y-102360771D02*
X122469047Y-102313152D01*
X122469047Y-102313152D02*
X122611904Y-102313152D01*
X122611904Y-102313152D02*
X122707142Y-102360771D01*
X122707142Y-102360771D02*
X122754761Y-102456009D01*
X122754761Y-102456009D02*
X122754761Y-102979819D01*
X123183333Y-102932200D02*
X123278571Y-102979819D01*
X123278571Y-102979819D02*
X123469047Y-102979819D01*
X123469047Y-102979819D02*
X123564285Y-102932200D01*
X123564285Y-102932200D02*
X123611904Y-102836961D01*
X123611904Y-102836961D02*
X123611904Y-102789342D01*
X123611904Y-102789342D02*
X123564285Y-102694104D01*
X123564285Y-102694104D02*
X123469047Y-102646485D01*
X123469047Y-102646485D02*
X123326190Y-102646485D01*
X123326190Y-102646485D02*
X123230952Y-102598866D01*
X123230952Y-102598866D02*
X123183333Y-102503628D01*
X123183333Y-102503628D02*
X123183333Y-102456009D01*
X123183333Y-102456009D02*
X123230952Y-102360771D01*
X123230952Y-102360771D02*
X123326190Y-102313152D01*
X123326190Y-102313152D02*
X123469047Y-102313152D01*
X123469047Y-102313152D02*
X123564285Y-102360771D01*
X124183333Y-102979819D02*
X124088095Y-102932200D01*
X124088095Y-102932200D02*
X124040476Y-102884580D01*
X124040476Y-102884580D02*
X123992857Y-102789342D01*
X123992857Y-102789342D02*
X123992857Y-102503628D01*
X123992857Y-102503628D02*
X124040476Y-102408390D01*
X124040476Y-102408390D02*
X124088095Y-102360771D01*
X124088095Y-102360771D02*
X124183333Y-102313152D01*
X124183333Y-102313152D02*
X124326190Y-102313152D01*
X124326190Y-102313152D02*
X124421428Y-102360771D01*
X124421428Y-102360771D02*
X124469047Y-102408390D01*
X124469047Y-102408390D02*
X124516666Y-102503628D01*
X124516666Y-102503628D02*
X124516666Y-102789342D01*
X124516666Y-102789342D02*
X124469047Y-102884580D01*
X124469047Y-102884580D02*
X124421428Y-102932200D01*
X124421428Y-102932200D02*
X124326190Y-102979819D01*
X124326190Y-102979819D02*
X124183333Y-102979819D01*
X124945238Y-102979819D02*
X124945238Y-102313152D01*
X124945238Y-102503628D02*
X124992857Y-102408390D01*
X124992857Y-102408390D02*
X125040476Y-102360771D01*
X125040476Y-102360771D02*
X125135714Y-102313152D01*
X125135714Y-102313152D02*
X125230952Y-102313152D01*
X126088095Y-102979819D02*
X125516667Y-102979819D01*
X125802381Y-102979819D02*
X125802381Y-101979819D01*
X125802381Y-101979819D02*
X125707143Y-102122676D01*
X125707143Y-102122676D02*
X125611905Y-102217914D01*
X125611905Y-102217914D02*
X125516667Y-102265533D01*
X109452381Y-102804819D02*
X109452381Y-101804819D01*
X109452381Y-101804819D02*
X109833333Y-101804819D01*
X109833333Y-101804819D02*
X109928571Y-101852438D01*
X109928571Y-101852438D02*
X109976190Y-101900057D01*
X109976190Y-101900057D02*
X110023809Y-101995295D01*
X110023809Y-101995295D02*
X110023809Y-102138152D01*
X110023809Y-102138152D02*
X109976190Y-102233390D01*
X109976190Y-102233390D02*
X109928571Y-102281009D01*
X109928571Y-102281009D02*
X109833333Y-102328628D01*
X109833333Y-102328628D02*
X109452381Y-102328628D01*
X110452381Y-101804819D02*
X110452381Y-102614342D01*
X110452381Y-102614342D02*
X110500000Y-102709580D01*
X110500000Y-102709580D02*
X110547619Y-102757200D01*
X110547619Y-102757200D02*
X110642857Y-102804819D01*
X110642857Y-102804819D02*
X110833333Y-102804819D01*
X110833333Y-102804819D02*
X110928571Y-102757200D01*
X110928571Y-102757200D02*
X110976190Y-102709580D01*
X110976190Y-102709580D02*
X111023809Y-102614342D01*
X111023809Y-102614342D02*
X111023809Y-101804819D01*
X111976190Y-102804819D02*
X111500000Y-102804819D01*
X111500000Y-102804819D02*
X111500000Y-101804819D01*
X112785714Y-102804819D02*
X112309524Y-102804819D01*
X112309524Y-102804819D02*
X112309524Y-101804819D01*
X113119048Y-101804819D02*
X113119048Y-102614342D01*
X113119048Y-102614342D02*
X113166667Y-102709580D01*
X113166667Y-102709580D02*
X113214286Y-102757200D01*
X113214286Y-102757200D02*
X113309524Y-102804819D01*
X113309524Y-102804819D02*
X113500000Y-102804819D01*
X113500000Y-102804819D02*
X113595238Y-102757200D01*
X113595238Y-102757200D02*
X113642857Y-102709580D01*
X113642857Y-102709580D02*
X113690476Y-102614342D01*
X113690476Y-102614342D02*
X113690476Y-101804819D01*
X114166667Y-102804819D02*
X114166667Y-101804819D01*
X114166667Y-101804819D02*
X114547619Y-101804819D01*
X114547619Y-101804819D02*
X114642857Y-101852438D01*
X114642857Y-101852438D02*
X114690476Y-101900057D01*
X114690476Y-101900057D02*
X114738095Y-101995295D01*
X114738095Y-101995295D02*
X114738095Y-102138152D01*
X114738095Y-102138152D02*
X114690476Y-102233390D01*
X114690476Y-102233390D02*
X114642857Y-102281009D01*
X114642857Y-102281009D02*
X114547619Y-102328628D01*
X114547619Y-102328628D02*
X114166667Y-102328628D01*
X114928572Y-102900057D02*
X115690476Y-102900057D01*
X116357143Y-102138152D02*
X116357143Y-102804819D01*
X116119048Y-101757200D02*
X115880953Y-102471485D01*
X115880953Y-102471485D02*
X116500000Y-102471485D01*
X116880953Y-102709580D02*
X116928572Y-102757200D01*
X116928572Y-102757200D02*
X116880953Y-102804819D01*
X116880953Y-102804819D02*
X116833334Y-102757200D01*
X116833334Y-102757200D02*
X116880953Y-102709580D01*
X116880953Y-102709580D02*
X116880953Y-102804819D01*
X117261905Y-101804819D02*
X117928571Y-101804819D01*
X117928571Y-101804819D02*
X117500000Y-102804819D01*
X118309524Y-102804819D02*
X118309524Y-101804819D01*
X118880952Y-102804819D02*
X118452381Y-102233390D01*
X118880952Y-101804819D02*
X118309524Y-102376247D01*
X119071429Y-102900057D02*
X119833333Y-102900057D01*
X120642857Y-102804819D02*
X120309524Y-102328628D01*
X120071429Y-102804819D02*
X120071429Y-101804819D01*
X120071429Y-101804819D02*
X120452381Y-101804819D01*
X120452381Y-101804819D02*
X120547619Y-101852438D01*
X120547619Y-101852438D02*
X120595238Y-101900057D01*
X120595238Y-101900057D02*
X120642857Y-101995295D01*
X120642857Y-101995295D02*
X120642857Y-102138152D01*
X120642857Y-102138152D02*
X120595238Y-102233390D01*
X120595238Y-102233390D02*
X120547619Y-102281009D01*
X120547619Y-102281009D02*
X120452381Y-102328628D01*
X120452381Y-102328628D02*
X120071429Y-102328628D01*
X121595238Y-102804819D02*
X121023810Y-102804819D01*
X121309524Y-102804819D02*
X121309524Y-101804819D01*
X121309524Y-101804819D02*
X121214286Y-101947676D01*
X121214286Y-101947676D02*
X121119048Y-102042914D01*
X121119048Y-102042914D02*
X121023810Y-102090533D01*
X128431009Y-110071428D02*
X128478628Y-109928571D01*
X128478628Y-109928571D02*
X128526247Y-109880952D01*
X128526247Y-109880952D02*
X128621485Y-109833333D01*
X128621485Y-109833333D02*
X128764342Y-109833333D01*
X128764342Y-109833333D02*
X128859580Y-109880952D01*
X128859580Y-109880952D02*
X128907200Y-109928571D01*
X128907200Y-109928571D02*
X128954819Y-110023809D01*
X128954819Y-110023809D02*
X128954819Y-110404761D01*
X128954819Y-110404761D02*
X127954819Y-110404761D01*
X127954819Y-110404761D02*
X127954819Y-110071428D01*
X127954819Y-110071428D02*
X128002438Y-109976190D01*
X128002438Y-109976190D02*
X128050057Y-109928571D01*
X128050057Y-109928571D02*
X128145295Y-109880952D01*
X128145295Y-109880952D02*
X128240533Y-109880952D01*
X128240533Y-109880952D02*
X128335771Y-109928571D01*
X128335771Y-109928571D02*
X128383390Y-109976190D01*
X128383390Y-109976190D02*
X128431009Y-110071428D01*
X128431009Y-110071428D02*
X128431009Y-110404761D01*
X128478628Y-109214285D02*
X128954819Y-109214285D01*
X127954819Y-109547618D02*
X128478628Y-109214285D01*
X128478628Y-109214285D02*
X127954819Y-108880952D01*
X128954819Y-108547618D02*
X127954819Y-108547618D01*
X127954819Y-108547618D02*
X127954819Y-108166666D01*
X127954819Y-108166666D02*
X128002438Y-108071428D01*
X128002438Y-108071428D02*
X128050057Y-108023809D01*
X128050057Y-108023809D02*
X128145295Y-107976190D01*
X128145295Y-107976190D02*
X128288152Y-107976190D01*
X128288152Y-107976190D02*
X128383390Y-108023809D01*
X128383390Y-108023809D02*
X128431009Y-108071428D01*
X128431009Y-108071428D02*
X128478628Y-108166666D01*
X128478628Y-108166666D02*
X128478628Y-108547618D01*
X128669104Y-107595237D02*
X128669104Y-107119047D01*
X128954819Y-107690475D02*
X127954819Y-107357142D01*
X127954819Y-107357142D02*
X128954819Y-107023809D01*
X128907200Y-106738094D02*
X128954819Y-106595237D01*
X128954819Y-106595237D02*
X128954819Y-106357142D01*
X128954819Y-106357142D02*
X128907200Y-106261904D01*
X128907200Y-106261904D02*
X128859580Y-106214285D01*
X128859580Y-106214285D02*
X128764342Y-106166666D01*
X128764342Y-106166666D02*
X128669104Y-106166666D01*
X128669104Y-106166666D02*
X128573866Y-106214285D01*
X128573866Y-106214285D02*
X128526247Y-106261904D01*
X128526247Y-106261904D02*
X128478628Y-106357142D01*
X128478628Y-106357142D02*
X128431009Y-106547618D01*
X128431009Y-106547618D02*
X128383390Y-106642856D01*
X128383390Y-106642856D02*
X128335771Y-106690475D01*
X128335771Y-106690475D02*
X128240533Y-106738094D01*
X128240533Y-106738094D02*
X128145295Y-106738094D01*
X128145295Y-106738094D02*
X128050057Y-106690475D01*
X128050057Y-106690475D02*
X128002438Y-106642856D01*
X128002438Y-106642856D02*
X127954819Y-106547618D01*
X127954819Y-106547618D02*
X127954819Y-106309523D01*
X127954819Y-106309523D02*
X128002438Y-106166666D01*
X128907200Y-105785713D02*
X128954819Y-105642856D01*
X128954819Y-105642856D02*
X128954819Y-105404761D01*
X128954819Y-105404761D02*
X128907200Y-105309523D01*
X128907200Y-105309523D02*
X128859580Y-105261904D01*
X128859580Y-105261904D02*
X128764342Y-105214285D01*
X128764342Y-105214285D02*
X128669104Y-105214285D01*
X128669104Y-105214285D02*
X128573866Y-105261904D01*
X128573866Y-105261904D02*
X128526247Y-105309523D01*
X128526247Y-105309523D02*
X128478628Y-105404761D01*
X128478628Y-105404761D02*
X128431009Y-105595237D01*
X128431009Y-105595237D02*
X128383390Y-105690475D01*
X128383390Y-105690475D02*
X128335771Y-105738094D01*
X128335771Y-105738094D02*
X128240533Y-105785713D01*
X128240533Y-105785713D02*
X128145295Y-105785713D01*
X128145295Y-105785713D02*
X128050057Y-105738094D01*
X128050057Y-105738094D02*
X128002438Y-105690475D01*
X128002438Y-105690475D02*
X127954819Y-105595237D01*
X127954819Y-105595237D02*
X127954819Y-105357142D01*
X127954819Y-105357142D02*
X128002438Y-105214285D01*
X129050057Y-105023809D02*
X129050057Y-104261904D01*
X128859580Y-103452380D02*
X128907200Y-103499999D01*
X128907200Y-103499999D02*
X128954819Y-103642856D01*
X128954819Y-103642856D02*
X128954819Y-103738094D01*
X128954819Y-103738094D02*
X128907200Y-103880951D01*
X128907200Y-103880951D02*
X128811961Y-103976189D01*
X128811961Y-103976189D02*
X128716723Y-104023808D01*
X128716723Y-104023808D02*
X128526247Y-104071427D01*
X128526247Y-104071427D02*
X128383390Y-104071427D01*
X128383390Y-104071427D02*
X128192914Y-104023808D01*
X128192914Y-104023808D02*
X128097676Y-103976189D01*
X128097676Y-103976189D02*
X128002438Y-103880951D01*
X128002438Y-103880951D02*
X127954819Y-103738094D01*
X127954819Y-103738094D02*
X127954819Y-103642856D01*
X127954819Y-103642856D02*
X128002438Y-103499999D01*
X128002438Y-103499999D02*
X128050057Y-103452380D01*
X128669104Y-103071427D02*
X128669104Y-102595237D01*
X128954819Y-103166665D02*
X127954819Y-102833332D01*
X127954819Y-102833332D02*
X128954819Y-102499999D01*
X128954819Y-102166665D02*
X127954819Y-102166665D01*
X127954819Y-102166665D02*
X127954819Y-101785713D01*
X127954819Y-101785713D02*
X128002438Y-101690475D01*
X128002438Y-101690475D02*
X128050057Y-101642856D01*
X128050057Y-101642856D02*
X128145295Y-101595237D01*
X128145295Y-101595237D02*
X128288152Y-101595237D01*
X128288152Y-101595237D02*
X128383390Y-101642856D01*
X128383390Y-101642856D02*
X128431009Y-101690475D01*
X128431009Y-101690475D02*
X128478628Y-101785713D01*
X128478628Y-101785713D02*
X128478628Y-102166665D01*
X129050057Y-101404761D02*
X129050057Y-100642856D01*
X128859580Y-100404760D02*
X128907200Y-100357141D01*
X128907200Y-100357141D02*
X128954819Y-100404760D01*
X128954819Y-100404760D02*
X128907200Y-100452379D01*
X128907200Y-100452379D02*
X128859580Y-100404760D01*
X128859580Y-100404760D02*
X128954819Y-100404760D01*
X128954819Y-99404761D02*
X128954819Y-99976189D01*
X128954819Y-99690475D02*
X127954819Y-99690475D01*
X127954819Y-99690475D02*
X128097676Y-99785713D01*
X128097676Y-99785713D02*
X128192914Y-99880951D01*
X128192914Y-99880951D02*
X128240533Y-99976189D01*
X127954819Y-98976189D02*
X128764342Y-98976189D01*
X128764342Y-98976189D02*
X128859580Y-98928570D01*
X128859580Y-98928570D02*
X128907200Y-98880951D01*
X128907200Y-98880951D02*
X128954819Y-98785713D01*
X128954819Y-98785713D02*
X128954819Y-98595237D01*
X128954819Y-98595237D02*
X128907200Y-98499999D01*
X128907200Y-98499999D02*
X128859580Y-98452380D01*
X128859580Y-98452380D02*
X128764342Y-98404761D01*
X128764342Y-98404761D02*
X127954819Y-98404761D01*
X128431009Y-97595237D02*
X128431009Y-97928570D01*
X128954819Y-97928570D02*
X127954819Y-97928570D01*
X127954819Y-97928570D02*
X127954819Y-97452380D01*
X128954819Y-96547618D02*
X128954819Y-97119046D01*
X128954819Y-96833332D02*
X127954819Y-96833332D01*
X127954819Y-96833332D02*
X128097676Y-96928570D01*
X128097676Y-96928570D02*
X128192914Y-97023808D01*
X128192914Y-97023808D02*
X128240533Y-97119046D01*
X102452381Y-106304819D02*
X102452381Y-105304819D01*
X102452381Y-105304819D02*
X102833333Y-105304819D01*
X102833333Y-105304819D02*
X102928571Y-105352438D01*
X102928571Y-105352438D02*
X102976190Y-105400057D01*
X102976190Y-105400057D02*
X103023809Y-105495295D01*
X103023809Y-105495295D02*
X103023809Y-105638152D01*
X103023809Y-105638152D02*
X102976190Y-105733390D01*
X102976190Y-105733390D02*
X102928571Y-105781009D01*
X102928571Y-105781009D02*
X102833333Y-105828628D01*
X102833333Y-105828628D02*
X102452381Y-105828628D01*
X103452381Y-105304819D02*
X103452381Y-106114342D01*
X103452381Y-106114342D02*
X103500000Y-106209580D01*
X103500000Y-106209580D02*
X103547619Y-106257200D01*
X103547619Y-106257200D02*
X103642857Y-106304819D01*
X103642857Y-106304819D02*
X103833333Y-106304819D01*
X103833333Y-106304819D02*
X103928571Y-106257200D01*
X103928571Y-106257200D02*
X103976190Y-106209580D01*
X103976190Y-106209580D02*
X104023809Y-106114342D01*
X104023809Y-106114342D02*
X104023809Y-105304819D01*
X104976190Y-106304819D02*
X104500000Y-106304819D01*
X104500000Y-106304819D02*
X104500000Y-105304819D01*
X105785714Y-106304819D02*
X105309524Y-106304819D01*
X105309524Y-106304819D02*
X105309524Y-105304819D01*
X106119048Y-105304819D02*
X106119048Y-106114342D01*
X106119048Y-106114342D02*
X106166667Y-106209580D01*
X106166667Y-106209580D02*
X106214286Y-106257200D01*
X106214286Y-106257200D02*
X106309524Y-106304819D01*
X106309524Y-106304819D02*
X106500000Y-106304819D01*
X106500000Y-106304819D02*
X106595238Y-106257200D01*
X106595238Y-106257200D02*
X106642857Y-106209580D01*
X106642857Y-106209580D02*
X106690476Y-106114342D01*
X106690476Y-106114342D02*
X106690476Y-105304819D01*
X107166667Y-106304819D02*
X107166667Y-105304819D01*
X107166667Y-105304819D02*
X107547619Y-105304819D01*
X107547619Y-105304819D02*
X107642857Y-105352438D01*
X107642857Y-105352438D02*
X107690476Y-105400057D01*
X107690476Y-105400057D02*
X107738095Y-105495295D01*
X107738095Y-105495295D02*
X107738095Y-105638152D01*
X107738095Y-105638152D02*
X107690476Y-105733390D01*
X107690476Y-105733390D02*
X107642857Y-105781009D01*
X107642857Y-105781009D02*
X107547619Y-105828628D01*
X107547619Y-105828628D02*
X107166667Y-105828628D01*
X107928572Y-106400057D02*
X108690476Y-106400057D01*
X109357143Y-105638152D02*
X109357143Y-106304819D01*
X109119048Y-105257200D02*
X108880953Y-105971485D01*
X108880953Y-105971485D02*
X109500000Y-105971485D01*
X109880953Y-106209580D02*
X109928572Y-106257200D01*
X109928572Y-106257200D02*
X109880953Y-106304819D01*
X109880953Y-106304819D02*
X109833334Y-106257200D01*
X109833334Y-106257200D02*
X109880953Y-106209580D01*
X109880953Y-106209580D02*
X109880953Y-106304819D01*
X110261905Y-105304819D02*
X110928571Y-105304819D01*
X110928571Y-105304819D02*
X110500000Y-106304819D01*
X111309524Y-106304819D02*
X111309524Y-105304819D01*
X111880952Y-106304819D02*
X111452381Y-105733390D01*
X111880952Y-105304819D02*
X111309524Y-105876247D01*
X112071429Y-106400057D02*
X112833333Y-106400057D01*
X113642857Y-106304819D02*
X113309524Y-105828628D01*
X113071429Y-106304819D02*
X113071429Y-105304819D01*
X113071429Y-105304819D02*
X113452381Y-105304819D01*
X113452381Y-105304819D02*
X113547619Y-105352438D01*
X113547619Y-105352438D02*
X113595238Y-105400057D01*
X113595238Y-105400057D02*
X113642857Y-105495295D01*
X113642857Y-105495295D02*
X113642857Y-105638152D01*
X113642857Y-105638152D02*
X113595238Y-105733390D01*
X113595238Y-105733390D02*
X113547619Y-105781009D01*
X113547619Y-105781009D02*
X113452381Y-105828628D01*
X113452381Y-105828628D02*
X113071429Y-105828628D01*
X114023810Y-105400057D02*
X114071429Y-105352438D01*
X114071429Y-105352438D02*
X114166667Y-105304819D01*
X114166667Y-105304819D02*
X114404762Y-105304819D01*
X114404762Y-105304819D02*
X114500000Y-105352438D01*
X114500000Y-105352438D02*
X114547619Y-105400057D01*
X114547619Y-105400057D02*
X114595238Y-105495295D01*
X114595238Y-105495295D02*
X114595238Y-105590533D01*
X114595238Y-105590533D02*
X114547619Y-105733390D01*
X114547619Y-105733390D02*
X113976191Y-106304819D01*
X113976191Y-106304819D02*
X114595238Y-106304819D01*
X107891009Y-78023809D02*
X107938628Y-77880952D01*
X107938628Y-77880952D02*
X107986247Y-77833333D01*
X107986247Y-77833333D02*
X108081485Y-77785714D01*
X108081485Y-77785714D02*
X108224342Y-77785714D01*
X108224342Y-77785714D02*
X108319580Y-77833333D01*
X108319580Y-77833333D02*
X108367200Y-77880952D01*
X108367200Y-77880952D02*
X108414819Y-77976190D01*
X108414819Y-77976190D02*
X108414819Y-78357142D01*
X108414819Y-78357142D02*
X107414819Y-78357142D01*
X107414819Y-78357142D02*
X107414819Y-78023809D01*
X107414819Y-78023809D02*
X107462438Y-77928571D01*
X107462438Y-77928571D02*
X107510057Y-77880952D01*
X107510057Y-77880952D02*
X107605295Y-77833333D01*
X107605295Y-77833333D02*
X107700533Y-77833333D01*
X107700533Y-77833333D02*
X107795771Y-77880952D01*
X107795771Y-77880952D02*
X107843390Y-77928571D01*
X107843390Y-77928571D02*
X107891009Y-78023809D01*
X107891009Y-78023809D02*
X107891009Y-78357142D01*
X108414819Y-76880952D02*
X108414819Y-77357142D01*
X108414819Y-77357142D02*
X107414819Y-77357142D01*
X107414819Y-76547618D02*
X108224342Y-76547618D01*
X108224342Y-76547618D02*
X108319580Y-76499999D01*
X108319580Y-76499999D02*
X108367200Y-76452380D01*
X108367200Y-76452380D02*
X108414819Y-76357142D01*
X108414819Y-76357142D02*
X108414819Y-76166666D01*
X108414819Y-76166666D02*
X108367200Y-76071428D01*
X108367200Y-76071428D02*
X108319580Y-76023809D01*
X108319580Y-76023809D02*
X108224342Y-75976190D01*
X108224342Y-75976190D02*
X107414819Y-75976190D01*
X107891009Y-75499999D02*
X107891009Y-75166666D01*
X108414819Y-75023809D02*
X108414819Y-75499999D01*
X108414819Y-75499999D02*
X107414819Y-75499999D01*
X107414819Y-75499999D02*
X107414819Y-75023809D01*
X108510057Y-74833333D02*
X108510057Y-74071428D01*
X108414819Y-73357142D02*
X108414819Y-73833332D01*
X108414819Y-73833332D02*
X107414819Y-73833332D01*
X107891009Y-73023808D02*
X107891009Y-72690475D01*
X108414819Y-72547618D02*
X108414819Y-73023808D01*
X108414819Y-73023808D02*
X107414819Y-73023808D01*
X107414819Y-73023808D02*
X107414819Y-72547618D01*
X108414819Y-72119046D02*
X107414819Y-72119046D01*
X107414819Y-72119046D02*
X107414819Y-71880951D01*
X107414819Y-71880951D02*
X107462438Y-71738094D01*
X107462438Y-71738094D02*
X107557676Y-71642856D01*
X107557676Y-71642856D02*
X107652914Y-71595237D01*
X107652914Y-71595237D02*
X107843390Y-71547618D01*
X107843390Y-71547618D02*
X107986247Y-71547618D01*
X107986247Y-71547618D02*
X108176723Y-71595237D01*
X108176723Y-71595237D02*
X108271961Y-71642856D01*
X108271961Y-71642856D02*
X108367200Y-71738094D01*
X108367200Y-71738094D02*
X108414819Y-71880951D01*
X108414819Y-71880951D02*
X108414819Y-72119046D01*
X108414819Y-70595237D02*
X108414819Y-71166665D01*
X108414819Y-70880951D02*
X107414819Y-70880951D01*
X107414819Y-70880951D02*
X107557676Y-70976189D01*
X107557676Y-70976189D02*
X107652914Y-71071427D01*
X107652914Y-71071427D02*
X107700533Y-71166665D01*
X106304819Y-80666666D02*
X105828628Y-80999999D01*
X106304819Y-81238094D02*
X105304819Y-81238094D01*
X105304819Y-81238094D02*
X105304819Y-80857142D01*
X105304819Y-80857142D02*
X105352438Y-80761904D01*
X105352438Y-80761904D02*
X105400057Y-80714285D01*
X105400057Y-80714285D02*
X105495295Y-80666666D01*
X105495295Y-80666666D02*
X105638152Y-80666666D01*
X105638152Y-80666666D02*
X105733390Y-80714285D01*
X105733390Y-80714285D02*
X105781009Y-80761904D01*
X105781009Y-80761904D02*
X105828628Y-80857142D01*
X105828628Y-80857142D02*
X105828628Y-81238094D01*
X105400057Y-80285713D02*
X105352438Y-80238094D01*
X105352438Y-80238094D02*
X105304819Y-80142856D01*
X105304819Y-80142856D02*
X105304819Y-79904761D01*
X105304819Y-79904761D02*
X105352438Y-79809523D01*
X105352438Y-79809523D02*
X105400057Y-79761904D01*
X105400057Y-79761904D02*
X105495295Y-79714285D01*
X105495295Y-79714285D02*
X105590533Y-79714285D01*
X105590533Y-79714285D02*
X105733390Y-79761904D01*
X105733390Y-79761904D02*
X106304819Y-80333332D01*
X106304819Y-80333332D02*
X106304819Y-79714285D01*
X115239819Y-82825000D02*
X115239819Y-83301190D01*
X115239819Y-83301190D02*
X114239819Y-83301190D01*
X115239819Y-82491666D02*
X114573152Y-82491666D01*
X114239819Y-82491666D02*
X114287438Y-82539285D01*
X114287438Y-82539285D02*
X114335057Y-82491666D01*
X114335057Y-82491666D02*
X114287438Y-82444047D01*
X114287438Y-82444047D02*
X114239819Y-82491666D01*
X114239819Y-82491666D02*
X114335057Y-82491666D01*
X114573152Y-82158333D02*
X114573152Y-81777381D01*
X114239819Y-82015476D02*
X115096961Y-82015476D01*
X115096961Y-82015476D02*
X115192200Y-81967857D01*
X115192200Y-81967857D02*
X115239819Y-81872619D01*
X115239819Y-81872619D02*
X115239819Y-81777381D01*
X114573152Y-81586904D02*
X114573152Y-81205952D01*
X114239819Y-81444047D02*
X115096961Y-81444047D01*
X115096961Y-81444047D02*
X115192200Y-81396428D01*
X115192200Y-81396428D02*
X115239819Y-81301190D01*
X115239819Y-81301190D02*
X115239819Y-81205952D01*
X115239819Y-80729761D02*
X115192200Y-80824999D01*
X115192200Y-80824999D02*
X115096961Y-80872618D01*
X115096961Y-80872618D02*
X114239819Y-80872618D01*
X115192200Y-79967856D02*
X115239819Y-80063094D01*
X115239819Y-80063094D02*
X115239819Y-80253570D01*
X115239819Y-80253570D02*
X115192200Y-80348808D01*
X115192200Y-80348808D02*
X115096961Y-80396427D01*
X115096961Y-80396427D02*
X114716009Y-80396427D01*
X114716009Y-80396427D02*
X114620771Y-80348808D01*
X114620771Y-80348808D02*
X114573152Y-80253570D01*
X114573152Y-80253570D02*
X114573152Y-80063094D01*
X114573152Y-80063094D02*
X114620771Y-79967856D01*
X114620771Y-79967856D02*
X114716009Y-79920237D01*
X114716009Y-79920237D02*
X114811247Y-79920237D01*
X114811247Y-79920237D02*
X114906485Y-80396427D01*
X114287438Y-78967856D02*
X114239819Y-79063094D01*
X114239819Y-79063094D02*
X114239819Y-79205951D01*
X114239819Y-79205951D02*
X114287438Y-79348808D01*
X114287438Y-79348808D02*
X114382676Y-79444046D01*
X114382676Y-79444046D02*
X114477914Y-79491665D01*
X114477914Y-79491665D02*
X114668390Y-79539284D01*
X114668390Y-79539284D02*
X114811247Y-79539284D01*
X114811247Y-79539284D02*
X115001723Y-79491665D01*
X115001723Y-79491665D02*
X115096961Y-79444046D01*
X115096961Y-79444046D02*
X115192200Y-79348808D01*
X115192200Y-79348808D02*
X115239819Y-79205951D01*
X115239819Y-79205951D02*
X115239819Y-79110713D01*
X115239819Y-79110713D02*
X115192200Y-78967856D01*
X115192200Y-78967856D02*
X115144580Y-78920237D01*
X115144580Y-78920237D02*
X114811247Y-78920237D01*
X114811247Y-78920237D02*
X114811247Y-79110713D01*
X114573152Y-78063094D02*
X115239819Y-78063094D01*
X114573152Y-78491665D02*
X115096961Y-78491665D01*
X115096961Y-78491665D02*
X115192200Y-78444046D01*
X115192200Y-78444046D02*
X115239819Y-78348808D01*
X115239819Y-78348808D02*
X115239819Y-78205951D01*
X115239819Y-78205951D02*
X115192200Y-78110713D01*
X115192200Y-78110713D02*
X115144580Y-78063094D01*
X114573152Y-77682141D02*
X115239819Y-77444046D01*
X114573152Y-77205951D02*
X115239819Y-77444046D01*
X115239819Y-77444046D02*
X115477914Y-77539284D01*
X115477914Y-77539284D02*
X115525533Y-77586903D01*
X115525533Y-77586903D02*
X115573152Y-77682141D01*
X115239819Y-76301189D02*
X115239819Y-76872617D01*
X115239819Y-76586903D02*
X114239819Y-76586903D01*
X114239819Y-76586903D02*
X114382676Y-76682141D01*
X114382676Y-76682141D02*
X114477914Y-76777379D01*
X114477914Y-76777379D02*
X114525533Y-76872617D01*
X86441009Y-92980237D02*
X86441009Y-92646904D01*
X86964819Y-92504047D02*
X86964819Y-92980237D01*
X86964819Y-92980237D02*
X85964819Y-92980237D01*
X85964819Y-92980237D02*
X85964819Y-92504047D01*
X86917200Y-92123094D02*
X86964819Y-91980237D01*
X86964819Y-91980237D02*
X86964819Y-91742142D01*
X86964819Y-91742142D02*
X86917200Y-91646904D01*
X86917200Y-91646904D02*
X86869580Y-91599285D01*
X86869580Y-91599285D02*
X86774342Y-91551666D01*
X86774342Y-91551666D02*
X86679104Y-91551666D01*
X86679104Y-91551666D02*
X86583866Y-91599285D01*
X86583866Y-91599285D02*
X86536247Y-91646904D01*
X86536247Y-91646904D02*
X86488628Y-91742142D01*
X86488628Y-91742142D02*
X86441009Y-91932618D01*
X86441009Y-91932618D02*
X86393390Y-92027856D01*
X86393390Y-92027856D02*
X86345771Y-92075475D01*
X86345771Y-92075475D02*
X86250533Y-92123094D01*
X86250533Y-92123094D02*
X86155295Y-92123094D01*
X86155295Y-92123094D02*
X86060057Y-92075475D01*
X86060057Y-92075475D02*
X86012438Y-92027856D01*
X86012438Y-92027856D02*
X85964819Y-91932618D01*
X85964819Y-91932618D02*
X85964819Y-91694523D01*
X85964819Y-91694523D02*
X86012438Y-91551666D01*
X86964819Y-91123094D02*
X85964819Y-91123094D01*
X85964819Y-91123094D02*
X85964819Y-90742142D01*
X85964819Y-90742142D02*
X86012438Y-90646904D01*
X86012438Y-90646904D02*
X86060057Y-90599285D01*
X86060057Y-90599285D02*
X86155295Y-90551666D01*
X86155295Y-90551666D02*
X86298152Y-90551666D01*
X86298152Y-90551666D02*
X86393390Y-90599285D01*
X86393390Y-90599285D02*
X86441009Y-90646904D01*
X86441009Y-90646904D02*
X86488628Y-90742142D01*
X86488628Y-90742142D02*
X86488628Y-91123094D01*
X85964819Y-90218332D02*
X85964819Y-89599285D01*
X85964819Y-89599285D02*
X86345771Y-89932618D01*
X86345771Y-89932618D02*
X86345771Y-89789761D01*
X86345771Y-89789761D02*
X86393390Y-89694523D01*
X86393390Y-89694523D02*
X86441009Y-89646904D01*
X86441009Y-89646904D02*
X86536247Y-89599285D01*
X86536247Y-89599285D02*
X86774342Y-89599285D01*
X86774342Y-89599285D02*
X86869580Y-89646904D01*
X86869580Y-89646904D02*
X86917200Y-89694523D01*
X86917200Y-89694523D02*
X86964819Y-89789761D01*
X86964819Y-89789761D02*
X86964819Y-90075475D01*
X86964819Y-90075475D02*
X86917200Y-90170713D01*
X86917200Y-90170713D02*
X86869580Y-90218332D01*
X86060057Y-89218332D02*
X86012438Y-89170713D01*
X86012438Y-89170713D02*
X85964819Y-89075475D01*
X85964819Y-89075475D02*
X85964819Y-88837380D01*
X85964819Y-88837380D02*
X86012438Y-88742142D01*
X86012438Y-88742142D02*
X86060057Y-88694523D01*
X86060057Y-88694523D02*
X86155295Y-88646904D01*
X86155295Y-88646904D02*
X86250533Y-88646904D01*
X86250533Y-88646904D02*
X86393390Y-88694523D01*
X86393390Y-88694523D02*
X86964819Y-89265951D01*
X86964819Y-89265951D02*
X86964819Y-88646904D01*
X86917200Y-88265951D02*
X86964819Y-88123094D01*
X86964819Y-88123094D02*
X86964819Y-87884999D01*
X86964819Y-87884999D02*
X86917200Y-87789761D01*
X86917200Y-87789761D02*
X86869580Y-87742142D01*
X86869580Y-87742142D02*
X86774342Y-87694523D01*
X86774342Y-87694523D02*
X86679104Y-87694523D01*
X86679104Y-87694523D02*
X86583866Y-87742142D01*
X86583866Y-87742142D02*
X86536247Y-87789761D01*
X86536247Y-87789761D02*
X86488628Y-87884999D01*
X86488628Y-87884999D02*
X86441009Y-88075475D01*
X86441009Y-88075475D02*
X86393390Y-88170713D01*
X86393390Y-88170713D02*
X86345771Y-88218332D01*
X86345771Y-88218332D02*
X86250533Y-88265951D01*
X86250533Y-88265951D02*
X86155295Y-88265951D01*
X86155295Y-88265951D02*
X86060057Y-88218332D01*
X86060057Y-88218332D02*
X86012438Y-88170713D01*
X86012438Y-88170713D02*
X85964819Y-88075475D01*
X85964819Y-88075475D02*
X85964819Y-87837380D01*
X85964819Y-87837380D02*
X86012438Y-87694523D01*
X85964819Y-87361189D02*
X85964819Y-86742142D01*
X85964819Y-86742142D02*
X86345771Y-87075475D01*
X86345771Y-87075475D02*
X86345771Y-86932618D01*
X86345771Y-86932618D02*
X86393390Y-86837380D01*
X86393390Y-86837380D02*
X86441009Y-86789761D01*
X86441009Y-86789761D02*
X86536247Y-86742142D01*
X86536247Y-86742142D02*
X86774342Y-86742142D01*
X86774342Y-86742142D02*
X86869580Y-86789761D01*
X86869580Y-86789761D02*
X86917200Y-86837380D01*
X86917200Y-86837380D02*
X86964819Y-86932618D01*
X86964819Y-86932618D02*
X86964819Y-87218332D01*
X86964819Y-87218332D02*
X86917200Y-87313570D01*
X86917200Y-87313570D02*
X86869580Y-87361189D01*
X77493866Y-94665951D02*
X77493866Y-93904047D01*
D11*
X80360476Y-89658890D02*
X80360476Y-90158890D01*
X80360476Y-90158890D02*
X80241428Y-90158890D01*
X80241428Y-90158890D02*
X80170000Y-90135080D01*
X80170000Y-90135080D02*
X80122381Y-90087461D01*
X80122381Y-90087461D02*
X80098571Y-90039842D01*
X80098571Y-90039842D02*
X80074762Y-89944604D01*
X80074762Y-89944604D02*
X80074762Y-89873176D01*
X80074762Y-89873176D02*
X80098571Y-89777938D01*
X80098571Y-89777938D02*
X80122381Y-89730319D01*
X80122381Y-89730319D02*
X80170000Y-89682700D01*
X80170000Y-89682700D02*
X80241428Y-89658890D01*
X80241428Y-89658890D02*
X80360476Y-89658890D01*
X79860476Y-89849366D02*
X79479524Y-89849366D01*
X73309047Y-87118890D02*
X73309047Y-87618890D01*
X73309047Y-87618890D02*
X73142380Y-87261747D01*
X73142380Y-87261747D02*
X72975714Y-87618890D01*
X72975714Y-87618890D02*
X72975714Y-87118890D01*
X72809046Y-87618890D02*
X72523332Y-87618890D01*
X72666189Y-87118890D02*
X72666189Y-87618890D01*
X72356666Y-87118890D02*
X72356666Y-87618890D01*
X72356666Y-87618890D02*
X72237618Y-87618890D01*
X72237618Y-87618890D02*
X72166190Y-87595080D01*
X72166190Y-87595080D02*
X72118571Y-87547461D01*
X72118571Y-87547461D02*
X72094761Y-87499842D01*
X72094761Y-87499842D02*
X72070952Y-87404604D01*
X72070952Y-87404604D02*
X72070952Y-87333176D01*
X72070952Y-87333176D02*
X72094761Y-87237938D01*
X72094761Y-87237938D02*
X72118571Y-87190319D01*
X72118571Y-87190319D02*
X72166190Y-87142700D01*
X72166190Y-87142700D02*
X72237618Y-87118890D01*
X72237618Y-87118890D02*
X72356666Y-87118890D01*
X71761428Y-87618890D02*
X71666190Y-87618890D01*
X71666190Y-87618890D02*
X71618571Y-87595080D01*
X71618571Y-87595080D02*
X71570952Y-87547461D01*
X71570952Y-87547461D02*
X71547142Y-87452223D01*
X71547142Y-87452223D02*
X71547142Y-87285557D01*
X71547142Y-87285557D02*
X71570952Y-87190319D01*
X71570952Y-87190319D02*
X71618571Y-87142700D01*
X71618571Y-87142700D02*
X71666190Y-87118890D01*
X71666190Y-87118890D02*
X71761428Y-87118890D01*
X71761428Y-87118890D02*
X71809047Y-87142700D01*
X71809047Y-87142700D02*
X71856666Y-87190319D01*
X71856666Y-87190319D02*
X71880475Y-87285557D01*
X71880475Y-87285557D02*
X71880475Y-87452223D01*
X71880475Y-87452223D02*
X71856666Y-87547461D01*
X71856666Y-87547461D02*
X71809047Y-87595080D01*
X71809047Y-87595080D02*
X71761428Y-87618890D01*
X75349047Y-89920795D02*
X75182380Y-89920795D01*
X75110952Y-89658890D02*
X75349047Y-89658890D01*
X75349047Y-89658890D02*
X75349047Y-90158890D01*
X75349047Y-90158890D02*
X75110952Y-90158890D01*
X74896666Y-89658890D02*
X74896666Y-90158890D01*
X74896666Y-90158890D02*
X74610952Y-89658890D01*
X74610952Y-89658890D02*
X74610952Y-90158890D01*
X78400952Y-89658890D02*
X78400952Y-90158890D01*
X78400952Y-90158890D02*
X78234285Y-89801747D01*
X78234285Y-89801747D02*
X78067619Y-90158890D01*
X78067619Y-90158890D02*
X78067619Y-89658890D01*
X77900951Y-90158890D02*
X77615237Y-90158890D01*
X77758094Y-89658890D02*
X77758094Y-90158890D01*
X77448571Y-89658890D02*
X77448571Y-90158890D01*
X77448571Y-90158890D02*
X77281904Y-89801747D01*
X77281904Y-89801747D02*
X77115238Y-90158890D01*
X77115238Y-90158890D02*
X77115238Y-89658890D01*
X76900951Y-89682700D02*
X76829523Y-89658890D01*
X76829523Y-89658890D02*
X76710475Y-89658890D01*
X76710475Y-89658890D02*
X76662856Y-89682700D01*
X76662856Y-89682700D02*
X76639047Y-89706509D01*
X76639047Y-89706509D02*
X76615237Y-89754128D01*
X76615237Y-89754128D02*
X76615237Y-89801747D01*
X76615237Y-89801747D02*
X76639047Y-89849366D01*
X76639047Y-89849366D02*
X76662856Y-89873176D01*
X76662856Y-89873176D02*
X76710475Y-89896985D01*
X76710475Y-89896985D02*
X76805713Y-89920795D01*
X76805713Y-89920795D02*
X76853332Y-89944604D01*
X76853332Y-89944604D02*
X76877142Y-89968414D01*
X76877142Y-89968414D02*
X76900951Y-90016033D01*
X76900951Y-90016033D02*
X76900951Y-90063652D01*
X76900951Y-90063652D02*
X76877142Y-90111271D01*
X76877142Y-90111271D02*
X76853332Y-90135080D01*
X76853332Y-90135080D02*
X76805713Y-90158890D01*
X76805713Y-90158890D02*
X76686666Y-90158890D01*
X76686666Y-90158890D02*
X76615237Y-90135080D01*
X84903332Y-86658890D02*
X84617618Y-86658890D01*
X84760475Y-86158890D02*
X84760475Y-86658890D01*
X84450952Y-86158890D02*
X84450952Y-86658890D01*
X84450952Y-86420795D02*
X84165238Y-86420795D01*
X84165238Y-86158890D02*
X84165238Y-86658890D01*
X83927142Y-86420795D02*
X83760475Y-86420795D01*
X83689047Y-86158890D02*
X83927142Y-86158890D01*
X83927142Y-86158890D02*
X83927142Y-86658890D01*
X83927142Y-86658890D02*
X83689047Y-86658890D01*
X83189047Y-86158890D02*
X83355713Y-86396985D01*
X83474761Y-86158890D02*
X83474761Y-86658890D01*
X83474761Y-86658890D02*
X83284285Y-86658890D01*
X83284285Y-86658890D02*
X83236666Y-86635080D01*
X83236666Y-86635080D02*
X83212856Y-86611271D01*
X83212856Y-86611271D02*
X83189047Y-86563652D01*
X83189047Y-86563652D02*
X83189047Y-86492223D01*
X83189047Y-86492223D02*
X83212856Y-86444604D01*
X83212856Y-86444604D02*
X83236666Y-86420795D01*
X83236666Y-86420795D02*
X83284285Y-86396985D01*
X83284285Y-86396985D02*
X83474761Y-86396985D01*
X82974761Y-86158890D02*
X82974761Y-86658890D01*
X82974761Y-86658890D02*
X82808094Y-86301747D01*
X82808094Y-86301747D02*
X82641428Y-86658890D01*
X82641428Y-86658890D02*
X82641428Y-86158890D01*
X82427141Y-86301747D02*
X82189046Y-86301747D01*
X82474760Y-86158890D02*
X82308094Y-86658890D01*
X82308094Y-86658890D02*
X82141427Y-86158890D01*
X81736666Y-86158890D02*
X81974761Y-86158890D01*
X81974761Y-86158890D02*
X81974761Y-86658890D01*
X80360476Y-87158890D02*
X80360476Y-87658890D01*
X80360476Y-87658890D02*
X80241428Y-87658890D01*
X80241428Y-87658890D02*
X80170000Y-87635080D01*
X80170000Y-87635080D02*
X80122381Y-87587461D01*
X80122381Y-87587461D02*
X80098571Y-87539842D01*
X80098571Y-87539842D02*
X80074762Y-87444604D01*
X80074762Y-87444604D02*
X80074762Y-87373176D01*
X80074762Y-87373176D02*
X80098571Y-87277938D01*
X80098571Y-87277938D02*
X80122381Y-87230319D01*
X80122381Y-87230319D02*
X80170000Y-87182700D01*
X80170000Y-87182700D02*
X80241428Y-87158890D01*
X80241428Y-87158890D02*
X80360476Y-87158890D01*
X79860476Y-87349366D02*
X79479524Y-87349366D01*
X79670000Y-87158890D02*
X79670000Y-87539842D01*
D10*
X82593866Y-94665951D02*
X82593866Y-93904047D01*
X82974819Y-94284999D02*
X82212914Y-94284999D01*
D11*
X75360952Y-87595080D02*
X75408571Y-87618890D01*
X75408571Y-87618890D02*
X75480000Y-87618890D01*
X75480000Y-87618890D02*
X75551428Y-87595080D01*
X75551428Y-87595080D02*
X75599047Y-87547461D01*
X75599047Y-87547461D02*
X75622857Y-87499842D01*
X75622857Y-87499842D02*
X75646666Y-87404604D01*
X75646666Y-87404604D02*
X75646666Y-87333176D01*
X75646666Y-87333176D02*
X75622857Y-87237938D01*
X75622857Y-87237938D02*
X75599047Y-87190319D01*
X75599047Y-87190319D02*
X75551428Y-87142700D01*
X75551428Y-87142700D02*
X75480000Y-87118890D01*
X75480000Y-87118890D02*
X75432381Y-87118890D01*
X75432381Y-87118890D02*
X75360952Y-87142700D01*
X75360952Y-87142700D02*
X75337143Y-87166509D01*
X75337143Y-87166509D02*
X75337143Y-87333176D01*
X75337143Y-87333176D02*
X75432381Y-87333176D01*
X75122857Y-87118890D02*
X75122857Y-87618890D01*
X75122857Y-87618890D02*
X74837143Y-87118890D01*
X74837143Y-87118890D02*
X74837143Y-87618890D01*
X74599047Y-87118890D02*
X74599047Y-87618890D01*
X74599047Y-87618890D02*
X74479999Y-87618890D01*
X74479999Y-87618890D02*
X74408571Y-87595080D01*
X74408571Y-87595080D02*
X74360952Y-87547461D01*
X74360952Y-87547461D02*
X74337142Y-87499842D01*
X74337142Y-87499842D02*
X74313333Y-87404604D01*
X74313333Y-87404604D02*
X74313333Y-87333176D01*
X74313333Y-87333176D02*
X74337142Y-87237938D01*
X74337142Y-87237938D02*
X74360952Y-87190319D01*
X74360952Y-87190319D02*
X74408571Y-87142700D01*
X74408571Y-87142700D02*
X74479999Y-87118890D01*
X74479999Y-87118890D02*
X74599047Y-87118890D01*
X73166190Y-89658890D02*
X73166190Y-90158890D01*
X73166190Y-90158890D02*
X72999523Y-89801747D01*
X72999523Y-89801747D02*
X72832857Y-90158890D01*
X72832857Y-90158890D02*
X72832857Y-89658890D01*
X72666189Y-90158890D02*
X72380475Y-90158890D01*
X72523332Y-89658890D02*
X72523332Y-90158890D01*
X72213809Y-89658890D02*
X72213809Y-90158890D01*
X72213809Y-90158890D02*
X72094761Y-90158890D01*
X72094761Y-90158890D02*
X72023333Y-90135080D01*
X72023333Y-90135080D02*
X71975714Y-90087461D01*
X71975714Y-90087461D02*
X71951904Y-90039842D01*
X71951904Y-90039842D02*
X71928095Y-89944604D01*
X71928095Y-89944604D02*
X71928095Y-89873176D01*
X71928095Y-89873176D02*
X71951904Y-89777938D01*
X71951904Y-89777938D02*
X71975714Y-89730319D01*
X71975714Y-89730319D02*
X72023333Y-89682700D01*
X72023333Y-89682700D02*
X72094761Y-89658890D01*
X72094761Y-89658890D02*
X72213809Y-89658890D01*
X71713809Y-89658890D02*
X71713809Y-90158890D01*
X78377142Y-87118890D02*
X78377142Y-87618890D01*
X78377142Y-87618890D02*
X78210475Y-87261747D01*
X78210475Y-87261747D02*
X78043809Y-87618890D01*
X78043809Y-87618890D02*
X78043809Y-87118890D01*
X77877141Y-87618890D02*
X77591427Y-87618890D01*
X77734284Y-87118890D02*
X77734284Y-87618890D01*
X77139047Y-87166509D02*
X77162856Y-87142700D01*
X77162856Y-87142700D02*
X77234285Y-87118890D01*
X77234285Y-87118890D02*
X77281904Y-87118890D01*
X77281904Y-87118890D02*
X77353332Y-87142700D01*
X77353332Y-87142700D02*
X77400951Y-87190319D01*
X77400951Y-87190319D02*
X77424761Y-87237938D01*
X77424761Y-87237938D02*
X77448570Y-87333176D01*
X77448570Y-87333176D02*
X77448570Y-87404604D01*
X77448570Y-87404604D02*
X77424761Y-87499842D01*
X77424761Y-87499842D02*
X77400951Y-87547461D01*
X77400951Y-87547461D02*
X77353332Y-87595080D01*
X77353332Y-87595080D02*
X77281904Y-87618890D01*
X77281904Y-87618890D02*
X77234285Y-87618890D01*
X77234285Y-87618890D02*
X77162856Y-87595080D01*
X77162856Y-87595080D02*
X77139047Y-87571271D01*
X76924761Y-87118890D02*
X76924761Y-87618890D01*
X76639047Y-87118890D02*
X76853332Y-87404604D01*
X76639047Y-87618890D02*
X76924761Y-87333176D01*
D10*
X85758095Y-94368990D02*
X85615238Y-94321371D01*
X85615238Y-94321371D02*
X85567619Y-94273752D01*
X85567619Y-94273752D02*
X85520000Y-94178514D01*
X85520000Y-94178514D02*
X85520000Y-94035657D01*
X85520000Y-94035657D02*
X85567619Y-93940419D01*
X85567619Y-93940419D02*
X85615238Y-93892800D01*
X85615238Y-93892800D02*
X85710476Y-93845180D01*
X85710476Y-93845180D02*
X86091428Y-93845180D01*
X86091428Y-93845180D02*
X86091428Y-94845180D01*
X86091428Y-94845180D02*
X85758095Y-94845180D01*
X85758095Y-94845180D02*
X85662857Y-94797561D01*
X85662857Y-94797561D02*
X85615238Y-94749942D01*
X85615238Y-94749942D02*
X85567619Y-94654704D01*
X85567619Y-94654704D02*
X85567619Y-94559466D01*
X85567619Y-94559466D02*
X85615238Y-94464228D01*
X85615238Y-94464228D02*
X85662857Y-94416609D01*
X85662857Y-94416609D02*
X85758095Y-94368990D01*
X85758095Y-94368990D02*
X86091428Y-94368990D01*
X85139047Y-94130895D02*
X84662857Y-94130895D01*
X85234285Y-93845180D02*
X84900952Y-94845180D01*
X84900952Y-94845180D02*
X84567619Y-93845180D01*
X84377142Y-94845180D02*
X83805714Y-94845180D01*
X84091428Y-93845180D02*
X84091428Y-94845180D01*
X96804819Y-80666666D02*
X96328628Y-80999999D01*
X96804819Y-81238094D02*
X95804819Y-81238094D01*
X95804819Y-81238094D02*
X95804819Y-80857142D01*
X95804819Y-80857142D02*
X95852438Y-80761904D01*
X95852438Y-80761904D02*
X95900057Y-80714285D01*
X95900057Y-80714285D02*
X95995295Y-80666666D01*
X95995295Y-80666666D02*
X96138152Y-80666666D01*
X96138152Y-80666666D02*
X96233390Y-80714285D01*
X96233390Y-80714285D02*
X96281009Y-80761904D01*
X96281009Y-80761904D02*
X96328628Y-80857142D01*
X96328628Y-80857142D02*
X96328628Y-81238094D01*
X96804819Y-79714285D02*
X96804819Y-80285713D01*
X96804819Y-79999999D02*
X95804819Y-79999999D01*
X95804819Y-79999999D02*
X95947676Y-80095237D01*
X95947676Y-80095237D02*
X96042914Y-80190475D01*
X96042914Y-80190475D02*
X96090533Y-80285713D01*
D12*
%TO.C,RED_LED1*%
X91235516Y-72940000D02*
G75*
G02*
X91080061Y-76171397I-1235516J-1560000D01*
G01*
X91080000Y-73459039D02*
G75*
G02*
X91080049Y-75540910I-1080000J-1040961D01*
G01*
X88919951Y-75540910D02*
G75*
G02*
X88920000Y-73459039I1080049J1040910D01*
G01*
X88919939Y-76171397D02*
G75*
G02*
X88764484Y-72940000I1080061J1671397D01*
G01*
X91236000Y-72940000D02*
X91080000Y-72940000D01*
X88920000Y-72940000D02*
X88764000Y-72940000D01*
%TO.C,PULLUP_4.7K_R3*%
X114070000Y-108000000D02*
X114070000Y-110000000D01*
X111930000Y-110000000D02*
X111930000Y-108000000D01*
D13*
%TO.C,TempSensor1*%
X118140000Y-104050000D02*
G75*
G02*
X117940000Y-104050000I-100000J0D01*
G01*
X117940000Y-104050000D02*
G75*
G02*
X118140000Y-104050000I100000J0D01*
G01*
D14*
X118935000Y-106575000D02*
X122035000Y-106575000D01*
X118935000Y-103475000D02*
X122035000Y-103475000D01*
D12*
%TO.C,PULLUP_4.7K_R1*%
X116500000Y-101570000D02*
X114500000Y-101570000D01*
X114500000Y-99430000D02*
X116500000Y-99430000D01*
%TO.C,BYPASS_CAP_.1UF1*%
X127570000Y-102000000D02*
X127570000Y-104000000D01*
X125430000Y-104000000D02*
X125430000Y-102000000D01*
%TO.C,PULLUP_4.7K_R2*%
X109500000Y-105070000D02*
X107500000Y-105070000D01*
X107500000Y-102930000D02*
X109500000Y-102930000D01*
%TO.C,BLUE_LED1*%
X103920000Y-72940000D02*
X103764000Y-72940000D01*
X106236000Y-72940000D02*
X106080000Y-72940000D01*
X103919939Y-76171397D02*
G75*
G02*
X103764484Y-72940000I1080061J1671397D01*
G01*
X103919951Y-75540910D02*
G75*
G02*
X103920000Y-73459039I1080049J1040910D01*
G01*
X106080000Y-73459039D02*
G75*
G02*
X106080049Y-75540910I-1080000J-1040961D01*
G01*
X106235516Y-72940000D02*
G75*
G02*
X106080061Y-76171397I-1235516J-1560000D01*
G01*
%TO.C,R2*%
X102930000Y-81500000D02*
X102930000Y-79500000D01*
X105070000Y-79500000D02*
X105070000Y-81500000D01*
D14*
%TO.C,LittleGuy1*%
X115824000Y-73540000D02*
X115824000Y-72428000D01*
X115824000Y-81572000D02*
X115824000Y-80460000D01*
X117348000Y-70904000D02*
X120920000Y-70904000D01*
X120920000Y-83096000D02*
X117348000Y-83096000D01*
X122920000Y-70904000D02*
X126492000Y-70904000D01*
X126492000Y-83096000D02*
X122920000Y-83096000D01*
X128016000Y-72428000D02*
X128016000Y-73540000D01*
X128016000Y-80460000D02*
X128016000Y-81572000D01*
X115824000Y-72428000D02*
G75*
G02*
X117348000Y-70904000I1524000J0D01*
G01*
X117348000Y-83096000D02*
G75*
G02*
X115824000Y-81572000I-1J1523999D01*
G01*
X126492000Y-70904000D02*
G75*
G02*
X128016000Y-72428000I0J-1524000D01*
G01*
X128016000Y-81572000D02*
G75*
G02*
X126492000Y-83096000I-1523999J-1D01*
G01*
D12*
%TO.C,ESP32S3*%
X70589000Y-97502500D02*
X70589000Y-82262500D01*
X71859000Y-80992500D02*
X90401000Y-80992500D01*
X90401000Y-98772500D02*
X71859000Y-98772500D01*
X91671000Y-82262500D02*
X91671000Y-97502500D01*
X70589000Y-94382500D02*
X69065000Y-94382500D01*
X69065000Y-85382500D01*
X70589000Y-85382500D01*
X70589000Y-94382500D01*
X70589000Y-82262500D02*
G75*
G02*
X71859000Y-80992500I1270000J0D01*
G01*
X71859000Y-98772500D02*
G75*
G02*
X70589000Y-97502500I-1J1269999D01*
G01*
X90401000Y-80992500D02*
G75*
G02*
X91671000Y-82262500I0J-1270000D01*
G01*
X91671000Y-97502500D02*
G75*
G02*
X90401000Y-98772500I-1269999J-1D01*
G01*
%TO.C,R1*%
X93430000Y-81500000D02*
X93430000Y-79500000D01*
X95570000Y-79500000D02*
X95570000Y-81500000D01*
%TD*%
M02*
