%TF.GenerationSoftware,KiCad,Pcbnew,9.0.4*%
%TF.CreationDate,2026-04-29T10:12:37-04:00*%
%TF.ProjectId,_autosave-HypoV PCB,5f617574-6f73-4617-9665-2d4879706f56,rev?*%
%TF.SameCoordinates,Original*%
%TF.FileFunction,Paste,Top*%
%TF.FilePolarity,Positive*%
%FSLAX46Y46*%
G04 Gerber Fmt 4.6, Leading zero omitted, Abs format (unit mm)*
G04 Created by KiCad (PCBNEW 9.0.4) date 2026-04-29 10:12:37*
%MOMM*%
%LPD*%
G01*
G04 APERTURE LIST*
G04 Aperture macros list*
%AMRoundRect*
0 Rectangle with rounded corners*
0 $1 Rounding radius*
0 $2 $3 $4 $5 $6 $7 $8 $9 X,Y pos of 4 corners*
0 Add a 4 corners polygon primitive as box body*
4,1,4,$2,$3,$4,$5,$6,$7,$8,$9,$2,$3,0*
0 Add four circle primitives for the rounded corners*
1,1,$1+$1,$2,$3*
1,1,$1+$1,$4,$5*
1,1,$1+$1,$6,$7*
1,1,$1+$1,$8,$9*
0 Add four rect primitives between the rounded corners*
20,1,$1+$1,$2,$3,$4,$5,0*
20,1,$1+$1,$4,$5,$6,$7,0*
20,1,$1+$1,$6,$7,$8,$9,0*
20,1,$1+$1,$8,$9,$2,$3,0*%
G04 Aperture macros list end*
%ADD10C,0.010000*%
%ADD11R,1.600000X1.200000*%
%ADD12RoundRect,0.040000X-0.340000X-0.120000X0.340000X-0.120000X0.340000X0.120000X-0.340000X0.120000X0*%
%ADD13R,1.200000X1.600000*%
%ADD14R,1.600000X3.000000*%
%ADD15R,1.200000X2.400000*%
%ADD16C,1.200000*%
%ADD17R,3.000000X3.000000*%
G04 APERTURE END LIST*
D10*
%TO.C,TempSensor1*%
X120955000Y-105755000D02*
X120015000Y-105755000D01*
X120015000Y-104295000D01*
X120955000Y-104295000D01*
X120955000Y-105755000D01*
G36*
X120955000Y-105755000D02*
G01*
X120015000Y-105755000D01*
X120015000Y-104295000D01*
X120955000Y-104295000D01*
X120955000Y-105755000D01*
G37*
%TD*%
D11*
%TO.C,PULLUP_4.7K_R3*%
X113000000Y-107500000D03*
X113000000Y-110500000D03*
%TD*%
D12*
%TO.C,TempSensor1*%
X121970000Y-104050000D03*
X121970000Y-104700000D03*
X121970000Y-105350000D03*
X121970000Y-106000000D03*
X119000000Y-106000000D03*
X119000000Y-105350000D03*
X119000000Y-104700000D03*
X119000000Y-104050000D03*
%TD*%
D13*
%TO.C,PULLUP_4.7K_R1*%
X114000000Y-100500000D03*
X117000000Y-100500000D03*
%TD*%
D11*
%TO.C,BYPASS_CAP_.1UF1*%
X126500000Y-104500000D03*
X126500000Y-101500000D03*
%TD*%
D13*
%TO.C,PULLUP_4.7K_R2*%
X107000000Y-104000000D03*
X110000000Y-104000000D03*
%TD*%
D11*
%TO.C,R2*%
X104000000Y-79000000D03*
X104000000Y-82000000D03*
%TD*%
D14*
%TO.C,ESP32S3*%
X73500000Y-98500000D03*
X76040000Y-98500000D03*
X78580000Y-98500000D03*
X81120000Y-98500000D03*
X83660000Y-98500000D03*
X86200000Y-98500000D03*
X88740000Y-98500000D03*
X88740000Y-81265000D03*
X86200000Y-81265000D03*
X83660000Y-81265000D03*
X81120000Y-81265000D03*
X78580000Y-81265000D03*
X76040000Y-81265000D03*
X73500000Y-81265000D03*
D15*
X78820000Y-94385000D03*
X80920000Y-94385000D03*
D16*
X72440000Y-91155000D03*
X74980000Y-91155000D03*
X77520000Y-91155000D03*
X77520000Y-88615000D03*
X74980000Y-88615000D03*
X72440000Y-88615000D03*
X79920000Y-91135000D03*
X79920000Y-88635000D03*
D17*
X83420000Y-88585000D03*
%TD*%
D11*
%TO.C,R1*%
X94500000Y-79000000D03*
X94500000Y-82000000D03*
%TD*%
M02*
