%TF.GenerationSoftware,KiCad,Pcbnew,9.0.4*%
%TF.CreationDate,2026-05-01T16:48:10-04:00*%
%TF.ProjectId,HypoV Breakout,4879706f-5620-4427-9265-616b6f75742e,rev?*%
%TF.SameCoordinates,Original*%
%TF.FileFunction,Copper,L1,Top*%
%TF.FilePolarity,Positive*%
%FSLAX46Y46*%
G04 Gerber Fmt 4.6, Leading zero omitted, Abs format (unit mm)*
G04 Created by KiCad (PCBNEW 9.0.4) date 2026-05-01 16:48:10*
%MOMM*%
%LPD*%
G01*
G04 APERTURE LIST*
%TA.AperFunction,ComponentPad*%
%ADD10R,1.700000X1.700000*%
%TD*%
%TA.AperFunction,ComponentPad*%
%ADD11C,1.700000*%
%TD*%
G04 APERTURE END LIST*
D10*
%TO.P,J1,1,Pin_1*%
%TO.N,unconnected-(J1-Pin_1-Pad1)*%
X120440000Y-69117601D03*
D11*
%TO.P,J1,2,Pin_2*%
%TO.N,unconnected-(J1-Pin_2-Pad2)*%
X120440000Y-71657601D03*
%TO.P,J1,3,Pin_3*%
%TO.N,unconnected-(J1-Pin_3-Pad3)*%
X120440000Y-74197601D03*
%TO.P,J1,4,Pin_4*%
%TO.N,unconnected-(J1-Pin_4-Pad4)*%
X120440000Y-76737601D03*
%TO.P,J1,5,Pin_5*%
%TO.N,unconnected-(J1-Pin_5-Pad5)*%
X120440000Y-79277601D03*
%TD*%
D10*
%TO.P,J3,1,Pin_1*%
%TO.N,unconnected-(J3-Pin_1-Pad1)*%
X96500000Y-68840000D03*
D11*
%TO.P,J3,2,Pin_2*%
%TO.N,unconnected-(J3-Pin_2-Pad2)*%
X96500000Y-71380000D03*
%TO.P,J3,3,Pin_3*%
%TO.N,unconnected-(J3-Pin_3-Pad3)*%
X96500000Y-73920000D03*
%TO.P,J3,4,Pin_4*%
%TO.N,unconnected-(J3-Pin_4-Pad4)*%
X96500000Y-76460000D03*
%TO.P,J3,5,Pin_5*%
%TO.N,unconnected-(J3-Pin_5-Pad5)*%
X96500000Y-79000000D03*
%TD*%
%TA.AperFunction,Conductor*%
%TO.N,unconnected-(J3-Pin_5-Pad5)*%
G36*
X111442539Y-66520185D02*
G01*
X111488294Y-66572989D01*
X111499500Y-66624500D01*
X111499500Y-82875500D01*
X111479815Y-82942539D01*
X111427011Y-82988294D01*
X111375500Y-82999500D01*
X90124500Y-82999500D01*
X90057461Y-82979815D01*
X90011706Y-82927011D01*
X90000500Y-82875500D01*
X90000500Y-67942135D01*
X95149500Y-67942135D01*
X95149500Y-69737870D01*
X95149501Y-69737876D01*
X95155908Y-69797483D01*
X95206202Y-69932328D01*
X95206206Y-69932335D01*
X95292452Y-70047544D01*
X95292455Y-70047547D01*
X95407664Y-70133793D01*
X95407671Y-70133797D01*
X95539082Y-70182810D01*
X95595016Y-70224681D01*
X95619433Y-70290145D01*
X95604582Y-70358418D01*
X95583431Y-70386673D01*
X95469889Y-70500215D01*
X95344951Y-70672179D01*
X95248444Y-70861585D01*
X95182753Y-71063760D01*
X95149500Y-71273713D01*
X95149500Y-71486286D01*
X95182753Y-71696239D01*
X95248444Y-71898414D01*
X95344951Y-72087820D01*
X95469890Y-72259786D01*
X95620213Y-72410109D01*
X95792182Y-72535050D01*
X95800946Y-72539516D01*
X95851742Y-72587491D01*
X95868536Y-72655312D01*
X95845998Y-72721447D01*
X95800946Y-72760484D01*
X95792182Y-72764949D01*
X95620213Y-72889890D01*
X95469890Y-73040213D01*
X95344951Y-73212179D01*
X95248444Y-73401585D01*
X95182753Y-73603760D01*
X95149500Y-73813713D01*
X95149500Y-74026286D01*
X95182753Y-74236239D01*
X95248444Y-74438414D01*
X95344951Y-74627820D01*
X95469890Y-74799786D01*
X95620213Y-74950109D01*
X95792182Y-75075050D01*
X95800946Y-75079516D01*
X95851742Y-75127491D01*
X95868536Y-75195312D01*
X95845998Y-75261447D01*
X95800946Y-75300484D01*
X95792182Y-75304949D01*
X95620213Y-75429890D01*
X95469890Y-75580213D01*
X95344951Y-75752179D01*
X95248444Y-75941585D01*
X95182753Y-76143760D01*
X95149500Y-76353713D01*
X95149500Y-76566286D01*
X95182753Y-76776239D01*
X95248444Y-76978414D01*
X95344951Y-77167820D01*
X95469890Y-77339786D01*
X95620213Y-77490109D01*
X95792179Y-77615048D01*
X95792181Y-77615049D01*
X95792184Y-77615051D01*
X95801493Y-77619794D01*
X95852290Y-77667766D01*
X95869087Y-77735587D01*
X95846552Y-77801722D01*
X95801505Y-77840760D01*
X95792446Y-77845376D01*
X95792440Y-77845380D01*
X95738282Y-77884727D01*
X95738282Y-77884728D01*
X96370591Y-78517037D01*
X96307007Y-78534075D01*
X96192993Y-78599901D01*
X96099901Y-78692993D01*
X96034075Y-78807007D01*
X96017037Y-78870591D01*
X95384728Y-78238282D01*
X95384727Y-78238282D01*
X95345380Y-78292439D01*
X95248904Y-78481782D01*
X95183242Y-78683869D01*
X95183242Y-78683872D01*
X95150000Y-78893753D01*
X95150000Y-79106246D01*
X95183242Y-79316127D01*
X95183242Y-79316130D01*
X95248904Y-79518217D01*
X95345375Y-79707550D01*
X95384728Y-79761716D01*
X96017037Y-79129408D01*
X96034075Y-79192993D01*
X96099901Y-79307007D01*
X96192993Y-79400099D01*
X96307007Y-79465925D01*
X96370590Y-79482962D01*
X95738282Y-80115269D01*
X95738282Y-80115270D01*
X95792449Y-80154624D01*
X95981782Y-80251095D01*
X96183870Y-80316757D01*
X96393754Y-80350000D01*
X96606246Y-80350000D01*
X96816127Y-80316757D01*
X96816130Y-80316757D01*
X97018217Y-80251095D01*
X97207554Y-80154622D01*
X97261716Y-80115270D01*
X97261717Y-80115270D01*
X96629408Y-79482962D01*
X96692993Y-79465925D01*
X96807007Y-79400099D01*
X96900099Y-79307007D01*
X96965925Y-79192993D01*
X96982962Y-79129408D01*
X97615270Y-79761717D01*
X97615270Y-79761716D01*
X97654622Y-79707554D01*
X97751095Y-79518217D01*
X97816757Y-79316130D01*
X97816757Y-79316127D01*
X97850000Y-79106246D01*
X97850000Y-78893753D01*
X97816757Y-78683872D01*
X97816757Y-78683869D01*
X97751095Y-78481782D01*
X97654624Y-78292449D01*
X97615270Y-78238282D01*
X97615269Y-78238282D01*
X96982962Y-78870590D01*
X96965925Y-78807007D01*
X96900099Y-78692993D01*
X96807007Y-78599901D01*
X96692993Y-78534075D01*
X96629409Y-78517037D01*
X97261716Y-77884728D01*
X97207547Y-77845373D01*
X97207547Y-77845372D01*
X97198500Y-77840763D01*
X97147706Y-77792788D01*
X97130912Y-77724966D01*
X97153451Y-77658832D01*
X97198508Y-77619793D01*
X97207816Y-77615051D01*
X97287007Y-77557515D01*
X97379786Y-77490109D01*
X97379788Y-77490106D01*
X97379792Y-77490104D01*
X97530104Y-77339792D01*
X97530106Y-77339788D01*
X97530109Y-77339786D01*
X97655048Y-77167820D01*
X97655047Y-77167820D01*
X97655051Y-77167816D01*
X97751557Y-76978412D01*
X97817246Y-76776243D01*
X97850500Y-76566287D01*
X97850500Y-76353713D01*
X97817246Y-76143757D01*
X97751557Y-75941588D01*
X97655051Y-75752184D01*
X97655049Y-75752181D01*
X97655048Y-75752179D01*
X97530109Y-75580213D01*
X97379786Y-75429890D01*
X97207820Y-75304951D01*
X97207115Y-75304591D01*
X97199054Y-75300485D01*
X97148259Y-75252512D01*
X97131463Y-75184692D01*
X97153999Y-75118556D01*
X97199054Y-75079515D01*
X97207816Y-75075051D01*
X97229789Y-75059086D01*
X97379786Y-74950109D01*
X97379788Y-74950106D01*
X97379792Y-74950104D01*
X97530104Y-74799792D01*
X97530106Y-74799788D01*
X97530109Y-74799786D01*
X97655048Y-74627820D01*
X97655047Y-74627820D01*
X97655051Y-74627816D01*
X97751557Y-74438412D01*
X97817246Y-74236243D01*
X97850500Y-74026287D01*
X97850500Y-73813713D01*
X97817246Y-73603757D01*
X97751557Y-73401588D01*
X97655051Y-73212184D01*
X97655049Y-73212181D01*
X97655048Y-73212179D01*
X97530109Y-73040213D01*
X97379786Y-72889890D01*
X97207820Y-72764951D01*
X97207115Y-72764591D01*
X97199054Y-72760485D01*
X97148259Y-72712512D01*
X97131463Y-72644692D01*
X97153999Y-72578556D01*
X97199054Y-72539515D01*
X97207816Y-72535051D01*
X97229789Y-72519086D01*
X97379786Y-72410109D01*
X97379788Y-72410106D01*
X97379792Y-72410104D01*
X97530104Y-72259792D01*
X97530106Y-72259788D01*
X97530109Y-72259786D01*
X97655048Y-72087820D01*
X97655047Y-72087820D01*
X97655051Y-72087816D01*
X97751557Y-71898412D01*
X97817246Y-71696243D01*
X97850500Y-71486287D01*
X97850500Y-71273713D01*
X97817246Y-71063757D01*
X97751557Y-70861588D01*
X97655051Y-70672184D01*
X97655049Y-70672181D01*
X97655048Y-70672179D01*
X97530109Y-70500213D01*
X97416569Y-70386673D01*
X97383084Y-70325350D01*
X97388068Y-70255658D01*
X97429940Y-70199725D01*
X97460915Y-70182810D01*
X97592331Y-70133796D01*
X97707546Y-70047546D01*
X97793796Y-69932331D01*
X97844091Y-69797483D01*
X97850500Y-69737873D01*
X97850499Y-67942128D01*
X97844091Y-67882517D01*
X97793796Y-67747669D01*
X97793795Y-67747668D01*
X97793793Y-67747664D01*
X97707547Y-67632455D01*
X97707544Y-67632452D01*
X97592335Y-67546206D01*
X97592328Y-67546202D01*
X97457482Y-67495908D01*
X97457483Y-67495908D01*
X97397883Y-67489501D01*
X97397881Y-67489500D01*
X97397873Y-67489500D01*
X97397864Y-67489500D01*
X95602129Y-67489500D01*
X95602123Y-67489501D01*
X95542516Y-67495908D01*
X95407671Y-67546202D01*
X95407664Y-67546206D01*
X95292455Y-67632452D01*
X95292452Y-67632455D01*
X95206206Y-67747664D01*
X95206202Y-67747671D01*
X95155908Y-67882517D01*
X95149501Y-67942116D01*
X95149501Y-67942123D01*
X95149500Y-67942135D01*
X90000500Y-67942135D01*
X90000500Y-66624500D01*
X90020185Y-66557461D01*
X90072989Y-66511706D01*
X90124500Y-66500500D01*
X111375500Y-66500500D01*
X111442539Y-66520185D01*
G37*
%TD.AperFunction*%
%TD*%
%TA.AperFunction,Conductor*%
%TO.N,unconnected-(J1-Pin_5-Pad5)*%
G36*
X130942539Y-66520185D02*
G01*
X130988294Y-66572989D01*
X130999500Y-66624500D01*
X130999500Y-82375500D01*
X130979815Y-82442539D01*
X130927011Y-82488294D01*
X130875500Y-82499500D01*
X117124500Y-82499500D01*
X117057461Y-82479815D01*
X117011706Y-82427011D01*
X117000500Y-82375500D01*
X117000500Y-68219736D01*
X119089500Y-68219736D01*
X119089500Y-70015471D01*
X119089501Y-70015477D01*
X119095908Y-70075084D01*
X119146202Y-70209929D01*
X119146206Y-70209936D01*
X119232452Y-70325145D01*
X119232455Y-70325148D01*
X119347664Y-70411394D01*
X119347671Y-70411398D01*
X119479082Y-70460411D01*
X119535016Y-70502282D01*
X119559433Y-70567746D01*
X119544582Y-70636019D01*
X119523431Y-70664274D01*
X119409889Y-70777816D01*
X119284951Y-70949780D01*
X119188444Y-71139186D01*
X119122753Y-71341361D01*
X119089500Y-71551314D01*
X119089500Y-71763887D01*
X119122753Y-71973840D01*
X119188444Y-72176015D01*
X119284951Y-72365421D01*
X119409890Y-72537387D01*
X119560213Y-72687710D01*
X119732182Y-72812651D01*
X119740946Y-72817117D01*
X119791742Y-72865092D01*
X119808536Y-72932913D01*
X119785998Y-72999048D01*
X119740946Y-73038085D01*
X119732182Y-73042550D01*
X119560213Y-73167491D01*
X119409890Y-73317814D01*
X119284951Y-73489780D01*
X119188444Y-73679186D01*
X119122753Y-73881361D01*
X119089500Y-74091314D01*
X119089500Y-74303887D01*
X119122753Y-74513840D01*
X119188444Y-74716015D01*
X119284951Y-74905421D01*
X119409890Y-75077387D01*
X119560213Y-75227710D01*
X119732182Y-75352651D01*
X119740946Y-75357117D01*
X119791742Y-75405092D01*
X119808536Y-75472913D01*
X119785998Y-75539048D01*
X119740946Y-75578085D01*
X119732182Y-75582550D01*
X119560213Y-75707491D01*
X119409890Y-75857814D01*
X119284951Y-76029780D01*
X119188444Y-76219186D01*
X119122753Y-76421361D01*
X119089500Y-76631314D01*
X119089500Y-76843887D01*
X119122753Y-77053840D01*
X119188444Y-77256015D01*
X119284951Y-77445421D01*
X119409890Y-77617387D01*
X119560213Y-77767710D01*
X119732179Y-77892649D01*
X119732181Y-77892650D01*
X119732184Y-77892652D01*
X119741493Y-77897395D01*
X119792290Y-77945367D01*
X119809087Y-78013188D01*
X119786552Y-78079323D01*
X119741505Y-78118361D01*
X119732446Y-78122977D01*
X119732440Y-78122981D01*
X119678282Y-78162328D01*
X119678282Y-78162329D01*
X120310591Y-78794638D01*
X120247007Y-78811676D01*
X120132993Y-78877502D01*
X120039901Y-78970594D01*
X119974075Y-79084608D01*
X119957037Y-79148192D01*
X119324728Y-78515883D01*
X119324727Y-78515883D01*
X119285380Y-78570040D01*
X119188904Y-78759383D01*
X119123242Y-78961470D01*
X119123242Y-78961473D01*
X119090000Y-79171354D01*
X119090000Y-79383847D01*
X119123242Y-79593728D01*
X119123242Y-79593731D01*
X119188904Y-79795818D01*
X119285375Y-79985151D01*
X119324728Y-80039317D01*
X119957036Y-79407008D01*
X119974075Y-79470594D01*
X120039901Y-79584608D01*
X120132993Y-79677700D01*
X120247007Y-79743526D01*
X120310590Y-79760563D01*
X119678282Y-80392870D01*
X119678282Y-80392871D01*
X119732449Y-80432225D01*
X119921782Y-80528696D01*
X120123870Y-80594358D01*
X120333754Y-80627601D01*
X120546246Y-80627601D01*
X120756127Y-80594358D01*
X120756130Y-80594358D01*
X120958217Y-80528696D01*
X121147554Y-80432223D01*
X121201716Y-80392871D01*
X121201717Y-80392871D01*
X120569408Y-79760563D01*
X120632993Y-79743526D01*
X120747007Y-79677700D01*
X120840099Y-79584608D01*
X120905925Y-79470594D01*
X120922962Y-79407009D01*
X121555270Y-80039318D01*
X121555270Y-80039317D01*
X121594622Y-79985155D01*
X121691095Y-79795818D01*
X121756757Y-79593731D01*
X121756757Y-79593728D01*
X121790000Y-79383847D01*
X121790000Y-79171354D01*
X121756757Y-78961473D01*
X121756757Y-78961470D01*
X121691095Y-78759383D01*
X121594624Y-78570050D01*
X121555270Y-78515883D01*
X121555269Y-78515883D01*
X120922962Y-79148191D01*
X120905925Y-79084608D01*
X120840099Y-78970594D01*
X120747007Y-78877502D01*
X120632993Y-78811676D01*
X120569409Y-78794638D01*
X121201716Y-78162329D01*
X121147547Y-78122974D01*
X121147547Y-78122973D01*
X121138500Y-78118364D01*
X121087706Y-78070389D01*
X121070912Y-78002567D01*
X121093451Y-77936433D01*
X121138508Y-77897394D01*
X121147816Y-77892652D01*
X121227007Y-77835116D01*
X121319786Y-77767710D01*
X121319788Y-77767707D01*
X121319792Y-77767705D01*
X121470104Y-77617393D01*
X121470106Y-77617389D01*
X121470109Y-77617387D01*
X121595048Y-77445421D01*
X121595047Y-77445421D01*
X121595051Y-77445417D01*
X121691557Y-77256013D01*
X121757246Y-77053844D01*
X121790500Y-76843888D01*
X121790500Y-76631314D01*
X121757246Y-76421358D01*
X121691557Y-76219189D01*
X121595051Y-76029785D01*
X121595049Y-76029782D01*
X121595048Y-76029780D01*
X121470109Y-75857814D01*
X121319786Y-75707491D01*
X121147820Y-75582552D01*
X121147115Y-75582192D01*
X121139054Y-75578086D01*
X121088259Y-75530113D01*
X121071463Y-75462293D01*
X121093999Y-75396157D01*
X121139054Y-75357116D01*
X121147816Y-75352652D01*
X121169789Y-75336687D01*
X121319786Y-75227710D01*
X121319788Y-75227707D01*
X121319792Y-75227705D01*
X121470104Y-75077393D01*
X121470106Y-75077389D01*
X121470109Y-75077387D01*
X121595048Y-74905421D01*
X121595047Y-74905421D01*
X121595051Y-74905417D01*
X121691557Y-74716013D01*
X121757246Y-74513844D01*
X121790500Y-74303888D01*
X121790500Y-74091314D01*
X121757246Y-73881358D01*
X121691557Y-73679189D01*
X121595051Y-73489785D01*
X121595049Y-73489782D01*
X121595048Y-73489780D01*
X121470109Y-73317814D01*
X121319786Y-73167491D01*
X121147820Y-73042552D01*
X121147115Y-73042192D01*
X121139054Y-73038086D01*
X121088259Y-72990113D01*
X121071463Y-72922293D01*
X121093999Y-72856157D01*
X121139054Y-72817116D01*
X121147816Y-72812652D01*
X121169789Y-72796687D01*
X121319786Y-72687710D01*
X121319788Y-72687707D01*
X121319792Y-72687705D01*
X121470104Y-72537393D01*
X121470106Y-72537389D01*
X121470109Y-72537387D01*
X121595048Y-72365421D01*
X121595047Y-72365421D01*
X121595051Y-72365417D01*
X121691557Y-72176013D01*
X121757246Y-71973844D01*
X121790500Y-71763888D01*
X121790500Y-71551314D01*
X121757246Y-71341358D01*
X121691557Y-71139189D01*
X121595051Y-70949785D01*
X121595049Y-70949782D01*
X121595048Y-70949780D01*
X121470109Y-70777814D01*
X121356569Y-70664274D01*
X121323084Y-70602951D01*
X121328068Y-70533259D01*
X121369940Y-70477326D01*
X121400915Y-70460411D01*
X121532331Y-70411397D01*
X121647546Y-70325147D01*
X121733796Y-70209932D01*
X121784091Y-70075084D01*
X121790500Y-70015474D01*
X121790499Y-68219729D01*
X121784091Y-68160118D01*
X121733796Y-68025270D01*
X121733795Y-68025269D01*
X121733793Y-68025265D01*
X121647547Y-67910056D01*
X121647544Y-67910053D01*
X121532335Y-67823807D01*
X121532328Y-67823803D01*
X121397482Y-67773509D01*
X121397483Y-67773509D01*
X121337883Y-67767102D01*
X121337881Y-67767101D01*
X121337873Y-67767101D01*
X121337864Y-67767101D01*
X119542129Y-67767101D01*
X119542123Y-67767102D01*
X119482516Y-67773509D01*
X119347671Y-67823803D01*
X119347664Y-67823807D01*
X119232455Y-67910053D01*
X119232452Y-67910056D01*
X119146206Y-68025265D01*
X119146202Y-68025272D01*
X119095908Y-68160118D01*
X119089501Y-68219717D01*
X119089501Y-68219724D01*
X119089500Y-68219736D01*
X117000500Y-68219736D01*
X117000500Y-66624500D01*
X117020185Y-66557461D01*
X117072989Y-66511706D01*
X117124500Y-66500500D01*
X130875500Y-66500500D01*
X130942539Y-66520185D01*
G37*
%TD.AperFunction*%
%TD*%
M02*
