%TF.GenerationSoftware,KiCad,Pcbnew,9.0.4*%
%TF.CreationDate,2026-05-01T16:48:11-04:00*%
%TF.ProjectId,HypoV Breakout,4879706f-5620-4427-9265-616b6f75742e,rev?*%
%TF.SameCoordinates,Original*%
%TF.FileFunction,Legend,Top*%
%TF.FilePolarity,Positive*%
%FSLAX46Y46*%
G04 Gerber Fmt 4.6, Leading zero omitted, Abs format (unit mm)*
G04 Created by KiCad (PCBNEW 9.0.4) date 2026-05-01 16:48:11*
%MOMM*%
%LPD*%
G01*
G04 APERTURE LIST*
%ADD10C,0.200000*%
%ADD11C,0.150000*%
%ADD12C,0.120000*%
G04 APERTURE END LIST*
D10*
X118853600Y-75216041D02*
X118891695Y-75101755D01*
X118891695Y-75101755D02*
X118891695Y-74911279D01*
X118891695Y-74911279D02*
X118853600Y-74835088D01*
X118853600Y-74835088D02*
X118815504Y-74796993D01*
X118815504Y-74796993D02*
X118739314Y-74758898D01*
X118739314Y-74758898D02*
X118663123Y-74758898D01*
X118663123Y-74758898D02*
X118586933Y-74796993D01*
X118586933Y-74796993D02*
X118548838Y-74835088D01*
X118548838Y-74835088D02*
X118510742Y-74911279D01*
X118510742Y-74911279D02*
X118472647Y-75063660D01*
X118472647Y-75063660D02*
X118434552Y-75139850D01*
X118434552Y-75139850D02*
X118396457Y-75177945D01*
X118396457Y-75177945D02*
X118320266Y-75216041D01*
X118320266Y-75216041D02*
X118244076Y-75216041D01*
X118244076Y-75216041D02*
X118167885Y-75177945D01*
X118167885Y-75177945D02*
X118129790Y-75139850D01*
X118129790Y-75139850D02*
X118091695Y-75063660D01*
X118091695Y-75063660D02*
X118091695Y-74873183D01*
X118091695Y-74873183D02*
X118129790Y-74758898D01*
X118815504Y-73958897D02*
X118853600Y-73996993D01*
X118853600Y-73996993D02*
X118891695Y-74111278D01*
X118891695Y-74111278D02*
X118891695Y-74187469D01*
X118891695Y-74187469D02*
X118853600Y-74301755D01*
X118853600Y-74301755D02*
X118777409Y-74377945D01*
X118777409Y-74377945D02*
X118701219Y-74416040D01*
X118701219Y-74416040D02*
X118548838Y-74454136D01*
X118548838Y-74454136D02*
X118434552Y-74454136D01*
X118434552Y-74454136D02*
X118282171Y-74416040D01*
X118282171Y-74416040D02*
X118205980Y-74377945D01*
X118205980Y-74377945D02*
X118129790Y-74301755D01*
X118129790Y-74301755D02*
X118091695Y-74187469D01*
X118091695Y-74187469D02*
X118091695Y-74111278D01*
X118091695Y-74111278D02*
X118129790Y-73996993D01*
X118129790Y-73996993D02*
X118167885Y-73958897D01*
X118891695Y-73235088D02*
X118891695Y-73616040D01*
X118891695Y-73616040D02*
X118091695Y-73616040D01*
X93283958Y-74353600D02*
X93398244Y-74391695D01*
X93398244Y-74391695D02*
X93588720Y-74391695D01*
X93588720Y-74391695D02*
X93664911Y-74353600D01*
X93664911Y-74353600D02*
X93703006Y-74315504D01*
X93703006Y-74315504D02*
X93741101Y-74239314D01*
X93741101Y-74239314D02*
X93741101Y-74163123D01*
X93741101Y-74163123D02*
X93703006Y-74086933D01*
X93703006Y-74086933D02*
X93664911Y-74048838D01*
X93664911Y-74048838D02*
X93588720Y-74010742D01*
X93588720Y-74010742D02*
X93436339Y-73972647D01*
X93436339Y-73972647D02*
X93360149Y-73934552D01*
X93360149Y-73934552D02*
X93322054Y-73896457D01*
X93322054Y-73896457D02*
X93283958Y-73820266D01*
X93283958Y-73820266D02*
X93283958Y-73744076D01*
X93283958Y-73744076D02*
X93322054Y-73667885D01*
X93322054Y-73667885D02*
X93360149Y-73629790D01*
X93360149Y-73629790D02*
X93436339Y-73591695D01*
X93436339Y-73591695D02*
X93626816Y-73591695D01*
X93626816Y-73591695D02*
X93741101Y-73629790D01*
X94541102Y-74315504D02*
X94503006Y-74353600D01*
X94503006Y-74353600D02*
X94388721Y-74391695D01*
X94388721Y-74391695D02*
X94312530Y-74391695D01*
X94312530Y-74391695D02*
X94198244Y-74353600D01*
X94198244Y-74353600D02*
X94122054Y-74277409D01*
X94122054Y-74277409D02*
X94083959Y-74201219D01*
X94083959Y-74201219D02*
X94045863Y-74048838D01*
X94045863Y-74048838D02*
X94045863Y-73934552D01*
X94045863Y-73934552D02*
X94083959Y-73782171D01*
X94083959Y-73782171D02*
X94122054Y-73705980D01*
X94122054Y-73705980D02*
X94198244Y-73629790D01*
X94198244Y-73629790D02*
X94312530Y-73591695D01*
X94312530Y-73591695D02*
X94388721Y-73591695D01*
X94388721Y-73591695D02*
X94503006Y-73629790D01*
X94503006Y-73629790D02*
X94541102Y-73667885D01*
X95264911Y-74391695D02*
X94883959Y-74391695D01*
X94883959Y-74391695D02*
X94883959Y-73591695D01*
X98974435Y-76091695D02*
X99126816Y-76091695D01*
X99126816Y-76091695D02*
X99203006Y-76129790D01*
X99203006Y-76129790D02*
X99279197Y-76205980D01*
X99279197Y-76205980D02*
X99317292Y-76358361D01*
X99317292Y-76358361D02*
X99317292Y-76625028D01*
X99317292Y-76625028D02*
X99279197Y-76777409D01*
X99279197Y-76777409D02*
X99203006Y-76853600D01*
X99203006Y-76853600D02*
X99126816Y-76891695D01*
X99126816Y-76891695D02*
X98974435Y-76891695D01*
X98974435Y-76891695D02*
X98898244Y-76853600D01*
X98898244Y-76853600D02*
X98822054Y-76777409D01*
X98822054Y-76777409D02*
X98783958Y-76625028D01*
X98783958Y-76625028D02*
X98783958Y-76358361D01*
X98783958Y-76358361D02*
X98822054Y-76205980D01*
X98822054Y-76205980D02*
X98898244Y-76129790D01*
X98898244Y-76129790D02*
X98974435Y-76091695D01*
X99622053Y-76853600D02*
X99736339Y-76891695D01*
X99736339Y-76891695D02*
X99926815Y-76891695D01*
X99926815Y-76891695D02*
X100003006Y-76853600D01*
X100003006Y-76853600D02*
X100041101Y-76815504D01*
X100041101Y-76815504D02*
X100079196Y-76739314D01*
X100079196Y-76739314D02*
X100079196Y-76663123D01*
X100079196Y-76663123D02*
X100041101Y-76586933D01*
X100041101Y-76586933D02*
X100003006Y-76548838D01*
X100003006Y-76548838D02*
X99926815Y-76510742D01*
X99926815Y-76510742D02*
X99774434Y-76472647D01*
X99774434Y-76472647D02*
X99698244Y-76434552D01*
X99698244Y-76434552D02*
X99660149Y-76396457D01*
X99660149Y-76396457D02*
X99622053Y-76320266D01*
X99622053Y-76320266D02*
X99622053Y-76244076D01*
X99622053Y-76244076D02*
X99660149Y-76167885D01*
X99660149Y-76167885D02*
X99698244Y-76129790D01*
X99698244Y-76129790D02*
X99774434Y-76091695D01*
X99774434Y-76091695D02*
X99964911Y-76091695D01*
X99964911Y-76091695D02*
X100079196Y-76129790D01*
X118853600Y-72716041D02*
X118891695Y-72601755D01*
X118891695Y-72601755D02*
X118891695Y-72411279D01*
X118891695Y-72411279D02*
X118853600Y-72335088D01*
X118853600Y-72335088D02*
X118815504Y-72296993D01*
X118815504Y-72296993D02*
X118739314Y-72258898D01*
X118739314Y-72258898D02*
X118663123Y-72258898D01*
X118663123Y-72258898D02*
X118586933Y-72296993D01*
X118586933Y-72296993D02*
X118548838Y-72335088D01*
X118548838Y-72335088D02*
X118510742Y-72411279D01*
X118510742Y-72411279D02*
X118472647Y-72563660D01*
X118472647Y-72563660D02*
X118434552Y-72639850D01*
X118434552Y-72639850D02*
X118396457Y-72677945D01*
X118396457Y-72677945D02*
X118320266Y-72716041D01*
X118320266Y-72716041D02*
X118244076Y-72716041D01*
X118244076Y-72716041D02*
X118167885Y-72677945D01*
X118167885Y-72677945D02*
X118129790Y-72639850D01*
X118129790Y-72639850D02*
X118091695Y-72563660D01*
X118091695Y-72563660D02*
X118091695Y-72373183D01*
X118091695Y-72373183D02*
X118129790Y-72258898D01*
X118891695Y-71916040D02*
X118091695Y-71916040D01*
X118091695Y-71916040D02*
X118091695Y-71725564D01*
X118091695Y-71725564D02*
X118129790Y-71611278D01*
X118129790Y-71611278D02*
X118205980Y-71535088D01*
X118205980Y-71535088D02*
X118282171Y-71496993D01*
X118282171Y-71496993D02*
X118434552Y-71458897D01*
X118434552Y-71458897D02*
X118548838Y-71458897D01*
X118548838Y-71458897D02*
X118701219Y-71496993D01*
X118701219Y-71496993D02*
X118777409Y-71535088D01*
X118777409Y-71535088D02*
X118853600Y-71611278D01*
X118853600Y-71611278D02*
X118891695Y-71725564D01*
X118891695Y-71725564D02*
X118891695Y-71916040D01*
X118663123Y-71154136D02*
X118663123Y-70773183D01*
X118891695Y-71230326D02*
X118091695Y-70963659D01*
X118091695Y-70963659D02*
X118891695Y-70696993D01*
X98283958Y-71853600D02*
X98398244Y-71891695D01*
X98398244Y-71891695D02*
X98588720Y-71891695D01*
X98588720Y-71891695D02*
X98664911Y-71853600D01*
X98664911Y-71853600D02*
X98703006Y-71815504D01*
X98703006Y-71815504D02*
X98741101Y-71739314D01*
X98741101Y-71739314D02*
X98741101Y-71663123D01*
X98741101Y-71663123D02*
X98703006Y-71586933D01*
X98703006Y-71586933D02*
X98664911Y-71548838D01*
X98664911Y-71548838D02*
X98588720Y-71510742D01*
X98588720Y-71510742D02*
X98436339Y-71472647D01*
X98436339Y-71472647D02*
X98360149Y-71434552D01*
X98360149Y-71434552D02*
X98322054Y-71396457D01*
X98322054Y-71396457D02*
X98283958Y-71320266D01*
X98283958Y-71320266D02*
X98283958Y-71244076D01*
X98283958Y-71244076D02*
X98322054Y-71167885D01*
X98322054Y-71167885D02*
X98360149Y-71129790D01*
X98360149Y-71129790D02*
X98436339Y-71091695D01*
X98436339Y-71091695D02*
X98626816Y-71091695D01*
X98626816Y-71091695D02*
X98741101Y-71129790D01*
X99083959Y-71891695D02*
X99083959Y-71091695D01*
X99083959Y-71091695D02*
X99274435Y-71091695D01*
X99274435Y-71091695D02*
X99388721Y-71129790D01*
X99388721Y-71129790D02*
X99464911Y-71205980D01*
X99464911Y-71205980D02*
X99503006Y-71282171D01*
X99503006Y-71282171D02*
X99541102Y-71434552D01*
X99541102Y-71434552D02*
X99541102Y-71548838D01*
X99541102Y-71548838D02*
X99503006Y-71701219D01*
X99503006Y-71701219D02*
X99464911Y-71777409D01*
X99464911Y-71777409D02*
X99388721Y-71853600D01*
X99388721Y-71853600D02*
X99274435Y-71891695D01*
X99274435Y-71891695D02*
X99083959Y-71891695D01*
X99845863Y-71663123D02*
X100226816Y-71663123D01*
X99769673Y-71891695D02*
X100036340Y-71091695D01*
X100036340Y-71091695D02*
X100303006Y-71891695D01*
X118091695Y-77525564D02*
X118091695Y-77373183D01*
X118091695Y-77373183D02*
X118129790Y-77296993D01*
X118129790Y-77296993D02*
X118205980Y-77220802D01*
X118205980Y-77220802D02*
X118358361Y-77182707D01*
X118358361Y-77182707D02*
X118625028Y-77182707D01*
X118625028Y-77182707D02*
X118777409Y-77220802D01*
X118777409Y-77220802D02*
X118853600Y-77296993D01*
X118853600Y-77296993D02*
X118891695Y-77373183D01*
X118891695Y-77373183D02*
X118891695Y-77525564D01*
X118891695Y-77525564D02*
X118853600Y-77601755D01*
X118853600Y-77601755D02*
X118777409Y-77677945D01*
X118777409Y-77677945D02*
X118625028Y-77716041D01*
X118625028Y-77716041D02*
X118358361Y-77716041D01*
X118358361Y-77716041D02*
X118205980Y-77677945D01*
X118205980Y-77677945D02*
X118129790Y-77601755D01*
X118129790Y-77601755D02*
X118091695Y-77525564D01*
X118853600Y-76877946D02*
X118891695Y-76763660D01*
X118891695Y-76763660D02*
X118891695Y-76573184D01*
X118891695Y-76573184D02*
X118853600Y-76496993D01*
X118853600Y-76496993D02*
X118815504Y-76458898D01*
X118815504Y-76458898D02*
X118739314Y-76420803D01*
X118739314Y-76420803D02*
X118663123Y-76420803D01*
X118663123Y-76420803D02*
X118586933Y-76458898D01*
X118586933Y-76458898D02*
X118548838Y-76496993D01*
X118548838Y-76496993D02*
X118510742Y-76573184D01*
X118510742Y-76573184D02*
X118472647Y-76725565D01*
X118472647Y-76725565D02*
X118434552Y-76801755D01*
X118434552Y-76801755D02*
X118396457Y-76839850D01*
X118396457Y-76839850D02*
X118320266Y-76877946D01*
X118320266Y-76877946D02*
X118244076Y-76877946D01*
X118244076Y-76877946D02*
X118167885Y-76839850D01*
X118167885Y-76839850D02*
X118129790Y-76801755D01*
X118129790Y-76801755D02*
X118091695Y-76725565D01*
X118091695Y-76725565D02*
X118091695Y-76535088D01*
X118091695Y-76535088D02*
X118129790Y-76420803D01*
X98245863Y-66591695D02*
X98741101Y-66591695D01*
X98741101Y-66591695D02*
X98474435Y-66896457D01*
X98474435Y-66896457D02*
X98588720Y-66896457D01*
X98588720Y-66896457D02*
X98664911Y-66934552D01*
X98664911Y-66934552D02*
X98703006Y-66972647D01*
X98703006Y-66972647D02*
X98741101Y-67048838D01*
X98741101Y-67048838D02*
X98741101Y-67239314D01*
X98741101Y-67239314D02*
X98703006Y-67315504D01*
X98703006Y-67315504D02*
X98664911Y-67353600D01*
X98664911Y-67353600D02*
X98588720Y-67391695D01*
X98588720Y-67391695D02*
X98360149Y-67391695D01*
X98360149Y-67391695D02*
X98283958Y-67353600D01*
X98283958Y-67353600D02*
X98245863Y-67315504D01*
X99083959Y-67315504D02*
X99122054Y-67353600D01*
X99122054Y-67353600D02*
X99083959Y-67391695D01*
X99083959Y-67391695D02*
X99045863Y-67353600D01*
X99045863Y-67353600D02*
X99083959Y-67315504D01*
X99083959Y-67315504D02*
X99083959Y-67391695D01*
X99388720Y-66591695D02*
X99883958Y-66591695D01*
X99883958Y-66591695D02*
X99617292Y-66896457D01*
X99617292Y-66896457D02*
X99731577Y-66896457D01*
X99731577Y-66896457D02*
X99807768Y-66934552D01*
X99807768Y-66934552D02*
X99845863Y-66972647D01*
X99845863Y-66972647D02*
X99883958Y-67048838D01*
X99883958Y-67048838D02*
X99883958Y-67239314D01*
X99883958Y-67239314D02*
X99845863Y-67315504D01*
X99845863Y-67315504D02*
X99807768Y-67353600D01*
X99807768Y-67353600D02*
X99731577Y-67391695D01*
X99731577Y-67391695D02*
X99503006Y-67391695D01*
X99503006Y-67391695D02*
X99426815Y-67353600D01*
X99426815Y-67353600D02*
X99388720Y-67315504D01*
X100112530Y-66591695D02*
X100379197Y-67391695D01*
X100379197Y-67391695D02*
X100645863Y-66591695D01*
X122274435Y-67367219D02*
X122893482Y-67367219D01*
X122893482Y-67367219D02*
X122560149Y-67748171D01*
X122560149Y-67748171D02*
X122703006Y-67748171D01*
X122703006Y-67748171D02*
X122798244Y-67795790D01*
X122798244Y-67795790D02*
X122845863Y-67843409D01*
X122845863Y-67843409D02*
X122893482Y-67938647D01*
X122893482Y-67938647D02*
X122893482Y-68176742D01*
X122893482Y-68176742D02*
X122845863Y-68271980D01*
X122845863Y-68271980D02*
X122798244Y-68319600D01*
X122798244Y-68319600D02*
X122703006Y-68367219D01*
X122703006Y-68367219D02*
X122417292Y-68367219D01*
X122417292Y-68367219D02*
X122322054Y-68319600D01*
X122322054Y-68319600D02*
X122274435Y-68271980D01*
X123322054Y-68271980D02*
X123369673Y-68319600D01*
X123369673Y-68319600D02*
X123322054Y-68367219D01*
X123322054Y-68367219D02*
X123274435Y-68319600D01*
X123274435Y-68319600D02*
X123322054Y-68271980D01*
X123322054Y-68271980D02*
X123322054Y-68367219D01*
X123703006Y-67367219D02*
X124322053Y-67367219D01*
X124322053Y-67367219D02*
X123988720Y-67748171D01*
X123988720Y-67748171D02*
X124131577Y-67748171D01*
X124131577Y-67748171D02*
X124226815Y-67795790D01*
X124226815Y-67795790D02*
X124274434Y-67843409D01*
X124274434Y-67843409D02*
X124322053Y-67938647D01*
X124322053Y-67938647D02*
X124322053Y-68176742D01*
X124322053Y-68176742D02*
X124274434Y-68271980D01*
X124274434Y-68271980D02*
X124226815Y-68319600D01*
X124226815Y-68319600D02*
X124131577Y-68367219D01*
X124131577Y-68367219D02*
X123845863Y-68367219D01*
X123845863Y-68367219D02*
X123750625Y-68319600D01*
X123750625Y-68319600D02*
X123703006Y-68271980D01*
D11*
X120106666Y-65802420D02*
X120106666Y-66516705D01*
X120106666Y-66516705D02*
X120059047Y-66659562D01*
X120059047Y-66659562D02*
X119963809Y-66754801D01*
X119963809Y-66754801D02*
X119820952Y-66802420D01*
X119820952Y-66802420D02*
X119725714Y-66802420D01*
X121106666Y-66802420D02*
X120535238Y-66802420D01*
X120820952Y-66802420D02*
X120820952Y-65802420D01*
X120820952Y-65802420D02*
X120725714Y-65945277D01*
X120725714Y-65945277D02*
X120630476Y-66040515D01*
X120630476Y-66040515D02*
X120535238Y-66088134D01*
X115130475Y-82407181D02*
X115082856Y-82454801D01*
X115082856Y-82454801D02*
X114939999Y-82502420D01*
X114939999Y-82502420D02*
X114844761Y-82502420D01*
X114844761Y-82502420D02*
X114701904Y-82454801D01*
X114701904Y-82454801D02*
X114606666Y-82359562D01*
X114606666Y-82359562D02*
X114559047Y-82264324D01*
X114559047Y-82264324D02*
X114511428Y-82073848D01*
X114511428Y-82073848D02*
X114511428Y-81930991D01*
X114511428Y-81930991D02*
X114559047Y-81740515D01*
X114559047Y-81740515D02*
X114606666Y-81645277D01*
X114606666Y-81645277D02*
X114701904Y-81550039D01*
X114701904Y-81550039D02*
X114844761Y-81502420D01*
X114844761Y-81502420D02*
X114939999Y-81502420D01*
X114939999Y-81502420D02*
X115082856Y-81550039D01*
X115082856Y-81550039D02*
X115130475Y-81597658D01*
X115701904Y-82502420D02*
X115606666Y-82454801D01*
X115606666Y-82454801D02*
X115559047Y-82407181D01*
X115559047Y-82407181D02*
X115511428Y-82311943D01*
X115511428Y-82311943D02*
X115511428Y-82026229D01*
X115511428Y-82026229D02*
X115559047Y-81930991D01*
X115559047Y-81930991D02*
X115606666Y-81883372D01*
X115606666Y-81883372D02*
X115701904Y-81835753D01*
X115701904Y-81835753D02*
X115844761Y-81835753D01*
X115844761Y-81835753D02*
X115939999Y-81883372D01*
X115939999Y-81883372D02*
X115987618Y-81930991D01*
X115987618Y-81930991D02*
X116035237Y-82026229D01*
X116035237Y-82026229D02*
X116035237Y-82311943D01*
X116035237Y-82311943D02*
X115987618Y-82407181D01*
X115987618Y-82407181D02*
X115939999Y-82454801D01*
X115939999Y-82454801D02*
X115844761Y-82502420D01*
X115844761Y-82502420D02*
X115701904Y-82502420D01*
X116463809Y-81835753D02*
X116463809Y-82502420D01*
X116463809Y-81930991D02*
X116511428Y-81883372D01*
X116511428Y-81883372D02*
X116606666Y-81835753D01*
X116606666Y-81835753D02*
X116749523Y-81835753D01*
X116749523Y-81835753D02*
X116844761Y-81883372D01*
X116844761Y-81883372D02*
X116892380Y-81978610D01*
X116892380Y-81978610D02*
X116892380Y-82502420D01*
X117368571Y-81835753D02*
X117368571Y-82502420D01*
X117368571Y-81930991D02*
X117416190Y-81883372D01*
X117416190Y-81883372D02*
X117511428Y-81835753D01*
X117511428Y-81835753D02*
X117654285Y-81835753D01*
X117654285Y-81835753D02*
X117749523Y-81883372D01*
X117749523Y-81883372D02*
X117797142Y-81978610D01*
X117797142Y-81978610D02*
X117797142Y-82502420D01*
X118035238Y-82597658D02*
X118797142Y-82597658D01*
X119225714Y-81502420D02*
X119320952Y-81502420D01*
X119320952Y-81502420D02*
X119416190Y-81550039D01*
X119416190Y-81550039D02*
X119463809Y-81597658D01*
X119463809Y-81597658D02*
X119511428Y-81692896D01*
X119511428Y-81692896D02*
X119559047Y-81883372D01*
X119559047Y-81883372D02*
X119559047Y-82121467D01*
X119559047Y-82121467D02*
X119511428Y-82311943D01*
X119511428Y-82311943D02*
X119463809Y-82407181D01*
X119463809Y-82407181D02*
X119416190Y-82454801D01*
X119416190Y-82454801D02*
X119320952Y-82502420D01*
X119320952Y-82502420D02*
X119225714Y-82502420D01*
X119225714Y-82502420D02*
X119130476Y-82454801D01*
X119130476Y-82454801D02*
X119082857Y-82407181D01*
X119082857Y-82407181D02*
X119035238Y-82311943D01*
X119035238Y-82311943D02*
X118987619Y-82121467D01*
X118987619Y-82121467D02*
X118987619Y-81883372D01*
X118987619Y-81883372D02*
X119035238Y-81692896D01*
X119035238Y-81692896D02*
X119082857Y-81597658D01*
X119082857Y-81597658D02*
X119130476Y-81550039D01*
X119130476Y-81550039D02*
X119225714Y-81502420D01*
X120511428Y-82502420D02*
X119940000Y-82502420D01*
X120225714Y-82502420D02*
X120225714Y-81502420D01*
X120225714Y-81502420D02*
X120130476Y-81645277D01*
X120130476Y-81645277D02*
X120035238Y-81740515D01*
X120035238Y-81740515D02*
X119940000Y-81788134D01*
X120844762Y-82502420D02*
X121368571Y-81835753D01*
X120844762Y-81835753D02*
X121368571Y-82502420D01*
X121940000Y-81502420D02*
X122035238Y-81502420D01*
X122035238Y-81502420D02*
X122130476Y-81550039D01*
X122130476Y-81550039D02*
X122178095Y-81597658D01*
X122178095Y-81597658D02*
X122225714Y-81692896D01*
X122225714Y-81692896D02*
X122273333Y-81883372D01*
X122273333Y-81883372D02*
X122273333Y-82121467D01*
X122273333Y-82121467D02*
X122225714Y-82311943D01*
X122225714Y-82311943D02*
X122178095Y-82407181D01*
X122178095Y-82407181D02*
X122130476Y-82454801D01*
X122130476Y-82454801D02*
X122035238Y-82502420D01*
X122035238Y-82502420D02*
X121940000Y-82502420D01*
X121940000Y-82502420D02*
X121844762Y-82454801D01*
X121844762Y-82454801D02*
X121797143Y-82407181D01*
X121797143Y-82407181D02*
X121749524Y-82311943D01*
X121749524Y-82311943D02*
X121701905Y-82121467D01*
X121701905Y-82121467D02*
X121701905Y-81883372D01*
X121701905Y-81883372D02*
X121749524Y-81692896D01*
X121749524Y-81692896D02*
X121797143Y-81597658D01*
X121797143Y-81597658D02*
X121844762Y-81550039D01*
X121844762Y-81550039D02*
X121940000Y-81502420D01*
X123178095Y-81502420D02*
X122701905Y-81502420D01*
X122701905Y-81502420D02*
X122654286Y-81978610D01*
X122654286Y-81978610D02*
X122701905Y-81930991D01*
X122701905Y-81930991D02*
X122797143Y-81883372D01*
X122797143Y-81883372D02*
X123035238Y-81883372D01*
X123035238Y-81883372D02*
X123130476Y-81930991D01*
X123130476Y-81930991D02*
X123178095Y-81978610D01*
X123178095Y-81978610D02*
X123225714Y-82073848D01*
X123225714Y-82073848D02*
X123225714Y-82311943D01*
X123225714Y-82311943D02*
X123178095Y-82407181D01*
X123178095Y-82407181D02*
X123130476Y-82454801D01*
X123130476Y-82454801D02*
X123035238Y-82502420D01*
X123035238Y-82502420D02*
X122797143Y-82502420D01*
X122797143Y-82502420D02*
X122701905Y-82454801D01*
X122701905Y-82454801D02*
X122654286Y-82407181D01*
X123416191Y-82597658D02*
X124178095Y-82597658D01*
X124416191Y-82502420D02*
X124416191Y-81502420D01*
X124416191Y-81502420D02*
X124797143Y-81502420D01*
X124797143Y-81502420D02*
X124892381Y-81550039D01*
X124892381Y-81550039D02*
X124940000Y-81597658D01*
X124940000Y-81597658D02*
X124987619Y-81692896D01*
X124987619Y-81692896D02*
X124987619Y-81835753D01*
X124987619Y-81835753D02*
X124940000Y-81930991D01*
X124940000Y-81930991D02*
X124892381Y-81978610D01*
X124892381Y-81978610D02*
X124797143Y-82026229D01*
X124797143Y-82026229D02*
X124416191Y-82026229D01*
X125416191Y-82502420D02*
X125416191Y-81835753D01*
X125416191Y-81502420D02*
X125368572Y-81550039D01*
X125368572Y-81550039D02*
X125416191Y-81597658D01*
X125416191Y-81597658D02*
X125463810Y-81550039D01*
X125463810Y-81550039D02*
X125416191Y-81502420D01*
X125416191Y-81502420D02*
X125416191Y-81597658D01*
X125892381Y-81835753D02*
X125892381Y-82502420D01*
X125892381Y-81930991D02*
X125940000Y-81883372D01*
X125940000Y-81883372D02*
X126035238Y-81835753D01*
X126035238Y-81835753D02*
X126178095Y-81835753D01*
X126178095Y-81835753D02*
X126273333Y-81883372D01*
X126273333Y-81883372D02*
X126320952Y-81978610D01*
X126320952Y-81978610D02*
X126320952Y-82502420D01*
X119894819Y-74530934D02*
X120609104Y-74530934D01*
X120609104Y-74530934D02*
X120751961Y-74578553D01*
X120751961Y-74578553D02*
X120847200Y-74673791D01*
X120847200Y-74673791D02*
X120894819Y-74816648D01*
X120894819Y-74816648D02*
X120894819Y-74911886D01*
X120894819Y-73530934D02*
X120894819Y-74102362D01*
X120894819Y-73816648D02*
X119894819Y-73816648D01*
X119894819Y-73816648D02*
X120037676Y-73911886D01*
X120037676Y-73911886D02*
X120132914Y-74007124D01*
X120132914Y-74007124D02*
X120180533Y-74102362D01*
X97666666Y-64454819D02*
X97666666Y-65169104D01*
X97666666Y-65169104D02*
X97619047Y-65311961D01*
X97619047Y-65311961D02*
X97523809Y-65407200D01*
X97523809Y-65407200D02*
X97380952Y-65454819D01*
X97380952Y-65454819D02*
X97285714Y-65454819D01*
X98047619Y-64454819D02*
X98666666Y-64454819D01*
X98666666Y-64454819D02*
X98333333Y-64835771D01*
X98333333Y-64835771D02*
X98476190Y-64835771D01*
X98476190Y-64835771D02*
X98571428Y-64883390D01*
X98571428Y-64883390D02*
X98619047Y-64931009D01*
X98619047Y-64931009D02*
X98666666Y-65026247D01*
X98666666Y-65026247D02*
X98666666Y-65264342D01*
X98666666Y-65264342D02*
X98619047Y-65359580D01*
X98619047Y-65359580D02*
X98571428Y-65407200D01*
X98571428Y-65407200D02*
X98476190Y-65454819D01*
X98476190Y-65454819D02*
X98190476Y-65454819D01*
X98190476Y-65454819D02*
X98095238Y-65407200D01*
X98095238Y-65407200D02*
X98047619Y-65359580D01*
X95954819Y-74253333D02*
X96669104Y-74253333D01*
X96669104Y-74253333D02*
X96811961Y-74300952D01*
X96811961Y-74300952D02*
X96907200Y-74396190D01*
X96907200Y-74396190D02*
X96954819Y-74539047D01*
X96954819Y-74539047D02*
X96954819Y-74634285D01*
X95954819Y-73872380D02*
X95954819Y-73253333D01*
X95954819Y-73253333D02*
X96335771Y-73586666D01*
X96335771Y-73586666D02*
X96335771Y-73443809D01*
X96335771Y-73443809D02*
X96383390Y-73348571D01*
X96383390Y-73348571D02*
X96431009Y-73300952D01*
X96431009Y-73300952D02*
X96526247Y-73253333D01*
X96526247Y-73253333D02*
X96764342Y-73253333D01*
X96764342Y-73253333D02*
X96859580Y-73300952D01*
X96859580Y-73300952D02*
X96907200Y-73348571D01*
X96907200Y-73348571D02*
X96954819Y-73443809D01*
X96954819Y-73443809D02*
X96954819Y-73729523D01*
X96954819Y-73729523D02*
X96907200Y-73824761D01*
X96907200Y-73824761D02*
X96859580Y-73872380D01*
D12*
%TO.C,J1*%
X119110000Y-70387601D02*
X119110000Y-80607601D01*
X119110000Y-70387601D02*
X121770000Y-70387601D01*
X119110000Y-80607601D02*
X121770000Y-80607601D01*
X120440000Y-67787601D02*
X121770000Y-67787601D01*
X121770000Y-67787601D02*
X121770000Y-69117601D01*
X121770000Y-70387601D02*
X121770000Y-80607601D01*
%TO.C,J3*%
X95170000Y-70110000D02*
X95170000Y-80330000D01*
X95170000Y-70110000D02*
X97830000Y-70110000D01*
X95170000Y-80330000D02*
X97830000Y-80330000D01*
X96500000Y-67510000D02*
X97830000Y-67510000D01*
X97830000Y-67510000D02*
X97830000Y-68840000D01*
X97830000Y-70110000D02*
X97830000Y-80330000D01*
%TD*%
M02*
